Junta-Burgos-1551.sfdir
StartChar: exclam
Encoding: 1 33 117
Width: 304
VWidth: -36
Flags: W
VStem: 4.97103 253.042<111.211 195.066 628.949 712.066> 86 87<355 390.482>
LayerCount: 2
Fore
SplineSet
5 157 m 0x80
 5 157.887855393 4.97103211808 158.750600041 4.97103211808 159.58953469 c 0
 4.97103211808 194.66049485 21.8644019199 188.121386274 58 235 c 0
 95 283 109.970703125 306 127 306 c 0
 154 306 179 248 191 235 c 0
 202.893905809 222.114935374 258.013226874 190.564350523 258.013226874 146.190507012 c 0
 258.013226874 145.79469027 258.008841183 145.397853217 258 145 c 0
 257 100 235 87 211 74 c 0
 187 61 161 46 161 46 c 25
 170 26 l 25
 170 26 164 23 150 10 c 0
 136 -3 120 -8 120 -8 c 1
 120 -8 103.047851562 -1.97265625 91 19 c 0
 64 66 75 64 60 83 c 0
 37.30859375 111.7421875 6 111 5 157 c 0x80
5 674 m 0
 5 674.887855393 4.97103211808 675.750600041 4.97103211808 676.58953469 c 0
 4.97103211808 711.66049485 21.8644019199 705.121386274 58 752 c 0
 95 800 109.970703125 823 127 823 c 0
 154 823 179 765 191 752 c 0
 202.893905809 739.114935374 258.013226874 707.564350523 258.013226874 663.190507012 c 0x80
 258.013226874 662.79469027 258.008841183 662.397853217 258 662 c 0
 257.154618699 623.957841445 241.301176964 608.785108313 221.918871915 597.148415981 c 1
 173 355 l 1
 86 355 l 1x40
 55.6947456903 605.018348055 l 1
 33.5473581035 628.829502125 5.93807685437 630.848464699 5 674 c 0
EndSplineSet
Validated: 524289
EndChar
StartChar: dollar
Encoding: 136 36 136
Width: 551
VWidth: -36
Flags: W
HStem: -60 21G<237.809 267.207> 0 107<171.5 328.396> 577 116<172.5 354>
VStem: -4 76<319.5 480.5> 186 87<138.776 344 346 512.834>
LayerCount: 2
Fore
SplineSet
231 748 m 4
 246.98721534 748.639488614 294 698 294 698 c 5
 266 584 l 5
 277 454 l 4
 273 162 l 5
 280 128 278.793945312 49.8583984375 287 12 c 13
 298 -2 l 29
 251 -60 l 29
 189 34 l 5
 184.728515625 42.84765625 186.031440692 117.572964543 186 121 c 6
 182 557 l 6
 181.740559581 585.279005636 185 706 185 706 c 5
 165 702 l 5
 165 702 197.025140693 732.999999192 197.025140693 732.999999192 c 5
 197.025140693 732.999999192 216.021194233 747.400847769 231 748 c 4
391 462 m 1
 391 462 278 577 185 577 c 0
 160 577 137 570 118 550 c 0
 84 516 72 490 72 468 c 0
 72 430 110 407 130 384 c 0
 153 358 210 349 240 346 c 0
 251 345 258 344 258 344 c 1
 391 462 l 1
229 317 m 1
 115 210 l 1
 115 210 221 107 290 107 c 0
 359 107 408 147 408 147 c 1
 408 147 403 317 307 317 c 2
 229 317 l 1
-39 105 m 1
 114 210 l 1
 114 210 -4 265 -4 374 c 0
 -4 471 133 648 250 686 c 0
 264 690 279 693 292 693 c 0
 416 693 529 538 529 538 c 1
 399 445 l 1
 399 445 517 386 517 296 c 0
 517 206 351 0 231 0 c 0
 112 0 -39 105 -39 105 c 1
EndSplineSet
EndChar
StartChar: ampersand
Encoding: 2 38 72
Width: 632
VWidth: -36
Flags: W
HStem: -1.0304 137.001<301.747 353.328> 531.973 108.027<482.544 547.677> 551.114 130.026<183.749 239.482>
VStem: 25.87 167.524<411.56 503.061> 160.214 141.026<90.4303 263.556>
LayerCount: 2
Fore
SplineSet
54 353 m 0xb0
 35.5391279319 362.186459349 25.8699554169 388.915030612 25.8699554169 420.237700871 c 0
 25.8699554169 451.167898545 35.2983368253 486.577788508 55 514 c 0
 98.7412109375 574.8828125 152 600 152 600 c 1
 152 638 l 1
 152 638 203 677 220 681 c 0
 220.399943319 681.09410431 220.882908087 681.14005618 221.445235367 681.14005618 c 0xb0
 244.785204513 681.14005618 404.846938793 601.976473922 440 601 c 0
 440.444444444 600.987654321 440.887364731 600.981557689 441.328745806 600.981557689 c 0
 476.639231824 600.981557689 502.098765432 640 510 640 c 0
 517.731177286 640 558.149676099 623.1893775 558.149676099 593.178296468 c 0
 558.149676099 592.134773604 558.100808518 591.075290858 558 590 c 0
 555.053970202 558.575682159 559.822688466 531.973081856 530.638379065 531.973081856 c 0
 530.103733052 531.973081856 529.557692091 531.982009933 529 532 c 0
 499.563872837 532.949552489 473.734345392 541.112304415 472.059351665 541.933467983 c 1
 472.110095084 541.803236728 472.13762011 541.484159635 472.137619669 540.996907641 c 0
 472.137619669 534.263201694 466.880711487 495.410533616 445 479 c 0
 421 461 377 453 377 453 c 1
 377 453 306 324 302 279 c 0
 301.505399669 273.435746275 301.240139482 267.030578686 301.240139482 260.081310212 c 0
 301.240139482 211.384708697 314.265543314 135.970438591 352.676267125 135.970438591 c 0
 353.11420539 135.970438591 353.555443576 135.980241937 354 136 c 0
 398.182368398 137.963660818 438.50877299 164.027095429 455.103225538 164.027095429 c 0
 455.410319732 164.027095429 455.709286542 164.018169591 456 164 c 0
 472 163 514 134 514 134 c 1
 350 22 l 1
 350 22 326.009995835 -1.03040399833 302.470416238 -1.03040399833 c 0
 301.98000833 -1.03040399833 301.489795918 -1.02040816327 301 -1 c 0
 277 0 164 49 161 74 c 0
 160.462557154 78.4786903842 160.213959121 85.8458288968 160.213959121 95.0147524896 c 0xc8
 160.213959121 137.026658594 165.433180923 216.866361846 172 230 c 0
 198.536132812 283.073242188 282 429.3203125 354 437 c 1
 353 487 l 1
 353 487 345.48 485.24 333.96 485.24 c 0
 316.68 485.24 290.4 489.2 267 509 c 0
 234.915913778 536.148072957 202.831827555 551.114032439 186.894048163 551.114032439 c 0
 183.458565933 551.114032439 180.773311225 550.41864898 179 549 c 0
 177.468051913 547.774441531 176.827912504 545.704011683 176.827912504 542.939712018 c 0
 176.827912504 528.877310433 193.394128312 496.858199771 193.394128312 466.761839003 c 0
 193.394128312 464.15584147 193.269922092 461.564259872 193 459 c 0
 189.520016411 425.940155905 132.816568601 347.318909503 78.1735452433 347.318909503 c 0
 70.0081995824 347.318909503 61.8888622443 349.07448549 54 353 c 0xb0
EndSplineSet
Validated: 524289
EndChar
StartChar: parenleft
Encoding: 3 40 70
Width: 408
VWidth: -36
Flags: W
VStem: 0 63<167.145 446.646>
LayerCount: 2
Fore
SplineSet
384 778 m 0
 391 766 397 754 397 742 c 0
 397 728 390 715 373 702 c 0
 362 694 353 691 346 691 c 0
 334 691 327 699 321 699 c 0
 321 699 320 699 320 699 c 0
 310 697 149 598 125 549 c 0
 79 456 63 372 63 299 c 0
 63 115 165 -5 177 -48 c 0
 180 -58 212 -96 222 -104 c 0
 254 -133 312 -153 326 -172 c 1
 326 -172 318 -191 294 -191 c 0
 274 -191 241 -177 192 -126 c 0
 15 56 0 191 0 406 c 3
 0 618 295 769 302 773 c 0
 309 777 298 793 324 809 c 0
 326 810 329 811 332 811 c 0
 346 811 370 801 384 778 c 0
EndSplineSet
Validated: 1
EndChar
StartChar: parenright
Encoding: 4 41 73
Width: 418
VWidth: -36
Flags: W
VStem: 292 84<175.615 438.707>
LayerCount: 2
Fore
SplineSet
40 800 m 1
 40 800 376 668.200195312 376 296 c 0
 376 80 132 -148 132 -148 c 1
 52 -144 l 1
 52 -144 292 -36 292 288 c 0
 292 612 40 744 40 744 c 1
 40 800 l 1
EndSplineSet
Validated: 524289
EndChar
StartChar: plus
Encoding: 133 43 133
Width: 425
VWidth: -36
Flags: W
HStem: 231 114<193 321.128>
VStem: 126 130<157 294.64>
LayerCount: 2
Fore
SplineSet
125 451 m 5
 108 502 l 5
 108 502 111 528 176 528 c 4
 251 528 272 463 272 463 c 5
 256 158 l 5
 257 122 l 29
 263 71 l 29
 263 71 215 62 188 62 c 4
 111.993164062 62 126 157 126 157 c 13
 125 451 l 5
0 302 m 1
 99 361 l 1
 99 361 176 345 243 345 c 0
 310 345 377 372 377 372 c 25
 412 345 l 25
 412 345 400.296875 303.544921875 333 260 c 0
 299 238 272 231 249 231 c 0
 210 231 183 251 156 252 c 0
 154 252 152 252 150 252 c 0
 116 252 139 234 72 234 c 0
 2 234 0 302 0 302 c 1
EndSplineSet
EndChar
StartChar: comma
Encoding: 5 44 115
Width: 304
VWidth: -36
Flags: W
HStem: -16 322
VStem: 5 253.013
LayerCount: 2
Fore
SplineSet
5 157 m 0
 4.98069879581 157.887855393 4.97103211808 158.750600041 4.97103211808 159.58953469 c 0
 4.97103211808 194.66049485 21.8644019199 188.121386274 58 235 c 0
 95 283 109.970703125 306 127 306 c 0
 154 306 179 248 191 235 c 0
 202.893905809 222.114935374 258.013226874 190.564350523 258.013226874 146.190507012 c 0
 258.013226874 145.79469027 258.008841183 145.397853217 258 145 c 0
 257 100 235 87 211 74 c 0
 187 61 161 46 161 46 c 1
 155.533701509 37.4101023719 144.884064996 29.4300092171 133.455904981 23.6668829653 c 0
 127.160045286 19.8226866425 68.0341941345 -16.0000003168 51 -16 c 0
 33 -16 11 -14 11 -14 c 1
 3 4 l 1
 69.3486325232 65.0828680372 l 1
 67.7042206786 70.7763593356 66.1731316581 75.1806998998 60 83 c 0
 37.30859375 111.7421875 6 111 5 157 c 0
EndSplineSet
Validated: 524289
EndChar
StartChar: hyphen
Encoding: 6 45 19
Width: 358
VWidth: -36
Flags: W
VStem: 0 311
LayerCount: 2
Fore
SplineSet
29 182 m 1
 29 182 67 217 96 233 c 0
 125 249 168 265 168 265 c 2
 167.999999946 265.000000177 210.339166995 304.314941009 237.823474001 324.435990359 c 1
 208.902499692 315.550436787 175.540109725 304.519481866 158 296 c 0
 123 279 58 228 37 219 c 0
 29.2443455861 215.676148108 23.9438003717 213.989035683 19.687921505 213.989035683 c 0
 12.4201491836 213.989035683 8.19888060091 218.90907003 0 229 c 0
 -1.74226804124 231.144329897 -2.49665214157 233.863428632 -2.49665214157 236.964719018 c 0
 -2.49665214157 257.003826124 29 293 29 293 c 1
 29 293 67 328 96 344 c 0
 125 360 168 376 168 376 c 1
 168 376 224 428 249 443 c 0
 254.046359978 446.027815987 259.174210352 447.344333639 264.22728377 447.344333639 c 0
 284.207469178 447.344333639 303.018543991 426.761057619 311 410 c 0
 312.428571429 407 313.040816327 403.428571429 313.040816327 399.510204082 c 0
 313.040816327 376 291 340 291 340 c 2
 290.999999994 340.000000021 284.092882526 338.097018678 273.291182065 334.983377579 c 1
 289.715864236 330.128660642 304.241036762 313.1938228 311 299 c 0
 312.428571429 296 313.040816327 292.428571429 313.040816327 288.510204082 c 0
 313.040816327 265 291 229 291 229 c 1
 291 229 193 202 158 185 c 0
 123 168 58 117 37 108 c 0
 29.2443455861 104.676148108 23.9438003717 102.989035683 19.687921505 102.989035683 c 0
 12.4201491836 102.989035683 8.19888060091 107.90907003 0 118 c 0
 -1.74226804124 120.144329897 -2.49665214157 122.863428632 -2.49665214157 125.964719018 c 0
 -2.49665214157 146.003826124 29 182 29 182 c 1
EndSplineSet
Validated: 524289
EndChar
StartChar: period
Encoding: 7 46 16
Width: 304
VWidth: -36
Flags: W
HStem: -8 314
VStem: 4.97103 253.042<111.211 195.066>
LayerCount: 2
Fore
SplineSet
5 157 m 0
 4.98069879581 157.887855393 4.97103211808 158.750600041 4.97103211808 159.58953469 c 0
 4.97103211808 194.66049485 21.8644019199 188.121386274 58 235 c 0
 95 283 109.970703125 306 127 306 c 0
 154 306 179 248 191 235 c 0
 202.893905809 222.114935374 258.013226874 190.564350523 258.013226874 146.190507012 c 0
 258.013226874 145.79469027 258.008841183 145.397853217 258 145 c 0
 257 100 235 87 211 74 c 0
 187 61 161 46 161 46 c 25
 170 26 l 25
 170 26 164 23 150 10 c 0
 136 -3 120 -8 120 -8 c 1
 120 -8 103.047851562 -1.97265625 91 19 c 0
 64 66 75 64 60 83 c 0
 37.30859375 111.7421875 6 111 5 157 c 0
EndSplineSet
Validated: 1
EndChar
StartChar: slash
Encoding: 8 47 50
Width: 280
VWidth: -36
Flags: W
VStem: 7 207
LayerCount: 2
Fore
SplineSet
125 514 m 1
 125 514 132.73553719 515.785123967 142.364387678 515.785123967 c 0
 150.388429752 515.785123967 159.727272727 514.545454545 167 510 c 0
 183 500 214 490 214 490 c 25
 214 490 201 349 191 322 c 0
 181 295 144 257 138 234 c 0
 132 211 134 175 130 161 c 0
 126 147 102 136 101 128 c 0
 100 120 92 16 92 16 c 17
 92 16 82.2648888889 -20.0199111111 58.9525428148 -20.0199111111 c 0
 58.6375111111 -20.0199111111 58.32 -20.0133333333 58 -20 c 0
 34 -19 7 21 7 63 c 0
 7 105 51 204 66 229 c 0
 81 254 93 299 99 317 c 0
 109.333007812 348 118 437 125 514 c 1
EndSplineSet
Validated: 1
EndChar
StartChar: zero
Encoding: 48 48 94
Width: 511
VWidth: -36
Flags: W
HStem: 77 95<188.607 314.784> 504 98<167.554 319.143>
VStem: 0 77<305.358 428.664> 417 62<260.361 386.031>
LayerCount: 2
Fore
SplineSet
245 504 m 3
 164 504 77 426 77 384 c 3
 77 342 129 172 269 172 c 3
 365 172 417 292 417 312 c 3
 417 332 377 504 245 504 c 3
245 602 m 3
 387 602 479 458 479 323 c 0
 479 188 302 77 257 77 c 0
 212 77 0 155 0 332 c 0
 0 509 129 602 245 602 c 3
EndSplineSet
EndChar
StartChar: one
Encoding: 49 49 79
Width: 351
VWidth: 0
Flags: HW
LayerCount: 2
Fore
SplineSet
81 492 m 25
 31 597 l 1
 31 597 61 654 126 654 c 0
 201 654 230 588 230 588 c 9
 207 125 l 25
 283 75 l 25
 289 24 l 25
 289 24 166 29 139 29 c 0
 112 29 70 15 70 15 c 25
 12 86 l 25
 77 124 l 25
 81 492 l 25
EndSplineSet
EndChar
StartChar: two
Encoding: 11 50 76
Width: 565
VWidth: -36
Flags: W
HStem: 32.9256 143.691<294.719 455.626> 51 142.744<221.976 433.075> 51 133.901<220.037 335.286> 543.849 134.151<43.7917 230.5>
VStem: 228.2 126.8<343.575 543>
LayerCount: 2
Fore
SplineSet
0 552 m 25x58
 0 552 100 678 187 678 c 0
 274 678 355 588 355 498 c 0
 355 408 216 206 216 206 c 25
 216 206 214 192 220 186 c 0
 220.773873659 185.226126341 222.995041715 184.901413012 226.393153786 184.901413012 c 0x38
 244.126201142 184.901413012 293.910659738 193.744246917 337.325940887 193.744246917 c 0x58
 350.093899908 193.744246917 362.310999138 192.979444604 373 191 c 0
 420.024749443 182.291713066 427.615682998 176.616796585 445.301788692 176.616796585 c 0
 447.925194878 176.616796585 450.770717335 176.741657387 454 177 c 0
 479 179 518 193 518 193 c 25
 518 193 461 48 442 36 c 0
 438.545454545 33.8181818182 432.115702479 32.9256198347 423.516153268 32.9256198347 c 0x98
 384.818181818 32.9256198347 302.181818182 51 249 51 c 0
 184 51 25 34 25 34 c 17
 25 34 228.200343316 272.743637692 228.200343316 414.675751545 c 0
 228.200343316 446.060080351 218.264864865 472.710810811 194 491 c 0
 137.490238612 533.592936551 90.6564904174 543.848502619 58.6545149179 543.848502619 c 0
 28.9288305626 543.848502619 12 535 12 535 c 9
 0 552 l 25x58
EndSplineSet
Validated: 1
EndChar
StartChar: three
Encoding: 12 51 90
Width: 413
VWidth: -36
Flags: W
VStem: 256.467 107.533<74.3525 262.026>
LayerCount: 2
Fore
SplineSet
27 533 m 25
 32 556 30 571 39 591 c 0
 48 611 96 612 133 616 c 0
 133.634222204 616.068570157 134.316215842 616.101817134 135.042506573 616.101817134 c 0
 158.303227835 616.101817134 227 582 227 582 c 1
 227 582 275.359375 576 281 576 c 0
 294 576 305 558 306 547 c 0
 306.052631579 546.421052632 306.077562327 545.817174515 306.077562327 545.192593673 c 0
 306.077562327 533.950138504 298 516 298 516 c 9
 213 455 l 25
 118 528 l 25
 83 476 l 25
 27 533 l 25
149 414 m 1
 149 414 364 305.052734375 364 219 c 3
 364 47 102 -131 51 -131 c 0
 0 -131 0 -46 0 -46 c 1
 86 13 l 17
 86 13 121.37382716 -8.03308641975 145.381289438 -8.03308641975 c 0
 145.92691358 -8.03308641975 146.466666667 -8.02222222222 147 -8 c 0
 171 -7 195 -6 195 -6 c 25
 253 48 l 17
 253 48 256.467300832 72.6563614744 256.467300832 100.687031039 c 0
 256.467300832 117.816884661 255.172413793 136.206896552 251 151 c 8
 238 194 230 224 194 252 c 0
 158 280 42 302 42 302 c 25
 149 414 l 1
EndSplineSet
Validated: 524289
EndChar
StartChar: four
Encoding: 13 52 92
Width: 694
VWidth: -36
Flags: W
HStem: 94 110.322<510 600.317> 97.7778 97.6712<122.083 159.996 160 333 333.003 365.624>
VStem: 373.46 95.5398<248 317.44> 379.034 94.9742<41.0076 78.5915>
LayerCount: 2
Fore
SplineSet
157 289 m 18x60
 139.450091501 272.285801429 114.916072155 262.555713705 114.916072155 239.381319111 c 0
 114.916072155 234.825524313 115.864229071 229.750152502 118 224 c 0
 125.711864407 203.237288136 139.054294743 199.014363689 148.633073489 199.014363689 c 0
 155.201378914 199.014363689 160 201 160 201 c 10
 333 196 l 18
 333 196 336.489795918 195.448979592 341.580174927 195.448979592 c 0
 348.367346939 195.448979592 358 196.428571429 366 201 c 0
 371.764705882 204.294117647 373.460207612 211.826989619 373.460207612 219.968247507 c 0
 373.460207612 231.598615917 370 244.470588235 370 248 c 2
 370 254 365 302 364 327 c 0
 363 352 338 398 338 398 c 26
 338 398 323 434 312 434 c 0
 301 434 276 399 276 399 c 26
 157 289 l 18x60
32 221 m 10
 388 600 l 17
 388 600 419.473260023 630.214329622 447.461051581 630.214329622 c 0
 454.749538966 630.214329622 461.801652893 628.165289256 468 623 c 0
 498 598 501 558 501 558 c 25
 469 248 l 25x60
 469 248 469 209 481 205 c 0
 482.411764706 204.529411765 485.539792388 204.321799308 489.960716467 204.321799308 c 0
 523.117647059 204.321799308 629 216 629 216 c 9
 629 216 694 207 694 162 c 0
 694 117 636 84 636 84 c 25
 510 94 l 25
 510 94 489 90 484 79 c 0
 480.17482796 70.5846215115 474.008545338 42.8550807218 474.008545338 16.8559818726 c 0
 474.008545338 8.87085912895 474.590206448 1.04896775865 476 -6 c 0
 482 -36 495 -120 495 -120 c 17
 495 -120 495.376549587 -121.799070248 495.376549587 -124.755364857 c 0
 495.376549587 -136.252066116 489.681818182 -165.25 434 -174 c 0
 403.2 -178.84 385.5648 -180.1952 375.472256 -180.1952 c 0
 362.6272 -180.1952 362 -178 362 -178 c 9
 376 41 l 17
 376 41 379.03433923 51.4516129032 379.03433923 62.5666476453 c 0x90
 379.03433923 70.5941727367 377.451612903 78.9677419355 372 84 c 0
 363.333333333 92 308.888888889 97.7777777778 259.62962963 97.7777777778 c 0
 235 97.7777777778 211.666666667 96.3333333333 196 93 c 0
 149 83 79 83 79 83 c 18
 79 83 77.5586142874 82.8921980689 75.0984702137 82.8921980689 c 0
 62.5400147709 82.8921980689 23.4341246283 85.7013673819 14 120 c 0
 9.41127849412 136.682371193 6.96904040019 150.712419071 6.96904040019 163.170192904 c 0
 6.96904040019 185.409176284 14.7518602409 202.637704022 32 221 c 10
EndSplineSet
Validated: 1
EndChar
StartChar: five
Encoding: 14 53 92
Width: 434
VWidth: -36
Flags: W
HStem: 432 137<149 289.176>
VStem: 243 129<5 124>
LayerCount: 2
Fore
SplineSet
0 385 m 25
 30 415 59 447 76 463 c 0
 93 479 149 569 149 569 c 25
 392 564 l 25
 392 564 381 492 376 480 c 0
 371 468 333 425 333 425 c 1
 333 425 326 402 316 403 c 0
 291 405 245 432 216 432 c 0
 176 432 106 422 106 422 c 1
 106 422 104 404 104 390 c 0
 104 381 104 373 107 370 c 0
 109 367 149 341 173 318 c 16
 243 253 343 208 367 147 c 0
 370 138 372 129 372 119 c 0
 371 50 341 7 304 -69 c 0
 294 -90 265 -137 234 -137 c 0
 228 -137 221 -135 215 -130 c 0
 206 -123 203 -115 203 -106 c 0
 203 -79 236 -45 241 -15 c 0
 242 -8 243 0 243 10 c 0
 243 56 224 130 135 205 c 0
 27 296 0 294 0 326 c 0
 0 358 0 385 0 385 c 25
EndSplineSet
Validated: 1
EndChar
StartChar: six
Encoding: 15 54 95
Width: 511
VWidth: -36
Flags: W
HStem: 21 69<96 287.147>
VStem: 15 93<153.271 311.465> 337 127<174.221 314.537>
LayerCount: 2
Fore
SplineSet
294 387 m 1
 294 387 356 419 391 419 c 0
 394 419 398 419 401 418 c 0
 431 409 464 314 464 247 c 0
 464 180 384 21 155 21 c 0
 37 21 15 190 15 242 c 0
 15 294 110 479 148 513 c 0
 186 547 411 634 411 634 c 25
 396 591 l 25
 396 591 368 594 368 595 c 1
 367 595 194 448 194 435 c 0
 199 426 231 421 231 421 c 25
 231 386 l 25
 231 386 108 347 108 241 c 0
 108 135 178 90 261 90 c 0
 332 90 337 157 337 197 c 0
 337 204 337 210 337 215 c 0
 337 248 322 315 322 315 c 25
 322 315 270 325 270 351 c 0
 270 377 294 387 294 387 c 1
EndSplineSet
Validated: 1
EndChar
StartChar: seven
Encoding: 55 55 91
Width: 596
VWidth: 0
Flags: HW
LayerCount: 2
Fore
SplineSet
36 -138 m 25
 0 -43 l 25
 450 486 l 25
 26 487 l 25
 26 487 -14 518 0 580 c 0
 14 642 37 683 68 683 c 0
 99 683 98 675 98 675 c 25
 97 657 l 25
 490 640 l 26
 490 640 546 642 546 586 c 4
 546 530 499 478 499 478 c 26
 36 -138 l 25
EndSplineSet
EndChar
StartChar: eight
Encoding: 17 56 95
Width: 576
VWidth: -36
Flags: W
HStem: -116 118<179.902 325.724> 227 135<219.577 310.096> 596 86<196.71 340.573>
VStem: 14 108<56.7787 144.767> 26 113<431.933 510.143> 390 117<445.04 550.578> 391 101<55.6526 142.71>
LayerCount: 2
Fore
SplineSet
271 596 m 27xec
 203 596 139 548 139 484 c 3
 139 420 241 362 279 362 c 3
 317 362 390 430 390 490 c 3
 390 550 333 596 271 596 c 27xec
250 227 m 27
 184 227 122 188 122 116 c 0
 122 44 199 2 256 2 c 0
 313 2 391 58 391 94 c 0xf2
 391 120 326 227 250 227 c 27
332 316 m 1
 332 316 492 188 492 124 c 3
 492 28.9951171875 348 -116 252 -116 c 3
 156 -116 14 -38 14 94 c 3xf2
 14 160.038085938 174 266 174 266 c 25
 174 266 26 408 26 444 c 3
 26 480 107 682 293 682 c 3
 466 682 507 524 507 506 c 3xec
 507 424 405 385 332 316 c 1
EndSplineSet
Validated: 1
EndChar
StartChar: nine
Encoding: 18 57 91
Width: 499
VWidth: -36
Flags: W
HStem: 540 98<175 339.5>
VStem: 0 109<288.518 425.215> 313.1 147.9<305.385 489.518>
LayerCount: 2
Fore
SplineSet
31 -93 m 1
 259 159 l 1
 259 159 276 193 276 210 c 0
 276 227 227 232 227 232 c 1
 229 253 l 1
 229 253 308.451171875 257 313 398 c 0
 313.067095867 400.080080264 313.100438105 402.154060692 313.100438105 404.220678151 c 0
 313.100438105 476.629832078 272.168575501 540 208 540 c 0
 142 540 109 469 109 396 c 0
 109 323 210 246 210 246 c 1
 135 179 l 1
 135 179 116.481445312 178.043945312 95 178 c 0
 94.9362987084 177.999934583 l 0
 55.0137175962 177.999934583 0 255.035623748 0 322 c 0
 0 518 215 638 298 638 c 3
 381 638 461 511 461 373 c 3
 461 271 339 110 339 110 c 1
 88 -98 l 1
 31 -93 l 1
EndSplineSet
Validated: 524289
EndChar
StartChar: colon
Encoding: 19 58 54
Width: 304
VWidth: -36
Flags: W
VStem: 5 262
LayerCount: 2
Fore
SplineSet
97 627 m 0
 100.005059641 627.930137508 102.820706477 628.363706312 105.471114888 628.363706312 c 0
 139.863949075 628.363706312 146.432667328 555.356058648 178 547 c 0
 181.630638154 546.038948724 184.850778728 545.613824844 187.726173259 545.613824844 c 0
 209.790434738 545.613824844 211.555296454 570.646047152 222.729329939 570.646047152 c 0
 223.73595346 570.646047152 224.818936926 570.442898653 226 570 c 0
 234 567 233 531 240 522 c 0
 247 513 259 506 267 495 c 0
 275 484 260 484 259 478 c 0
 258 472 256 454 249 442 c 0
 242 430 219 421 219 421 c 17
 219 421 199.352416008 365.986764821 173.68884612 365.986764821 c 0
 173.459707103 365.986764821 173.230088496 365.991150442 173 366 c 0
 140.024390244 367.268292683 133.992266508 383.013682332 133.992266508 394.364939568 c 0
 133.992266508 400.91374182 136 406 136 406 c 1
 136 406 108.713529856 392.174855127 81.5714325707 392.174855127 c 0
 63.7147896196 392.174855127 45.9206349206 398.158730159 36 418 c 0
 27.5169930584 434.966013883 24.3303456552 450.435230505 24.3303456552 463.626275002 c 0
 24.3303456552 489.31013827 36.4111636096 506.357281111 45 509 c 0
 58 513 76 515 76 515 c 17
 76 515 70.75 539.75 70.75 566.125 c 0
 70.75 592.5 76 620.5 97 627 c 0
5 157 m 0
 4.98069879581 157.887855393 4.97103211808 158.750600041 4.97103211808 159.58953469 c 0
 4.97103211808 194.66049485 21.8644019199 188.121386274 58 235 c 0
 95 283 109.970703125 306 127 306 c 0
 154 306 179 248 191 235 c 0
 202.893905809 222.114935374 258.013226874 190.564350523 258.013226874 146.190507012 c 0
 258.013226874 145.79469027 258.008841183 145.397853217 258 145 c 0
 257 100 235 87 211 74 c 0
 187 61 161 46 161 46 c 25
 170 26 l 25
 170 26 164 23 150 10 c 0
 136 -3 120 -8 120 -8 c 1
 120 -8 103.047851562 -1.97265625 91 19 c 0
 64 66 75 64 60 83 c 0
 37.30859375 111.7421875 6 111 5 157 c 0
EndSplineSet
Validated: 1
EndChar
StartChar: semicolon
Encoding: 20 59 116
Width: 304
VWidth: -36
Flags: W
VStem: 4.97103 253.042<111.211 195.066 463.211 547.066>
LayerCount: 2
Fore
SplineSet
5 157 m 0
 5 157.887855393 4.97103211808 158.750600041 4.97103211808 159.58953469 c 0
 4.97103211808 194.66049485 21.8644019199 188.121386274 58 235 c 0
 95 283 109.970703125 306 127 306 c 0
 154 306 179 248 191 235 c 0
 202.893905809 222.114935374 258.013226874 190.564350523 258.013226874 146.190507012 c 0
 258.013226874 145.79469027 258.008841183 145.397853217 258 145 c 0
 257 100 235 87 211 74 c 0
 187 61 161 46 161 46 c 1
 155.533701509 37.4101023719 144.884064996 29.4300092171 133.455904981 23.6668829653 c 0
 127.160045286 19.8226866425 68.0341941345 -16.0000003168 51 -16 c 0
 33 -16 11 -14 11 -14 c 1
 3 4 l 1
 69.3486325232 65.0828680372 l 1
 67.7042206786 70.7763593356 66.1731316581 75.1806998998 60 83 c 0
 37.30859375 111.7421875 6 111 5 157 c 0
5 509 m 0
 5 509.887855393 4.97103211808 510.750600041 4.97103211808 511.58953469 c 0
 4.97103211808 546.66049485 21.8644019199 540.121386274 58 587 c 0
 95 635 109.970703125 658 127 658 c 0
 154 658 179 600 191 587 c 0
 202.893905809 574.114935374 258.013226874 542.564350523 258.013226874 498.190507012 c 0
 258.013226874 497.79469027 258.008841183 497.397853217 258 497 c 0
 257 452 235 439 211 426 c 0
 187 413 161 398 161 398 c 1
 170 378 l 1
 170 378 164 375 150 362 c 0
 136 349 120 344 120 344 c 1
 120 344 103.047851562 350.02734375 91 371 c 0
 64 418 75 416 60 435 c 0
 37.30859375 463.7421875 6 463 5 509 c 0
EndSplineSet
Validated: 524289
EndChar
StartChar: equal
Encoding: 134 61 134
Width: 425
VWidth: -36
Flags: W
HStem: 144 114<85.0657 319.128> 287 114<86.0657 320.128>
LayerCount: 2
Fore
SplineSet
-2 215 m 5
 97 274 l 5
 97 274 174 258 241 258 c 4
 308 258 375 285 375 285 c 29
 410 258 l 29
 410 258 398.296875 216.544921875 331 173 c 4
 297 151 270 144 247 144 c 4
 208 144 181 164 154 165 c 4
 152 165 150 165 148 165 c 4
 114 165 137 147 70 147 c 4
 0 147 -2 215 -2 215 c 5
-1 358 m 5
 98 417 l 5
 98 417 175 401 242 401 c 4
 309 401 376 428 376 428 c 29
 411 401 l 29
 411 401 399.296875 359.544921875 332 316 c 4
 298 294 271 287 248 287 c 4
 209 287 182 307 155 308 c 4
 153 308 151 308 149 308 c 4
 115 308 138 290 71 290 c 4
 1 290 -1 358 -1 358 c 5
EndSplineSet
EndChar
StartChar: question
Encoding: 21 63 119
Width: 560
VWidth: -36
Flags: W
HStem: 728 110<200.189 332.195>
VStem: 406 132<542.763 655.442>
LayerCount: 2
Fore
SplineSet
34 594 m 1
 10 622 l 25
 138 782 l 26
 138 782 205.546875 838 316 838 c 3
 426.453125 838 538 670.02734375 538 596 c 3
 538 521.97265625 398 458 366 418 c 2
 330 381 290 324 290 324 c 25
 250 344 l 25
 338 454 l 25
 338 454 406 547.655273438 406 600 c 3
 406 652.344726562 326.045898438 728 282 728 c 3
 237.954101562 728 122 682 34 594 c 1
150 157 m 0
 149.173828125 195.00390625 166 187 203 235 c 0
 240 283 254.970703125 306 272 306 c 0
 299 306 324 248 336 235 c 0
 348 222 404 190 403 145 c 0
 402 100 380 87 356 74 c 0
 332 61 306 46 306 46 c 25
 315 26 l 25
 315 26 309 23 295 10 c 0
 281 -3 265 -8 265 -8 c 1
 265 -8 248.047851562 -1.97265625 236 19 c 0
 209 66 220 64 205 83 c 0
 182.30859375 111.7421875 151 111 150 157 c 0
EndSplineSet
Validated: 33
EndChar
StartChar: at
Encoding: 137 64 137
Width: 881
VWidth: -36
Flags: HW
HStem: 4 21G<425.5 434.5> 715 81<322.297 477.912>
VStem: 134 39<340.464 471.553> 419 150<180 348> 429 144<298.944 372 420 545>
LayerCount: 2
Fore
SplineSet
266 546 m 0
 210 494 173 477 173 405 c 0
 173 402 173 398 173 394 c 0
 177 307 275 290 275 290 c 1
 359 360 l 1
 429 420 l 1
 429 513 l 2
 429 537 396 559 353 559 c 0
 346 559 338 560 330 560 c 0
 306 560 279 558 266 546 c 0
235 236 m 1
 252 215 l 1
 251 194 l 1
 251 194 360 132 373 130 c 2
 373 130 374 130 374 130 c 2
 384 130 407 155 419 169 c 1
 424 372 l 1
 281 251 l 1
 281 251 134 292 134 383 c 0
 134 395 135 406 136 416 c 1
 58 326 l 1
 18 354 0 384 0 471 c 0
 0 615 248 796 448 796 c 0
 647 796 853 642 854 493 c 0
 854 492 854 491 854 490 c 0
 854 407 781 236 781 236 c 1
 704 140 591 105 591 105 c 1
 591 105 508 38 464 13 c 0
 452 6 439 4 430 4 c 0
 421 4 416 6 416 6 c 1
 419 137 l 1
 405 125 382 105 354 80 c 0
 304 36 269 15 269 15 c 1
 163 87 l 1
 118 92 l 1
 142 169 l 1
 142 169 170 172 191 184 c 0
 213 196 235 236 235 236 c 1
137 420 m 1
 150 501 204 536 204 536 c 2
 412 693 l 1
 412 693 414 693 419 693 c 0
 435 693 475 690 518 657 c 0
 574 615 579 552 579 552 c 1
 573 348 l 1
 569 180 l 1
 586 181 l 1
 589 134 l 1
 695 149 747 261 747 391 c 0
 747 423 715 493 715 493 c 2
 715 493 715 493 715 493 c 0
 715 496 682 542 672 553 c 0
 655 573 616 609 616 609 c 1
 616 609 543 663 518 673 c 0
 483 690 446 715 414 715 c 0
 202 715 89 533 89 533 c 1
 81 525 77 512 77 499 c 0
 77 464 101 422 137 420 c 1
EndSplineSet
Validated: 8388609
EndChar
StartChar: A
Encoding: 22 65 66
Width: 832
VWidth: -36
Flags: W
HStem: -7.03285 103.751<318.438 433.6> 42.4126 112.112<17.2611 67.7981> 301.72 56.8743<501.77 550.624> 610 64<495 576.867> 686 120<152.699 239.453>
LayerCount: 2
Fore
SplineSet
222.813134612 155.363576987 m 1xb8
 261.283216857 139.447115165 359.627487277 100.182500979 401 97 c 0
 403.479145538 96.809296497 405.969656022 96.7186045157 408.468388816 96.7186045157 c 0
 457.100622093 96.7186045157 508.84745795 131.072633992 540.539899762 131.072633992 c 0
 541.373963776 131.072633992 542.194137961 131.048840124 543 131 c 0
 548.928830446 130.640676943 555.180443542 129.05477982 561.447483678 126.694643299 c 1
 556.44312017 187.730826138 551.042613576 262.036522913 550.732861848 301.747304682 c 0
 548.405849175 301.729661118 546.009598638 301.72 543.552 301.72 c 0
 522.707118308 301.72 497.448787972 302.415031283 472.591267393 304.829404146 c 1
 421 257 l 1
 361.308182745 337.813537207 l 1
 346.865139154 345.450682669 331.412923494 354.394649631 315.138560307 364.250608504 c 1
 221 188 l 1
 222.813134612 155.363576987 l 1xb8
26 553 m 1
 26 584.333333333 14.8888888889 622.777777778 14.8888888889 661.222222222 c 0
 14.8888888889 680.444444444 17.6666666667 699.666666667 26 718 c 0
 38 745 210 806 238 806 c 0
 273 806 495 674 495 674 c 1
 586.290148363 677.477719938 l 1
 592.243407066 715.49143225 606.404041948 763 640 763 c 0
 680.867924528 763 693.976504094 696.428978284 693.976504094 611.017101366 c 0
 693.976504094 458.174795301 652 245 652 245 c 1
 722 141 l 1
 768 151 l 1
 770 71 l 1
 552 -73 l 1
 552 -73 542.138787436 -56.5646457268 542.138787436 -35.4207845537 c 0
 542.138787436 -30.4872169467 542.675675676 -25.2972972973 544 -20 c 0
 551 8 570 29 570 29 c 2
 570 29 568.294513127 47.0626564284 565.89800284 74.3383944319 c 1
 549.543790856 82.29060497 531.86329908 89.4227771172 521.055046067 89.4227771172 c 0
 519.56572863 89.4227771172 518.206896552 89.2873563218 517 89 c 0
 496 84 441 -5 377 -7 c 0
 376.296703297 -7.02197802198 375.585919575 -7.0328462746 374.867898313 -7.0328462746 c 0xb8
 325.780766014 -7.0328462746 242.867553843 43.7620921486 205.840452045 68.1837848197 c 1
 185.573601924 70.5525046955 154.159783505 74 143 74 c 0
 126 74 113 47 113 47 c 1
 113 47 96.2459232727 42.4125742294 75.8319754156 42.4125742294 c 0
 50.5364313319 42.4125742294 19.6213592233 49.4563106796 8 81 c 0
 0.889825709732 100.299044502 -1.52026305682 113.86627739 -1.52026305682 123.642373882 c 0
 -1.52026305682 142.740116194 7.67715945622 147.370058097 9 152 c 0
 9.56833752096 153.989181323 13.689757957 154.524828727 19.5514354386 154.524828727 c 0x78
 26.3927873224 154.524828727 35.6047126776 153.795171273 44.3050645614 153.795171273 c 0
 54.3827899908 153.795171273 63.7741436347 154.774143635 68 159 c 0
 113.915700962 204.915700962 178.074790523 310.692520763 236.431127673 413.780054623 c 1
 204.90036461 433.922240579 171.772718793 454.998681103 138 475 c 1
 178 518 l 2
 178 518 214.898098625 490.437564883 262.076164415 459.520522865 c 1
 291.83892791 513.056914992 318.958045548 563.209282688 339.840993028 600.632515277 c 1
 289.265052872 637.025033248 213.964393609 686 175 686 c 0
 159 686 148 682 148 682 c 1
 158 624 l 1
 158 624 130 589 102 569 c 0
 82 554.714285714 51.7959183673 552.673469388 36.1690962099 552.673469388 c 0
 29.9183673469 552.673469388 26 553 26 553 c 1
395.787493821 385.244821337 m 1
 443 433 l 1
 501.769856107 363.905709712 l 1
 521.212118044 361.53085506 539.25089595 359.810909938 554.067828142 358.594344205 c 1
 559.23878231 416.758494086 569.174527337 504.947947859 578.039277428 591.580805917 c 1
 553.026519936 601.615921139 528.644584679 610 517 610 c 0
 500.281751382 610 460.96422939 594.047571736 430.660184882 580.535588435 c 1
 340.546577209 411.820684201 l 1
 359.99420935 401.138255547 378.909838754 391.823099895 395.787493821 385.244821337 c 1
EndSplineSet
Validated: 524289
EndChar
StartChar: B
Encoding: 23 66 75
Width: 1048
VWidth: -97
Flags: W
HStem: -35 144.845<625.29 776.67> 654 160.628<120.005 179.818> 720.421 138.579<654.731 737.144> 728 46.6997<387.141 500.045>
VStem: 176.691 152.309<317.278 588.024> 422.373 95.4307<453.402 639.959> 781 140<603 722> 874.437 140.563<213.44 345.936>
LayerCount: 2
Fore
SplineSet
523 761 m 1x9d
 524.07006238 749.942688741 l 1
 593.681126738 807.820310946 686.228503745 859 718 859 c 0
 764 859 921 754 921 690 c 0xae
 921 627 818 541 818 541 c 1
 818 541 1015 515 1015 330 c 0
 1015 103 776 -35 706 -35 c 0
 636 -35 547 31 395 31 c 0
 299 31 191 -37 191 -37 c 1
 147 -14 l 1
 176.941876794 24.3256022995 199.711625702 57.072882907 221.799377357 88.2504519227 c 1
 201.859790309 83.1619840841 177.236926384 76.3049350556 162 70 c 0
 133 59 160 31 92 31 c 0
 24 31 6 94 6 164 c 0
 6 234 70 241 70 241 c 1
 101 197 l 1
 130.176705797 190.2243669 l 1
 134.394143661 196.832836181 139.001908396 203.001908396 144 208 c 0
 170.134926 233.527137023 176.691257666 263.487163329 176.691257666 317.862516457 c 0
 176.691257666 352.951360952 173.961055116 398.207291394 172 459 c 0
 171.811845654 466.243942304 171.721046968 473.200242889 171.721046968 479.883785041 c 0
 171.721046968 549.382098423 181.538859034 589.387793192 193.802131284 616.634937903 c 1
 180.98646187 632.196013182 163.451378113 650.637155472 150 654 c 0
 127 660 120 645 120 645 c 1
 120 645 102.785642506 639.779252235 81.2895412689 639.779252235 c 0
 45.5595351594 639.779252235 -2 654.203045685 -2 731 c 0
 -2 786.139080912 71.5681945407 814.628458699 131.320037143 814.628458699 c 0xcd
 169.097310828 814.628458699 201.351877455 803.240612726 206 780 c 0
 214 743 213 711 252 700 c 0
 252.784157356 699.758720789 253.551739402 699.530378419 254.303095691 699.314550172 c 0
 297.427876491 731.334457546 377.582290247 764.931015306 409 772 c 0
 416.692307692 773.923076923 425.642011834 774.699704142 435.081019572 774.699704142 c 0
 474.724852071 774.699704142 523 761 523 761 c 1x9d
648 718 m 0
 556 698 526 627 519 573 c 0
 518.169491525 566.711864407 517.80350474 560.437805228 517.80350474 554.262996704 c 0
 517.80350474 508.39299052 538 468 538 468 c 1
 538 468 584 470 664 503 c 0
 743 536 781 576 781 630 c 0
 781 676.767977179 724.158138367 720.421331803 669.564770319 720.421331803 c 0
 662.289982396 720.421331803 655.055120175 719.646194707 648 718 c 0
336 133 m 1
 374 115 l 1
 374 115 414 136 467 159 c 0
 521 183 622 183 622 183 c 1
 622 126 l 1
 622 126 697.390581717 109.844875346 748.690188074 109.844875346 c 0
 751.540166205 109.844875346 754.315789474 109.894736842 757 110 c 0
 809 112 867 162 874 262 c 0
 874.292976356 265.698826501 874.437082383 269.362782473 874.437082383 272.989313858 c 0x8d
 874.437082383 366.471984232 778.682077908 435.086911886 668.7773947 435.086911886 c 0
 666.523977035 435.086911886 664.264611006 435.058066949 662 435 c 0
 545 433 463 252 336 133 c 1
281.919205067 697.651145867 m 2
 288.505697805 700.335238011 289.017306652 705.868302665 289.017306652 707.522658382 c 0
 289.017306652 707.826933478 289 708 289 708 c 1
 281.919205067 697.651145867 l 2
207.008034678 172.382020383 m 1
 272.812297571 157.100461702 l 1
 291.536232948 180.66565675 312.654669769 205.049029993 339 232 c 0
 425 321 428 405 428 438 c 0
 428 454.183908046 422.37283657 492.109129343 422.37283657 535.993734273 c 0
 422.37283657 578.880961818 427.747126437 627.459770115 449 667 c 0
 459.355889928 686.725504625 478.101652281 708.396486914 501.174877579 729.85432338 c 1
 480.906092931 729.651178507 452.383120554 729.164749746 432 728 c 0x9c
 397 726 343 669 318 625 c 0
 311.24 613.3 308.7388 602.0056 308.7388 589.675568 c 0
 308.7388 554.5824 329 511.1 329 426 c 0
 329 311 281 281 230 222 c 0
 221.029300453 212.132230498 213.064519036 191.802912449 207.008034678 172.382020383 c 1
EndSplineSet
Validated: 524289
EndChar
StartChar: glyph78
Encoding: 66 66 76
Width: 920
VWidth: 0
Flags: W
HStem: -18 124<535.91 671.562>
VStem: 149 134<278.199 517.736> 669 120<545.714 629>
LayerCount: 2
Fore
SplineSet
289 126 m 25
 397 227 467 382 567 384 c 0
 667 386 755 322 749 236 c 0
 743 150 693 108 649 106 c 0
 605 104 533 120 533 120 c 25
 533 168 l 25
 533 168 447 168 401 148 c 0
 355 128 321 110 321 110 c 25
 289 126 l 25
555 626 m 0
 606.89631092 637.479238339 669 596 669 550 c 0
 669 504 637 470 569 442 c 0
 501 414 461 412 461 412 c 25
 461 412 439 456 445 502 c 0
 451 548 477 608.74673913 555 626 c 0
127 0 m 25
 165 -20 l 25
 165 -20 257 38 339 38 c 0
 469 38 545 -18 605 -18 c 0
 665 -18 869 100 869 294 c 3
 869 452.039888918 701 474 701 474 c 25
 701 474 789 548 789 602 c 0
 789 656 655 746 615 746 c 0
 575 746 421 650 385 582 c 0
 349 514 367 414 367 386 c 0
 367 358 365 286 291 210 c 0
 217 134 191 82 127 0 c 25
61 218 m 25
 61 218 7 212 7 152 c 0
 7 92 22 38 80 38 c 0
 138 38 115 62 140 72 c 0
 165 82 219 94 219 94 c 25
 268 138 l 25
 88 180 l 25
 61 218 l 25
0 637 m 3
 0 532 104 563 104 563 c 25
 104 563 110 576 130 571 c 0
 150 566 182 520 182 520 c 25
 249 617 l 25
 249 617 250 600 217 610 c 0
 184 620 184.504882812 647.004882812 178 679 c 0
 167.630859375 730.000976562 0 714 0 637 c 3
449 662 m 25
 449 662 385 680 351 672 c 0
 317 664 215 620 197 588 c 0
 179 556 145 536 149 404 c 0
 153 272 161 226 125 190 c 0
 117.666390839 182.666390839 111.577731293 173.67284886 106.531133051 164.000000888 c 0
 86.8044535359 126.189744788 83 78 83 78 c 1
 168 120 l 1
 168 120 181.106445312 182.802734375 198 202 c 0
 242 252 283 278 283 376 c 0
 283 474 251 508 273 546 c 0
 295 584 341 632 371 634 c 0
 401 636 451 636 451 636 c 25
 449 662 l 25
EndSplineSet
Validated: 37
EndChar
StartChar: C
Encoding: 24 67 22
Width: 1077
VWidth: -36
Flags: W
HStem: -31.0121 128.012<717.031 808.675> 176 58<274.558 453> 671.444 146.556<669.138 920.274> 681.623 100.169<959.313 1044.72> 684.323 140.98<807.56 926.419> 783 35.5805<552.587 567>
VStem: 144.804 130.531<451.67 629.125> 153.36 143.558<309.507 585.247> 956 51.0726<200.214 242.668>
LayerCount: 2
Fore
SplineSet
451 784 m 0xc280
 451.097089712 783.75727572 451.14469076 783.503946727 451.14469076 783.240170321 c 0
 451.14469076 772.636619978 374.223282305 745.150465021 343 711 c 0
 311 676 280 649 276 624 c 0
 275.543264545 621.145403406 275.33425023 617.404225889 275.33425023 612.968512851 c 0xc280
 275.33425023 578.557116578 287.91347091 502.346116359 295 474 c 0
 296.304388805 468.782444781 296.917571609 460.906404947 296.917571609 451.217131779 c 0
 296.917571609 401.480729828 280.760736385 303.967201778 259 273 c 0
 233 236 59 106 49 97 c 0
 42.6025369169 91.2422832252 33.3401464607 82.2103637384 23.5693201165 82.2103637384 c 0
 18.0671761954 82.2103637384 12.4038053753 85.0744187829 7 93 c 0
 2.72210147094 99.274251176 1.12826392953 105.141826445 1.12826392953 110.509940832 c 0
 1.12826392953 123.964553366 11.1407729411 134.281545882 14 140 c 0
 18 148 85 186 115 226 c 0
 145.548659764 266.731546352 153.359745247 330.200666984 153.359745247 392.976245761 c 0xc180
 153.359745247 458.67761984 144.803586284 523.619297412 144.803586284 560.938918941 c 0
 144.803586284 568.501361768 145.154927088 574.929562531 146 580 c 0
 149 598 175 656 217 691 c 0
 297.973232199 758.148534019 417.951011292 797.01877154 427.683259221 797.01877154 c 0
 427.806667396 797.01877154 427.91234909 797.012521559 428 797 c 0
 446 795 446 798 451 784 c 0xc280
4 38 m 1
 4 38 11 61 26 75 c 0
 41 89 258 234 413 234 c 0
 493 234 692 97 828 97 c 0
 872 97 923 121 935 135 c 0
 938 138 940 144 941 151 c 0
 946 174 947 210 956 222 c 0
 968 238 975 245 992 245 c 0
 1005.76190476 245 1007.07256236 231.238095238 1007.07256236 213.263362488 c 0
 1007.07256236 209.034013605 1007 204.571428571 1007 200 c 0
 1007 176 951 91 943 81 c 0
 935 71 839 -28 707 -31 c 0
 706.594305372 -31.0081138926 706.183212252 -31.0121459995 705.766799167 -31.0121459995 c 0
 654.862211653 -31.0121459995 524.456369198 29.2434167771 458 59 c 0
 391 89 350 122 346 128 c 0
 342 134 332 176 313 176 c 0
 310 176 251 131 233 125 c 0
 228.911599466 123.637199822 223.89458677 123.254601371 218.089574446 123.254601371 c 0
 210.656587345 123.254601371 201.931647949 123.881884596 192.209948362 123.881884596 c 0
 176.096818877 123.881884596 157.245483599 122.158671152 137 113 c 0
 95 94 54 46 41 38 c 0
 36.6666666667 35.3333333333 31.1111111111 34.4444444444 25.6296296296 34.4444444444 c 0
 14.6666666667 34.4444444444 4 38 4 38 c 1
306 267 m 25
 336 308 362 328 384 372 c 0
 385.157459804 374.314919609 385.624129991 381.716562769 385.624129991 392.805697352 c 0
 385.624129991 438.986150868 377.53072757 549.118304939 377.53072757 622.143999606 c 0
 377.53072757 652.781978966 378.955350662 676.888376654 383 687 c 0
 399 727 508 796 549 809 c 0
 574.380952381 817.047619048 602.444444444 818.580498866 635.325558795 818.580498866 c 0xc480
 655.560090703 818.580498866 677.619047619 818 702 818 c 0xe080
 754.148148148 818 801.648834019 825.303155007 845.043032058 825.303155007 c 0xc880
 854.905349794 825.303155007 864.555555556 824.925925926 874 824 c 0
 925 819 926 793 959 784 c 0
 965.668254472 782.181385144 973.316467462 781.791876458 981.309329394 781.791876458 c 0
 987.298742006 781.791876458 993.481681274 782.010592677 999.590827376 782.010592677 c 0
 1025.67502409 782.010592677 1050.41394895 778.023329516 1053 736 c 0
 1053.09355097 734.479796703 1053.13951412 733.000617394 1053.13951412 731.561413068 c 0
 1053.13951412 689.606416498 1014.07951755 681.622608153 976.208271307 681.622608153 c 0xd080
 959.831706343 681.622608153 943.677429922 683.115528145 931 684 c 0
 927.829028728 684.221230554 924.772257692 684.322822766 921.821265363 684.322822766 c 0xc880
 888.595543594 684.322822766 868.779271221 671.444090814 850.352298423 671.444090814 c 0xe080
 848.222492568 671.444090814 846.111246284 671.616137039 844 672 c 0
 822 676 751 719 689 743 c 1
 642 761 567 783 567 783 c 1xc480
 566 783 554 772 544 751 c 0
 534 730 530 646 523 568 c 0
 516 490 511 411 502 395 c 0
 493 379 456 348 426 327 c 0
 396 306 309 257 309 257 c 25
 306 267 l 25
EndSplineSet
Validated: 524289
EndChar
StartChar: D
Encoding: 68 68 14
Width: 1012
VWidth: 0
Flags: W
HStem: 638 20G<353.617 383.905> 654 124<223.648 642.138>
VStem: 66 126<173.455 244.476 362.168 453.014> 264 128<459 577> 264 119<499.508 577>
LayerCount: 2
Fore
SplineSet
606 516 m 25x20
 623 526 l 1
 684 452 l 25
 668 442 l 1
 606 516 l 25x20
389 267 m 1
 835 564 l 25
 890 565.799011532 l 1
 418 250.095551895 l 25
 389 267 l 1
690 610 m 1
 690 610 716 617 723 609 c 0
 730 601 729 590 719 580 c 0
 709 570 415 378 415 378 c 25
 405 390 l 25
 690 610 l 1
264 577 m 1xb0
 383 658 l 25xa8
 392 459 l 1
 392 459 378 422 398 406 c 0
 410.711623258 395.830701394 443 401 443 401 c 1
 443 401 265.463414634 256 268.731707317 260 c 0
 272 264 268 453 264 577 c 1xb0
60 453.013513514 m 25
 228 554.040540541 l 25
 228 554.040540541 194 402 192 371 c 0
 190 340 191.926829268 166 191.926829268 166 c 25
 88 48 l 25
 88 48 77 36 59 48 c 0
 41 60 53 144 66 236 c 0
 79 328 62 368 60 453.013513514 c 25
351 654 m 24x60
 284 662 281 628 179 630 c 0
 77 632 0 676 0 692 c 3
 0 714 25 724.916810842 25 749 c 3
 25 769 -10 822 11 823 c 0
 87.2612719671 826.631489141 72 824 100 823 c 0
 123.754583869 822.151622005 134 774 134 774 c 1
 134 774 200 772 378 778 c 0
 556 784 974.780383902 844.993584978 977 461 c 0
 978 288 905 199 905 199 c 26
 639 11 l 1
 639 11 495 16 387 66 c 0
 279 116 185 111 159 153 c 1
 130 142 268.731707317 260 268.731707317 260 c 25
 268.731707317 260 268 255 423 209 c 0
 578 163 747 104 822 186 c 0
 897 268 875.661667195 495.512112141 817 555 c 0
 675 699 536 632 351 654 c 24x60
EndSplineSet
Validated: 37
EndChar
StartChar: E
Encoding: 69 69 17
Width: 1069
VWidth: 0
Flags: HW
LayerCount: 2
Fore
SplineSet
451 820 m 4
 454.840524215 810 375 782 343 747 c 4
 311 712 280 685 276 660 c 4
 272 635 287 542 295 510 c 4
 303 478 285 346 259 309 c 4
 233 272 59 142 49 133 c 4
 39 124 22 107 7 129 c 4
 -8 151 10 168 14 176 c 4
 18 184 85 222 115 262 c 4
 184 354 137.000930683 561.999844894 146 616 c 4
 149.0625 634.376953125 174.658273206 692.036047943 217 727 c 4
 299.079101562 794.77734375 421 833.900390625 428 833 c 4
 445.83203125 830.70703125 445.599313328 834.062368494 451 820 c 4
4 74 m 5
 4 74 28 66 41 74 c 4
 54 82 95 130 137 149 c 4
 179 168 215 155 233 161 c 4
 251 167 310 211.921218487 313 212 c 4
 332.01974058 212.499467977 342 170 346 164 c 4
 350 158 391 125 458 95 c 4
 525 65 657 4 707 5 c 4
 839 7.64 935 107 943 117 c 4
 951 127 1007 212 1007 236 c 4
 1007 260 1009 281 992 281 c 4
 975 281 968 274 956 258 c 4
 944 242 947 185 935 171 c 4
 923 157 872 133 828 133 c 4
 692 133 493 270 413 270 c 4
 258 270 41 125 26 111 c 4
 11 97 4 74 4 74 c 5
512 389 m 5
 512 389 577 461 616 494 c 4
 655 527 723 575 723 575 c 5
 723 575 788 552 816 540 c 4
 844 528 896 519 896 519 c 29
 896 519 910 525 925 544 c 4
 940 563 954 585.76171875 954 585.76171875 c 21
 954 585.76171875 964.170851193 584.937235923 975 583 c 4
 977.975926248 582.467633945 980.634138133 582.055922315 983.000000086 581.635058918 c 4
 988.445946707 580.666278981 992.342823625 579.649006732 995 577 c 4
 1003.15625 568.868164062 1016.04101562 555.491210938 1009 546 c 4
 1001.72753906 536.196289062 983 539 973 546 c 4
 963 553 954 553 954 553 c 29
 954 553 960 548 957 527 c 4
 954 506 936 476 897 448 c 4
 858 420 794 379 794 379 c 5
 597 466 l 5
 597 466 583 461 565 440 c 4
 547 419 533 409 512 389 c 5
306 303 m 29
 309 293 l 29
 309 293 396 342 426 363 c 4
 456 384 493 415 502 431 c 4
 511 447 516 526 523 604 c 4
 530 682 534 766 544 787 c 4
 554 808 566 818.984375 567 819 c 5
 567 818.90625 642 797 689 779 c 5
 751 755 822 712 844 708 c 4
 866 704 888 723 931 720 c 4
 974 717 1057 707 1053 772 c 4
 1049 837 992 811 959 820 c 4
 926 829 925 855 874 860 c 4
 823 865 766 854 702 854 c 4
 638 854 590 858 549 845 c 4
 508 832 399 763 383 723 c 4
 367 683 392 424 384 408 c 4
 362 364 336 344 306 303 c 29
EndSplineSet
Validated: 524329
EndChar
StartChar: F
Encoding: 27 70 55
Width: 720
VWidth: -36
Flags: W
HStem: 605 20G<175 240> 788 142<465.244 585.88>
LayerCount: 2
Fore
SplineSet
213 625 m 1
 267 574 317 469 265 421 c 0
 189 351 119 509 119 509 c 17
 122 521 137 537 213 625 c 1
339 903 m 25
 339 903 264 758 186 662 c 0
 108 566 6 440 6 440 c 1
 6 338 l 25
 153 338 l 1
 292 230 l 0
 444 57 l 1
 444 57 408 -34 381 -43 c 0
 354 -52 300 -61 300 -61 c 25
 234 -124 l 25
 234 -124 261 -178 336 -178 c 0
 411 -178 513 -59 522 -1 c 0
 531 57 555 86 540 137 c 0
 525 188 348 449 348 449 c 25
 348 449 364 488 456 496 c 0
 548 504 594 502 594 502 c 25
 618 620 l 25
 618 620 556 640 498 622 c 0
 440 604 344 501 344 501 c 1
 344 501 392 584 386 634 c 0
 380 684 344 745 344 745 c 9
 446 802 l 25
 446 802 432 772 518 788 c 0
 604 804 648 846 652 878 c 0
 656 910 574 936 528 930 c 0
 482 924 440 892 440 892 c 25
 339 903 l 25
EndSplineSet
Validated: 41
EndChar
StartChar: G
Encoding: 28 71 67
Width: 838
VWidth: -36
Flags: W
HStem: 28 130<235.659 408.974> 408 148<506.771 592.965>
LayerCount: 2
Fore
SplineSet
596 751 m 1
 629 792 588 864 670 864 c 0
 675 864 680 864 685 864 c 0
 743 859 762 824 762 786 c 0
 762 759 752 730 740 711 c 0
 712 666 490 641 411 632 c 0
 393 630 372 625 350 616 c 1
 344 598 339 572 339 537 c 0
 339 530 339 522 339 514 c 0
 340 503 340 493 340 483 c 0
 340 461 339 440 336 416 c 1
 348 421 363 429 380 442 c 0
 422 476 515 552 560 556 c 0
 562 556 565 556 568 556 c 0
 624 556 810 517 810 370 c 0
 810 369 810 368 810 367 c 0
 808 211 774 170 774 170 c 1
 566 -4 l 1
 490 -35 l 1
 409 45 l 1
 409 45 373 28 314 28 c 0
 274 28 208 40 170 47 c 1
 156 27 144 11 138 5 c 0
 126 -7 112 -10 99 -10 c 0
 78 -10 59 -1 59 -1 c 1
 59 39 l 1
 59 39 187 175 214 215 c 0
 237 248 234 458 244 561 c 1
 215 541 192 522 182 507 c 0
 175 496 151 329 151 329 c 1
 123 175 l 1
 23 24 l 1
 2 30 l 1
 2 30 1 47 1 65 c 0
 1 74 1 83 2 90 c 0
 4 111 131 524 148 560 c 0
 165 596 348 722 411 743 c 0
 440 752 481 755 517 755 c 0
 560 755 596 751 596 751 c 1
233 146 m 1
 289 150 392 158 428 158 c 0
 479 158 530 115 530 115 c 2
 530 117 676 151 687 208 c 0
 688 213 688 219 688 225 c 0
 688 288 636 402 524 406 c 0
 470 407 438 408 411 408 c 0
 387 408 367 408 340 408 c 0
 338 408 337 408 335 408 c 0
 333 386 329 362 324 336 c 0
 318 297 276 218 233 146 c 1
EndSplineSet
Validated: 1
EndChar
StartChar: H
Encoding: 29 72 80
Width: 960
VWidth: -36
Flags: W
HStem: 7.49261 96.8936<598.896 735.896> 293.915 59.2529<359.496 377.796> 580.607 138.633<506.115 645.437>
VStem: 3.12988 122.96<713.147 783.9> 221.994 122.456<568.749 745.74> 839.946 102.402<248.742 382.97>
LayerCount: 2
Fore
SplineSet
3.1298828125 783.900390625 m 1
 126.08984375 796.620117188 l 1
 191.809570312 31.2998046875 l 1
 191.809570312 31.2998046875 157.505487086 -9.05733882842 116.459557451 -9.05733882842 c 0
 115.433811 -9.05733882842 114.403854194 -9.03213536224 113.370117188 -8.98046875 c 0
 70.9697265625 -6.8603515625 20.08984375 18.580078125 20.08984375 18.580078125 c 1
 3.1298828125 783.900390625 l 1
221.490234375 726.66015625 m 2
 221.836077608 728.216610125 221.993825745 729.705199578 221.993825745 731.135121242 c 0
 221.993825745 746.001023904 204.943906956 754.525926003 204.943906956 767.043769498 c 0
 204.943906956 775.462268091 212.655295165 785.686706148 238.450195312 800.860351562 c 0
 255.365978006 810.810704119 325.527442811 825.432349565 364.750453943 825.432349565 c 0
 367.309740894 825.432349565 369.73730694 825.370097702 372.009765625 825.240234375 c 0
 400.864932991 823.591302566 404.071390879 800.782584178 404.071390879 790.725783758 c 0
 404.071390879 787.852034045 403.809570312 786.01953125 403.809570312 786.01953125 c 1
 344.450195312 745.740234375 l 1
 339.844514933 568.748568548 l 1
 485.4296875 653.51953125 l 1
 504.509765625 695.919921875 l 1
 504.509765625 695.919921875 540.549804688 719.240234375 568.110351562 719.240234375 c 0
 595.669921875 719.240234375 820.389648438 676.83984375 877.629882812 592.040039062 c 0
 926.291341317 519.949284608 942.348388361 447.123054094 942.348388361 382.397724061 c 0
 942.348388361 256.782835423 881.870117188 161.6796875 881.870117188 161.6796875 c 1
 881.870117188 161.6796875 853.324339274 138.843328155 833.708429467 138.843328155 c 0
 829.417484494 138.843328155 825.553840632 139.936065654 822.509765625 142.599609375 c 0
 815.725703124 148.536005864 813.690499999 159.899558602 813.690499999 171.398647274 c 0
 813.690499999 188.64694922 818.26953125 206.200195312 818.26953125 206.200195312 c 1
 818.26953125 206.200195312 839.946124701 244.453024561 839.946124701 302.078983685 c 0
 839.946124804 326.508166978 836.050540625 354.418970092 824.956487897 384.373033665 c 0
 819.803748726 386.845209376 814.076457555 388.554638061 808.090175053 388.554638061 c 0
 807.598588813 388.554638061 807.105256067 388.543110538 806.610351562 388.51953125 c 0
 784.349609375 387.459960938 717.5703125 354.599609375 685.76953125 331.280273438 c 0
 653.969726562 307.959960938 626.41015625 258.139648438 589.309570312 226.33984375 c 0
 552.209960938 194.540039062 496.030273438 200.900390625 472.709960938 171.219726562 c 0
 449.389648438 141.540039062 408.049804688 105.5 401.690429688 81.1201171875 c 0
 397.473807252 64.9573689766 391.393995367 46.9310021079 387.774653968 36.6156683246 c 1
 395.330078125 18.580078125 l 1
 395.330078125 18.580078125 374.129882812 18.580078125 348.690429688 16.4599609375 c 0
 347.748159401 16.3814353994 346.736090274 16.3436268566 345.660685406 16.3436268566 c 0
 317.701149552 16.3436268566 246.9296875 41.900390625 246.9296875 41.900390625 c 1
 221.490234375 726.66015625 l 2
466.349609375 -3.6796875 m 0
 465.33984375 2.1318359375 464.73046875 -5.7998046875 465.19921875 15.400390625 c 0
 465.715820312 38.7197265625 470.58984375 58.8603515625 470.58984375 58.8603515625 c 1
 598.849609375 118.219726562 l 1
 598.849609375 118.219726562 662.090123164 104.386177101 689.349997456 104.386177101 c 0
 690.324076934 104.386177101 691.252214405 104.403840518 692.129882812 104.440429688 c 0
 717.5703125 105.5 736.650390625 110.799804688 747.25 113.98046875 c 0
 750.484299736 114.950699074 754.606931696 115.526135282 758.955310343 115.526135282 c 0
 768.85765638 115.526135282 779.930695023 112.541998859 784.349609375 104.440429688 c 0
 784.956833252 103.32723253 785.245225746 101.962833272 785.245225746 100.38228337 c 0
 785.245225746 85.4074021964 759.357476154 51.0296106755 733.469726562 27.0595703125 c 0
 715.238874558 10.1792209086 700.019139366 7.49260807219 675.755162531 7.49260807219 c 0
 664.425152852 7.49260807219 651.123134804 8.07839770564 634.621711486 8.07839770564 c 0
 630.984456083 8.07839770564 627.191756652 8.04993694741 623.23046875 7.98046875 c 0
 562.809570312 6.919921875 487.549804688 -31.240234375 487.549804688 -31.240234375 c 1
 487.549804688 -31.240234375 468.469726562 -17.4599609375 466.349609375 -3.6796875 c 0
338.803610917 528.747673871 m 1
 334.234674256 353.168032175 l 1
 396.389648438 342.940429688 l 1
 396.389648438 342.940429688 450.450195312 402.299804688 480.129882812 426.6796875 c 0
 509.809570312 451.059570312 567.049804688 468.01953125 582.950195312 483.919921875 c 0
 598.849609375 499.8203125 635.950195312 503 642.309570312 529.5 c 0
 645.101258935 541.13139298 646.259175108 552.558658472 646.679689086 561.720186177 c 1
 607.274799298 576.162889946 568.991837226 580.607062425 536.853411753 580.607062425 c 0
 497.607195191 580.607062425 467.523933243 573.979752121 455.75 570.83984375 c 0
 434.851912123 565.26731981 376.41475294 543.213723927 338.803610917 528.747673871 c 1
751.650900733 494.859649841 m 0
 748.123543908 494.985025662 744.404356204 495.065843966 740.6774273 495.065843966 c 0
 730.295136163 495.065843966 720.088521832 491.388709464 713.330078125 492.400390625 c 0
 696.370119058 494.939151296 597.79004047 432.581169989 554.330078125 390.639648438 c 0
 513.703917191 351.432918556 448.330078125 301.599609375 433.490234375 296.299804688 c 0
 427.308720132 294.092179142 414.873634488 293.90773797 401.854512116 293.90773797 c 0
 399.242660519 293.90773797 396.607303192 293.915161175 393.994217184 293.915161175 c 0
 378.36304743 293.915161175 363.528810052 293.649537367 359.290039062 289.940429688 c 0
 354.638605932 285.869905544 342.012965682 266.809177051 331.561172066 250.428031299 c 1
 330.490223889 209.272569743 l 1
 387.91015625 183.940429688 l 1
 387.91015625 183.940429688 459.990234375 256.01953125 516.169921875 301.599609375 c 0
 572.349609375 347.1796875 635.950195312 372.620117188 664.5703125 386.400390625 c 0
 693.190429688 400.1796875 755.73046875 416.080078125 762.08984375 434.099609375 c 0
 764.956452823 442.221448347 772.344694653 453.572939987 779.596476283 463.593085232 c 0
 777.041673813 466.82767663 774.387240516 470.070563822 771.629882812 473.3203125 c 0
 765.101278503 481.014752507 758.431628644 488.18348489 751.650900733 494.859649841 c 0
EndSplineSet
Validated: 524321
EndChar
StartChar: I
Encoding: 30 73 51
Width: 818
VWidth: -36
Flags: W
HStem: -179 21G<301 301> -141.97 134.985<141.833 267.616> 723.369 101.631<358.38 466.5> 883 20G<247.024 278>
VStem: 245.313 162.687<468.85 534.989> 544 113<441.612 747.742>
LayerCount: 2
Fore
SplineSet
566 429 m 25
 527 422 515 428 467 412 c 0
 419 396 411 372 411 372 c 25
 432 272 l 25
 432 272 465 262 498 224 c 0
 523.325581395 194.837209302 526.270416441 168.619253651 526.270416441 158.002075289 c 0
 526.270416441 154.784748513 526 153 526 153 c 9
 529 107 l 25
 529 107 551 125 565 139 c 0
 579 153 598 195 598 195 c 25
 598 195 571 304 569 330 c 0
 567 356 566 429 566 429 c 25
77 591 m 27
 50.07421875 591 16 622 16 622 c 25
 24 739 l 25
 278 903 l 25
 278 903 363 825 432 825 c 0
 501 825 682 890 682 890 c 25
 710 878 l 25
 713 829 l 25
 713 829 657 773 657 588 c 0
 657 403.930748742 722.005003017 345.583918921 722.005003017 267.19074504 c 0
 722.005003017 266.79434886 722.003340948 266.397440129 722 266 c 0
 719.680664062 -10 301 -179 301 -179 c 25
 301 -179 261 -157 219 -147 c 0
 202.846153846 -143.153846154 184.325443787 -141.970414201 167.648156577 -141.970414201 c 0
 140.964497041 -141.970414201 119 -145 119 -145 c 9
 119 -145 85 -131 83 -103 c 0
 82.7142857143 -99 82.5918367347 -95.1836734694 82.5918367347 -91.5801749271 c 0
 82.5918367347 -69.9591836735 87 -56 87 -56 c 1
 87 -56 170.3251642 -6.98519752965 232.151756623 -6.98519752965 c 0
 232.770022547 -6.98519752965 233.386138614 -6.9900990099 234 -7 c 0
 296 -8 431 -70 431 -70 c 1
 435 44 l 25
 324 186 l 1
 324 186 270 193 235 193 c 27
 205 193 161 174 161 174 c 1
 131 213 l 25
 221 246 l 25
 331 324 l 1
 335 364 l 25
 335 364 270 369 254 429 c 0
 247.263157895 454.263157895 245.313019391 477.04432133 245.313019391 494.954803907 c 0
 245.313019391 519.581717452 249 535 249 535 c 9
 420 659 l 25
 391 725 l 17
 391 725 380.279429251 723.368608799 365.813891508 723.368608799 c 0
 350.31510107 723.368608799 330.517241379 725.24137931 315 733 c 0
 285 748 202 791 202 791 c 25
 149 699 l 25
 160 660 l 25
 160 660 119.450195312 591 77 591 c 27
559 750 m 1
 520.784773306 712.513472077 407.999598633 645.850280244 407.999598633 528.383877629 c 0
 407.999598633 528.255978657 407.999732341 528.128019456 408 528 c 0
 408.130431293 465.493150685 448.0802141 450.936761118 485.265416441 450.936761118 c 0
 517.68328515 450.936761118 548 462 548 462 c 1
 548 462 544 556 544 606 c 0
 544 656 559 750 559 750 c 1
EndSplineSet
Validated: 1
EndChar
StartChar: J
Encoding: 74 74 71
Width: 818
VWidth: 0
Flags: W
HStem: -143 21G<301 301> 919 20G<247.024 278>
VStem: 544 113<477.293 783.742>
LayerCount: 2
Fore
SplineSet
566 465 m 25
 527 458 515 464 467 448 c 0
 419 432 411 408 411 408 c 25
 432 308 l 25
 432 308 465 298 498 260 c 0
 531 222 526 189 526 189 c 25
 529 143 l 25
 529 143 551 161 565 175 c 0
 579 189 598 231 598 231 c 25
 598 231 571 340 569 366 c 0
 567 392 566 465 566 465 c 25
77 627 m 27
 50.0741759643 627 16 658 16 658 c 25
 24 775 l 25
 278 939 l 25
 278 939 363 861 432 861 c 0
 501 861 682 926 682 926 c 25
 710 914 l 25
 713 865 l 25
 713 865 657 809 657 624 c 0
 657 439 722.663842108 380.997210797 722 302 c 0
 719.680672269 26 301 -143 301 -143 c 25
 301 -143 261 -121 219 -111 c 0
 177 -101 119 -109 119 -109 c 25
 119 -109 85 -95 83 -67 c 0
 81 -39 87 -20 87 -20 c 1
 87 -20 172 30 234 29 c 0
 296 28 431 -34 431 -34 c 1
 435 80 l 25
 324 222 l 1
 324 222 270 229 235 229 c 27
 205 229 161 210 161 210 c 1
 131 249 l 25
 221 282 l 25
 331 360 l 1
 335 400 l 25
 335 400 270 405 254 465 c 0
 238 525 249 571 249 571 c 25
 420 695 l 25
 391 761 l 25
 391 761 345 754 315 769 c 0
 285 784 202 827 202 827 c 25
 149 735 l 25
 160 696 l 25
 160 696 119.449970554 627 77 627 c 27
559 786 m 1
 520.743164062 748.47265625 407.75390625 681.705078125 408 564 c 0
 408.244140625 447 548 498 548 498 c 1
 548 498 544 592 544 642 c 0
 544 692 559 786 559 786 c 1
EndSplineSet
Validated: 33
EndChar
StartChar: K
Encoding: 32 75 98
Width: 1017
VWidth: -36
Flags: W
HStem: -53.4473 83.7402<283.13 439.04> 115.093 73.1406<156.99 331.36> 117.213 21.2002<937.681 963.12>
VStem: 578.34 54.0605<138.059 236.117>
LayerCount: 2
Fore
SplineSet
466.546875 526.130859375 m 1048,0,-1
454.3203125 497.752929688 m 1,1,-1
 451.140625 472.3125 l 1,2,-1
 751.120117188 720.352539062 l 1,3,-1
 751.120117188 720.352539062 786.83203125 648.587890625 803.060546875 631.3125 c 0,6,-1
 835.919921875 596.333007812 893.036132812 571.795898438 893.036132812 571.795898438 c 1,9,-1
 1002.23144531 709.448242188 l 1,10,-1
 1002.23144531 709.448242188 926.020507812 730.953125 893.16015625 757.453125 c 0,13,-1
 870.71484375 775.553710938 834.860351562 828.47265625 834.860351562 828.47265625 c 1,16,-1
 476.580078125 517.098632812 l 0,17,-1
 454.3203125 497.752929688 l 1,1,-1
509.440429688 500.932617188 m 1,18,-1
 509.440429688 500.932617188 632.400390625 510.47265625 690.700195312 353.592773438 c 0,21,-1
 711.271484375 298.236328125 708.720703125 160.672851562 732.040039062 74.8125 c 0,24,-1
 755.360351562 -11.046875 838.040039062 -35.4267578125 838.040039062 -35.4267578125 c 25,27,-1
 838.040039062 -35.4267578125 944.040039062 40.892578125 966.299804688 68.453125 c 0,30,-1
 988.560546875 96.0126953125 973.720703125 138.413085938 963.120117188 138.413085938 c 0,33,-1
 952.520507812 138.413085938 956.874023438 116.821289062 937.680664062 117.212890625 c 0,36,-1
 885.740234375 118.2734375 858.16015625 315.591796875 843.33984375 373.733398438 c 0,39,-1
 815.780273438 481.852539062 704.48046875 611.172851562 704.48046875 611.172851562 c 2,42,-1
 703.896484375 611.172851562 580.459960938 595.2734375 580.459960938 595.2734375 c 1,45,-1
 513.680664062 542.2734375 l 25,46,-1
 509.440429688 500.932617188 l 1,18,-1
246.560546875 725.653320312 m 25,47,-1
 173.419921875 616.47265625 l 25,48,-1
 173.419921875 616.47265625 154.33984375 667.352539062 141.620117188 670.533203125 c 0,51,-1
 128.900390625 673.712890625 113 654.6328125 74.83984375 664.172851562 c 0,54,-1
 36.6806640625 673.712890625 12.2998046875 730.953125 31.3798828125 771.233398438 c 0,57,-1
 50.4599609375 811.512695312 136.3203125 800.913085938 156.459960938 795.61328125 c 0,60,-1
 176.600585938 790.3125 207.33984375 726.712890625 215.8203125 722.47265625 c 0,63,-1
 224.299804688 718.233398438 246.560546875 725.653320312 246.560546875 725.653320312 c 25,47,-1
477.640625 815.752929688 m 0,66,-1
 481.30078125 806.221679688 413.240234375 781.262695312 374.8203125 749.353515625 c 0,69,-1
 370.513671875 745.776367188 366.579101562 742.11328125 363.16015625 738.373046875 c 0,72,-1
 329.240234375 701.2734375 296.379882812 672.653320312 292.140625 646.153320312 c 0,75,-1
 287.900390625 619.653320312 303.799804688 521.073242188 312.280273438 487.153320312 c 0,78,-1
 320.759765625 453.233398438 301.680664062 313.3125 274.120117188 274.092773438 c 0,81,-1
 246.560546875 234.873046875 62.1201171875 97.0732421875 51.5205078125 87.533203125 c 0,84,-1
 40.919921875 77.9931640625 22.900390625 59.97265625 7 83.29296875 c 0,87,-1
 -8.8994140625 106.61328125 10.1806640625 124.6328125 14.419921875 133.11328125 c 0,90,-1
 18.66015625 141.592773438 89.6806640625 181.873046875 121.48046875 224.2734375 c 0,93,-1
 194.620117188 321.79296875 144.80078125 542.2734375 154.33984375 599.512695312 c 0,96,-1
 157.586914062 618.9921875 184.717773438 680.111328125 229.600585938 717.172851562 c 0,99,-1
 316.604492188 789.016601562 445.83984375 830.487304688 453.259765625 829.533203125 c 0,102,-1
 472.162109375 827.102539062 471.916015625 830.659179688 477.640625 815.752929688 c 0,66,-1
3.8203125 24.9931640625 m 1,105,-1
 3.8203125 24.9931640625 29.259765625 16.5126953125 43.0400390625 24.9931640625 c 0,108,-1
 67.3466796875 39.951171875 141.620117188 115.092773438 172.360351562 115.092773438 c 3,111,-1
 274.120117188 115.092773438 232.780273438 -53.447265625 333.48046875 -53.447265625 c 3,114,-1
 473.427734375 -53.447265625 556.080078125 54.6728515625 564.560546875 65.2734375 c 0,117,-1
 573.040039062 75.873046875 632.400390625 165.97265625 632.400390625 191.413085938 c 0,120,-1
 632.400390625 216.852539062 634.520507812 239.11328125 616.5 239.11328125 c 0,123,-1
 598.48046875 239.11328125 591.060546875 231.693359375 578.33984375 214.733398438 c 0,126,-1
 565.620117188 197.7734375 568.799804688 137.352539062 556.080078125 122.512695312 c 0,129,-1
 543.360351562 107.672851562 457.5 30.29296875 410.860351562 30.29296875 c 0,132,-1
 338.780273438 30.29296875 373.759765625 188.233398438 288.959960938 188.233398438 c 0,135,-1
 174.48046875 188.233398438 43.0400390625 79.052734375 27.140625 64.212890625 c 0,138,-1
 11.240234375 49.373046875 3.8203125 24.9931640625 3.8203125 24.9931640625 c 1,105,-1
581.520507812 842.252929688 m 1,141,-1
 581.520507812 842.252929688 401.3203125 751.092773438 384.360351562 708.693359375 c 0,144,-1
 367.400390625 666.29296875 415.100585938 395.993164062 406.620117188 379.033203125 c 0,147,-1
 388.600585938 342.993164062 299.560546875 269.852539062 267.759765625 226.392578125 c 25,150,-1
 270.940429688 215.79296875 l 25,151,-1
 270.940429688 215.79296875 419.33984375 309.073242188 451.140625 331.333007812 c 0,154,-1
 482.940429688 353.592773438 522.16015625 386.453125 531.700195312 403.413085938 c 0,157,-1
 545.440429688 427.840820312 526.134765625 722.552734375 541.240234375 754.2734375 c 0,160,-1
 551.83984375 776.533203125 599.540039062 814.676757812 600.600585938 814.693359375 c 1,163,-1
 600.600585938 814.59375 632.400390625 848.61328125 629.220703125 856.033203125 c 0,166,-1
 626.040039062 863.453125 581.520507812 842.252929688 581.520507812 842.252929688 c 1,141,-1
EndSplineSet
Validated: 37
EndChar
StartChar: L
Encoding: 33 76 23
Width: 1098
VWidth: -36
Flags: W
HStem: -33.6926 135.693<770.556 859.955> 185.745 61.4749<315.869 357.565> 685.362 130.04<42.0808 98.4235 99.7084 161.558> 829.16 42.9152<586.516 603.78>
VStem: 156.252 138.363<492.244 660.62> 165.321 152.171<330.178 613.697> 1016.12 54.1365<211.407 255.907>
LayerCount: 2
Fore
SplineSet
584.700195312 856.719726562 m 1xf2
 584.700195312 856.719726562 616.946310693 872.075322746 628.511459111 872.075322746 c 0
 630.535320129 872.075322746 631.92585154 871.60507618 632.399414062 870.5 c 0
 632.550905264 870.14659805 632.623043193 869.73308079 632.623043193 869.265976352 c 0
 632.623043193 859.925895423 603.780273438 829.16015625 603.780273438 829.16015625 c 2
 602.719726562 829.143554688 590 817.5 579.399414062 795.240234375 c 0
 568.799804688 772.98046875 564.559570312 683.940429688 557.139648438 601.259765625 c 0
 549.719726562 518.580078125 544.419921875 434.83984375 534.879882812 417.879882812 c 0
 525.33984375 400.919921875 486.120117188 368.060546875 454.3203125 345.799804688 c 0
 422.51953125 323.540039062 330.299804688 271.600585938 330.299804688 271.600585938 c 1
 327.120117188 282.200195312 l 1
 358.919921875 325.66015625 386.479492188 346.860351562 409.799804688 393.5 c 0
 411.026841286 395.953931897 411.521557806 403.800331919 411.521557806 415.555792218 c 0
 411.521557806 464.508093121 402.942820793 581.246284954 402.942820793 658.652730529 c 0
 402.942820793 691.129078463 404.452913028 716.681963825 408.740234375 727.400390625 c 0
 425.700195312 769.799804688 584.700195312 856.719726562 584.700195312 856.719726562 c 1xf2
7 39.4599609375 m 1
 7 39.4599609375 14.419921875 63.83984375 30.3203125 78.6796875 c 0
 46.2197265625 93.5205078125 276.240234375 247.219726562 440.540039062 247.219726562 c 0
 525.33984375 247.219726562 736.280273438 102 880.439453125 102 c 0
 927.080078125 102 981.139648438 127.440429688 993.859375 142.280273438 c 0
 1006.58007812 157.120117188 1003.39941406 217.540039062 1016.12011719 234.5 c 0
 1028.83984375 251.459960938 1036.25976562 258.879882812 1054.28027344 258.879882812 c 0
 1068.86728715 258.879882812 1070.25661798 244.292869104 1070.25661798 225.239916278 c 0
 1070.25661798 220.756504113 1070.1796875 216.025802522 1070.1796875 211.1796875 c 0
 1070.1796875 185.740234375 1010.8203125 95.640625 1002.33984375 85.0400390625 c 0
 993.859375 74.4404296875 892.099609375 -30.8818359375 752.1796875 -33.6796875 c 0
 751.749432594 -33.6882970377 751.313449473 -33.6925754363 750.871821502 -33.6925754363 c 0
 696.912483551 -33.6925754363 558.683227856 30.1780732332 488.240234375 61.7197265625 c 0
 417.219726562 93.5205078125 373.759765625 128.5 369.51953125 134.860351562 c 0
 365.305021632 141.182601421 354.823509244 185.744860934 334.892136734 185.744860934 c 0
 334.775096909 185.744860934 334.657731233 185.743324336 334.540039062 185.740234375 c 0
 331.359375 185.65625 268.8203125 138.040039062 249.740234375 131.6796875 c 0
 245.407042475 130.235438055 240.089758586 129.829929991 233.937374072 129.829929991 c 0
 226.057682759 129.829929991 216.80815008 130.495097402 206.501786098 130.495097402 c 0
 189.421926522 130.495097402 169.439626564 128.668307499 147.979492188 118.959960938 c 0
 103.459960938 98.8203125 60 47.9404296875 46.2197265625 39.4599609375 c 0
 41.6263020833 36.6334635417 35.7374131944 35.6912977431 29.9270833333 35.6912977431 c 0
 18.3064236111 35.6912977431 7 39.4599609375 7 39.4599609375 c 1
480.8203125 830.219726562 m 0
 480.915449056 829.971978918 480.962127253 829.713807631 480.962127253 829.445361579 c 0
 480.962127253 818.228639746 399.466945772 789.073267282 366.33984375 752.83984375 c 0
 332.419921875 715.740234375 299.559570312 687.120117188 295.3203125 660.620117188 c 0
 294.836109184 657.59401374 294.614525797 653.627989966 294.614525797 648.925660978 c 0xfa
 294.614525797 612.449054638 307.947898819 531.66663557 315.459960938 501.620117188 c 0
 316.84246687 496.089775021 317.492373062 487.741697615 317.492373062 477.471728918 c 0
 317.492373062 424.751646491 300.366031697 321.385845161 277.299804688 288.560546875 c 0
 249.740234375 249.33984375 65.2998046875 111.540039062 54.7001953125 102 c 0
 47.9184958192 95.8967828328 38.1003926342 86.3231045289 27.7432807845 86.3231045289 c 0
 21.9110208793 86.3231045289 15.9078412619 89.3589190656 10.1796875 97.759765625 c 0
 5.64526384682 104.410587862 3.95584709465 110.63034604 3.95584709465 116.320658806 c 0
 3.95584709465 130.58274699 14.5686660449 141.518889518 17.599609375 147.580078125 c 0
 21.83984375 156.060546875 92.859375 196.33984375 124.66015625 238.740234375 c 0
 157.041610024 281.915506074 165.32138937 349.192835041 165.32138937 415.735067276 c 0xf6
 165.32138937 485.379695452 156.251556594 554.219084241 156.251556594 593.777651893 c 0xfa
 156.251556594 601.792999682 156.623916495 608.606230086 157.51953125 613.98046875 c 0
 158.672363709 620.898503966 162.837848496 633.068326661 169.741187724 647.547254791 c 1
 163.028578448 662.698832387 152.690383527 683.027506741 144.799804688 685 c 0
 143.801800524 685.249481885 142.784215717 685.361935338 141.737834708 685.361935338 c 0
 132.161496507 685.361935338 120.173285169 675.94321183 98.7092032607 675.94321183 c 0
 92.6270805482 675.94321183 85.7840976787 676.699483393 78.01953125 678.640625 c 0
 48.9804656936 685.899648246 27.9213988438 720.781874441 27.9213988438 754.792820202 c 0
 27.9213988438 765.475564806 29.9990249657 776.072351422 34.5595703125 785.700195312 c 0
 45.7089466595 809.237831006 79.6611685918 815.401647758 109.978128912 815.401647758 c 0
 131.542991701 815.401647758 151.268532522 812.282960638 159.639648438 810.080078125 c 0
 179.780273438 804.780273438 210.51953125 741.1796875 219 736.940429688 c 0
 223.776652769 734.551828245 232.926474596 735.863314569 240.006730552 737.464202991 c 0
 325.753435865 804.929602152 446.391018325 844.016110813 456.142619894 844.016110308 c 0
 456.256860797 844.016110308 456.355883335 844.010745944 456.439453125 844 c 0
 475.341796875 841.569335938 475.095703125 845.125976562 480.8203125 830.219726562 c 0
EndSplineSet
Validated: 524289
EndChar
StartChar: M
Encoding: 34 77 63
Width: 1247
VWidth: -36
Flags: W
HStem: 101.59 109<161.5 366> 606.59 21G<665 667.745>
VStem: 599 128<264.119 375.93> 1045 157<379.08 567.68>
LayerCount: 2
Fore
SplineSet
1823 -708.41015625 m 1049,0,-1
679 708.58984375 m 1,1,-1
 679 708.58984375 813 856.4296875 942 861.58984375 c 0,4,-1
 992 863.58984375 1202.96875 758.587890625 1202 512.58984375 c 0,7,-1
 1200.4921875 129.58984375 745 -35.41015625 745 -35.41015625 c 1,10,-1
 745 -35.41015625 751 74.58984375 751 72.58984375 c 0,13,-1
 751 70.58984375 952.612304688 127.88671875 1027 224.58984375 c 0,16,-1
 1053.15429688 258.58984375 1045 296.258789062 1045 476.58984375 c 3,19,-1
 1045 616.818359375 917 718.58984375 837 716.58984375 c 0,22,-1
 757 714.58984375 665 606.58984375 665 606.58984375 c 25,25,-1
 679 708.58984375 l 1,1,-1
709 734.58984375 m 25,26,-1
 727 138.58984375 l 25,27,-1
 727 138.58984375 741 84.58984375 759 84.58984375 c 0,30,-1
 777 84.58984375 801 84.58984375 801 84.58984375 c 25,33,-1
 711 -1.41015625 l 25,34,-1
 575 -11.41015625 l 1,35,-1
 575 -11.41015625 599 187.58984375 599 314.58984375 c 27,38,-1
 599 427.58984375 587 604.58984375 587 604.58984375 c 2,41,-1
 587 604.58984375 588.5 643.58984375 575 658.58984375 c 0,44,-1
 539 698.58984375 541 756.58984375 541 756.58984375 c 25,47,-1
 709 734.58984375 l 25,26,-1
461 130.58984375 m 25,48,-1
 461 130.58984375 511 158.58984375 538 182.58984375 c 0,51,-1
 565 206.58984375 621 271.58984375 621 271.58984375 c 25,54,-1
 628 95.58984375 l 25,55,-1
 628 95.58984375 580 107.58984375 548 105.58984375 c 0,58,-1
 516 103.58984375 469 84.58984375 469 84.58984375 c 25,61,-1
 461 130.58984375 l 25,48,-1
-0 97.58984375 m 25,62,-1
 135 141.58984375 306 210.58984375 346 210.58984375 c 0,65,-1
 386 210.58984375 527 109.58984375 527 109.58984375 c 25,68,-1
 413 -1.41015625 l 25,69,-1
 413 -1.41015625 268 101.58984375 197 101.58984375 c 0,72,-1
 126 101.58984375 62 46.58984375 62 46.58984375 c 25,75,-1
 -0 97.58984375 l 25,62,-1
21 653.58984375 m 9,76,-1
 21 653.58984375 66 702.58984375 80 723.58984375 c 0,79,-1
 94 744.58984375 163 780.58984375 163 780.58984375 c 25,82,-1
 163 780.58984375 201 722.58984375 205 713.58984375 c 0,85,-1
 209 704.58984375 210 673.58984375 210 673.58984375 c 25,88,-1
 284 668.58984375 l 25,89,-1
 242 571.58984375 l 25,90,-1
 167 621.58984375 l 25,91,-1
 167 621.58984375 162 598.58984375 134 591.58984375 c 0,94,-1
 73 576.33984375 24 651.953125 21 653.58984375 c 9,76,-1
42 171.58984375 m 1,97,-1
 42 171.58984375 173 289.58984375 200 368.58984375 c 0,100,-1
 227 447.58984375 227 651.58984375 227 651.58984375 c 25,103,-1
 515 810.58984375 l 1,104,-1
 515 810.58984375 564 810.58984375 598 791.58984375 c 0,107,-1
 632 772.58984375 638 622.58984375 638 622.58984375 c 25,110,-1
 638 622.58984375 541 698.58984375 494 700.58984375 c 0,113,-1
 400 704.58984375 369 670.58984375 354 428.58984375 c 0,116,-1
 342.22265625 238.58984375 95 213.990234375 42 171.58984375 c 1,97,-1
EndSplineSet
Validated: 37
EndChar
StartChar: N
Encoding: 35 78 67
Width: 1032
VWidth: -36
Flags: W
HStem: 567.269 193.731<34.056 105.931> 596 180.4<272.315 333.3> 723.601 134.199<660.638 778.559>
VStem: 151.917 120.083<516.8 573.852> 384.109 123.041<258.035 390.022 416.596 678.594>
LayerCount: 2
Fore
SplineSet
-0.7998046875 670.799804688 m 0x98
 -0.7998046875 717 49.7998046875 761 74 761 c 0x98
 98.2001953125 761 120.200195312 704.900390625 173 704.900390625 c 0
 225.799804688 704.900390625 245.600585938 776.400390625 289.600585938 776.400390625 c 0
 333.600585938 776.400390625 366.600585938 717 366.600585938 670.799804688 c 0
 366.600585938 624.600585938 338 591.600585938 338 591.600585938 c 1
 272 596 l 1x58
 272 516.799804688 l 1
 294 486 l 1
 278.600585938 26.2001953125 l 1
 278.600585938 26.2001953125 250 -35.3994140625 199.400390625 -35.3994140625 c 0
 148.799804688 -35.3994140625 129 35 129 35 c 1
 129 35 151.916553639 397.081818767 151.916553639 527.962130325 c 0
 151.916553639 554.138579947 150.999864367 571.066695603 148.799804688 574 c 0
 145.464714164 578.447198618 140.163184398 580.085207225 133.427559117 580.085207225 c 0
 114.586733659 580.085207225 84.5251528439 567.268980094 54.8936814947 567.268980094 c 0
 53.1935731695 567.268980094 51.4948807221 567.311169844 49.7998046875 567.400390625 c 0
 8 569.600585938 -0.7998046875 625.700195312 -0.7998046875 670.799804688 c 0x98
377.600585938 787.400390625 m 1
 518.400390625 853.400390625 l 1
 573.632279389 792.031019968 l 1
 624.454808418 821.593892934 697.32729724 857.799804688 749.400390625 857.799804688 c 0x38
 837.400390625 857.799804688 929.799804688 761 929.799804688 761 c 1
 929.799804688 761 874.799804688 444.200195312 874.799804688 398 c 0
 874.799804688 351.799804688 879.200195312 151.600585938 879.200195312 151.600585938 c 1
 967.200195312 175.799804688 l 1
 978.200195312 147.200195312 l 1
 753.799804688 -35.3994140625 l 1
 687.799804688 -4.599609375 l 1
 720.799804688 105.400390625 l 1
 750.831349399 439.496048848 l 1
 669.100585938 317.700195312 l 1
 669.100585938 317.700195312 608.600585938 323.200195312 591 346.299804688 c 0
 573.400390625 369.400390625 544.799804688 411.200195312 544.799804688 411.200195312 c 1
 507.149870448 390.021889691 l 1
 511.799804688 37.2001953125 l 1
 511.799804688 37.2001953125 496.400390625 8.6005859375 483.200195312 -15.599609375 c 0
 476.285780718 -28.2759508753 463.938724895 -31.2941146636 453.747555031 -31.2941146636 c 0
 444.482929928 -31.2941146636 437 -28.7998046875 437 -28.7998046875 c 1
 346.799804688 -6.7998046875 l 1
 346.799804688 -6.7998046875 375.400390625 400.200195312 382 472.799804688 c 0
 383.523316159 489.554930183 384.109194987 515.332558412 384.109194987 545.075766308 c 0
 384.109194987 644.210991553 377.600585938 787.400390625 377.600585938 787.400390625 c 1
506.799642788 416.596010993 m 1
 600.900390625 490.400390625 l 1
 600.900390625 490.400390625 600.881348866 490.314706934 600.881348866 490.148653917 c 0
 600.881348866 488.529765974 602.691217696 479.271986124 641.600585938 467.299804688 c 0
 649.170741309 464.97063216 658.41930946 464.011552175 668.518206927 464.011552175 c 0
 696.419210876 464.011552175 730.810725777 471.332150248 754.230038637 477.305869455 c 1
 773.600585938 692.799804688 l 1
 773.600585938 692.799804688 778.821347584 697.099431874 778.821347584 702.485800144 c 0
 778.821347584 711.515987408 764.147794322 723.600585938 685.600585938 723.600585938 c 0
 592.533156216 723.600585938 529.759986663 682.399961793 503.576548293 661.153805174 c 1
 506.799642788 416.596010993 l 1
EndSplineSet
Validated: 8912897
EndChar
StartChar: O
Encoding: 36 79 82
Width: 1004
VWidth: -36
Flags: W
HStem: -35.3896 139.44<502.844 634.764> 694.181 129.981<417.117 586.393> 694.181 103.75<479.893 601.968>
VStem: 0 111.155<358.586 448.319> 31.54 108.729<226.578 304.08> 182.406 135.484<409.791 574.66> 839.13 132.8<301.706 446.212>
LayerCount: 2
Fore
SplineSet
166 593.75 m 1x96
 168.490234375 548.930664062 l 1
 168.490234375 548.930664062 112.879882812 485.020507812 111.219726562 432.73046875 c 0
 111.176034182 431.354287272 111.154762944 430.017199225 111.154762944 428.716632426 c 0x96
 111.154762944 380.600251105 140.26953125 382.471919768 140.26953125 304.080078125 c 0
 140.26953125 251.77734375 87.1494140625 128.120117188 87.1494140625 128.120117188 c 1
 19.08984375 15.240234375 l 1
 4.9794921875 16.900390625 l 1
 31.5400390625 304.080078125 l 1x8e
 31.5400390625 304.080078125 0 331.470703125 0 395.379882812 c 0
 0 459.290039062 97.939453125 516.560546875 166 593.75 c 1x96
162.6796875 197.010742188 m 1
 162.6796875 197.010742188 207.496195707 292.488360099 207.496195707 366.807576184 c 0
 207.496195707 376.501579824 206.733691696 385.83559633 205.009765625 394.55078125 c 0
 191.240667692 464.163120923 182.405722406 515.444934194 182.405722406 552.943832708 c 0
 182.405722406 556.131189701 182.469552908 559.21896822 182.599609375 562.209960938 c 0
 184.259765625 600.390625 424.129882812 814.530273438 444.049804688 822.830078125 c 0
 446.263129341 823.752278646 449.234724633 824.162145544 452.79608598 824.162145544 c 0xc6
 481.286976754 824.162145544 547.522894965 797.930664062 565.229492188 797.930664062 c 0xa6
 585.149414062 797.930664062 611.709960938 836.110351562 633.290039062 836.110351562 c 0
 654.870117188 836.110351562 971.9296875 706.629882812 971.9296875 417.790039062 c 0
 971.9296875 162.075195312 649.059570312 -35.3896484375 566.059570312 -35.3896484375 c 0
 494.6796875 -35.3896484375 359.389648438 76.66015625 274.729492188 76.66015625 c 0
 190.0703125 76.66015625 80.509765625 -0.529296875 80.509765625 -0.529296875 c 1
 80.509765625 -0.529296875 67.6949137284 -8.10994079811 55.9067331606 -8.10994079811 c 0
 48.987832765 -8.10994079811 42.4226136153 -5.49846085087 39.009765625 2.7900390625 c 0
 37.5619138409 6.30630594573 36.9338262104 9.79345935758 36.9338262104 13.1975807167 c 0
 36.9338262104 35.5069014628 63.91015625 54.25 63.91015625 54.25 c 1
 63.91015625 54.25 157.181260742 112.260273034 248.395009153 149.865268253 c 1
 786.118824526 478.365113984 l 1
 787.894509104 525.416054967 l 1
 781.884455837 536.254879095 775.330196894 546.894697414 768.223632812 557.23046875 c 0
 765.403243393 561.332341841 762.495864933 565.38633302 759.500991046 569.385876592 c 1
 239.131678684 276.483543069 l 1
 213.869287988 251.430076869 194.401077596 228.184523898 162.6796875 197.010742188 c 1
737.696850822 595.759650242 m 1
 685.169305715 653.271998756 611.428409989 694.180664062 514.599609375 694.180664062 c 0
 385.311416536 694.180664062 357.961978626 685.063968066 357.961978626 677.349837159 c 0
 357.961978626 671.692803344 372.669921875 666.790039062 372.669921875 666.790039062 c 1
 317.889648438 574.66015625 l 1
 325.359375 402.850585938 l 1
 383.137649749 394.881303451 l 1
 737.696850822 595.759650242 l 1
359.528806298 180.975679278 m 2
 362.319086156 181.150457989 365.041236347 181.240234375 367.689453125 181.240234375 c 0
 467.290039062 181.240234375 467.290039062 104.05078125 609.219726562 104.05078125 c 0
 751.149414062 104.05078125 839.129882812 201.16015625 839.129882812 338.110351562 c 0
 839.129882812 371.870817138 833.026610552 410.625011711 820.472014891 449.859092083 c 1
 359.528806298 180.975679278 l 2
EndSplineSet
Validated: 8912897
EndChar
StartChar: P
Encoding: 37 80 56
Width: 1096
VWidth: -36
Flags: W
HStem: 544.81 199.19<42.7751 134.047>
VStem: 909.75 127.25<290.044 433.788>
LayerCount: 2
Fore
SplineSet
876.222464276 465.459153886 m 1
 777 464 l 1
 607.026845638 212 l 1
 618 212 l 1
 694 176 l 1
 694 176 856 210 896 266 c 0
 906 280 909.75 299.5 909.75 320.875 c 0
 909.75 381.945304102 879.138882379 458.321167014 876.222464276 465.459153886 c 1
732.35076404 585.860190514 m 1
 713 548 l 1
 683 546 l 1
 683 546 585 360 561 340 c 0
 545.030806868 326.692339056 517.993248749 318.697493307 501.686844813 314.837110363 c 1
 496 212 l 1
 549.486842105 212 l 1
 736 482 l 1
 745.677281296 574.740612422 l 1
 732.35076404 585.860190514 l 1
508.085415456 430.544596165 m 1
 543 436 l 1
 669 594 l 1
 676.383617668 632.558892265 l 1
 562 728 l 1
 548 716 538 717 527 696 c 0
 520.475707652 683.544532788 519.984571269 656.171766837 519.984571269 648.211816981 c 0
 519.984571269 646.80098798 520 646 520 646 c 1
 508.085415456 430.544596165 l 1
369 -130 m 1
 379 -71 386 -18 394 22 c 0
 395.6 30 396.24 61.6 396.24 107.04 c 0
 396.24 288.8 386 692 386 692 c 1
 652 886 l 1
 652 886 938 592 978 536 c 0
 1018 480 1034 402 1034 376 c 0
 1034 350 1037 290 1037 290 c 1
 715 41 l 1
 526 112 l 1
 474 71 l 1
 511 -110 l 1
 511 -110 476 -122 440 -129 c 0
 426.736842105 -131.578947368 413.609418283 -132.393351801 402.317976381 -132.393351801 c 0
 382.961218837 -132.393351801 369 -130 369 -130 c 1
0 630 m 0
 0 688 47 744 95 744 c 0
 143 744 189 638 189 638 c 1
 205 640 l 1
 343 778 l 1
 342.788146618 778.015138761 301 -8 301 -8 c 1
 319 -114 l 1
 319 -114 293 -148 243 -148 c 0
 193 -148 153 -104 153 -104 c 1
 209 584 l 1
 167 590 l 1
 167 590 111 547 86 545 c 0
 84.4047943843 544.872371644 82.8062967044 544.809637499 81.2070737474 544.809637499 c 0
 40.8346505445 544.809637499 0 584.790815607 0 630 c 0
EndSplineSet
Validated: 524321
EndChar
StartChar: Q
Encoding: 38 81 88
Width: 1014
VWidth: -36
Flags: W
HStem: 332.598 138.27<181.136 277.667> 753.068 96.2793<359.737 543.131>
VStem: 36.5205 117.859<498.862 602.187> 783.521 107.912<370.962 544.265>
LayerCount: 2
Fore
SplineSet
630.799804688 75.7880859375 m 1
 630.799804688 75.7880859375 633.901607613 74.2906681754 641.218643202 74.2906681754 c 0
 654.284646411 74.2906681754 680.791809202 79.065500955 727.080078125 105.66796875 c 0
 799.290039062 147.16796875 811.740234375 188.66796875 811.740234375 188.66796875 c 1
 964.459960938 215.227539062 l 1
 977.740234375 172.068359375 l 1
 826.6796875 3.578125 l 1
 826.6796875 3.578125 807.497829861 8.37369791667 786.348234954 8.37369791667 c 0
 775.7734375 8.37369791667 764.706705729 7.1748046875 755.299804688 3.578125 c 0
 727.080078125 -7.2119140625 673.959960938 -35.431640625 673.959960938 -35.431640625 c 1
 644.080078125 -15.51171875 l 1
 630.799804688 75.7880859375 l 1
555.468305434 726.103984992 m 1
 519.872761385 743.080046024 484.117049744 753.068359375 451.520507812 753.068359375 c 0
 313.740234375 753.068359375 154.379882812 626.908203125 154.379882812 574.618164062 c 0
 154.379882812 522.328125 174.299804688 470.868164062 242.360351562 470.868164062 c 0
 279.583154037 470.868164062 304.889219473 475.336794399 330.227405809 481.015493486 c 1
 404.71980444 545.17355627 527.988853944 652.292056882 539.5 668.408203125 c 0
 547.59729502 679.74413035 552.53469947 704.113212107 555.468305434 726.103984992 c 1
382.300081361 460.246973606 m 1
 346.940429688 389.528320312 l 1
 346.940429688 389.528320312 254.054696897 332.598241332 187.836104129 332.598241332 c 0
 184.35110388 332.598241332 180.939965819 332.755925292 177.620117188 333.087890625 c 0
 111.219726562 339.727539062 36.5205078125 439.311523438 36.5205078125 523.98828125 c 0
 36.5205078125 668.435546875 285.271484375 849.34765625 484.719726562 849.34765625 c 0
 684.168945312 849.34765625 889.879882812 694.959960938 891.419921875 545.568359375 c 0
 891.428640786 544.722866345 891.432955349 543.86679739 891.432955349 543.000459988 c 0
 891.432955349 459.738141128 851.580078125 281.627929688 851.580078125 281.627929688 c 1
 851.580078125 281.627929688 443.219726562 -28.7919921875 443.219726562 -28.7919921875 c 1
 0 113.967773438 l 1
 0 113.967773438 43.16015625 173.727539062 91.2998046875 210.248046875 c 0
 138.629601239 246.152482768 197.190434182 293.289842942 233.85482842 293.289842942 c 0
 234.482942971 293.289842942 235.104631205 293.276008745 235.719726562 293.248046875 c 0
 254.270889253 292.404744563 271.965314765 289.419851288 287.062358944 287.121865807 c 1
 390.63777806 363.126767175 654.967435185 556.649601288 685.580078125 574.618164062 c 0
 699.977487922 583.068945728 706.58520283 594.706345011 709.230816977 605.925326682 c 1
 692.439596532 625.61165595 673.552059288 644.41233235 653.376193864 661.596962213 c 1
 633.435184344 657.909391612 612.010649557 651.819957978 592.620117188 641.84765625 c 0
 552.186994054 621.053420386 444.220743178 519.862851618 382.300081361 460.246973606 c 1
343.890641126 269.93046018 m 0
 331.205155934 256.802509989 319.485139443 241.753399691 319.485140048 230.961218516 c 0
 319.485140048 228.1610288 320.274154117 225.647423802 322.040039062 223.528320312 c 0
 336.783997661 205.835223037 398.674347011 158.020670753 486.772769327 158.020670753 c 0
 497.860694236 158.020670753 509.363763731 158.778069154 521.240234375 160.448242188 c 0
 627.48046875 175.387695312 783.520507812 313.998046875 783.520507812 444.307617188 c 0
 783.520507812 476.258369634 771.844387324 511.103171615 752.186966117 545.502034344 c 1
 742.933223295 544.454683081 732.126801701 542.869931589 723.759765625 540.587890625 c 0
 709.937263532 536.81845335 463.060358524 357.068909561 343.890641126 269.93046018 c 0
EndSplineSet
Validated: 524289
EndChar
StartChar: R
Encoding: 39 82 18
Width: 960
VWidth: -36
Flags: W
HStem: 124 20<873 897> 783.002 67.9983<495 593.85>
VStem: 95 147<-11 147.976> 123 145<478.254 610> 264 45<790 818.142> 303 144<-12 144.864>
LayerCount: 2
Fore
SplineSet
123 610 m 1xd0
 495 851 l 2
 496.356445312 848.673828125 744.29296875 874.92578125 779 823 c 0
 893.87890625 651.126953125 653 590 653 590 c 1
 653 590 758 468 784 366 c 0
 797.981445312 311.149414062 824 125 873 124 c 0
 891.107421875 123.630859375 887 144 897 144 c 0
 907 144 921 104 900 78 c 0
 879 52 779 -20 779 -20 c 1
 779 -20 701 3 679 84 c 0
 657 165 659.407226562 294.776367188 640 347 c 0
 585 495 469 486 469 486 c 1
 447 -20 l 1
 303 -12 l 1
 332 698 l 1
 332 698 327 706 304 706 c 0
 281 706 268 666 268 666 c 1xd4
 242 -15 l 1
 95 -11 l 1xe0
 123 610 l 1xd0
141 822 m 1
 186 795 l 1
 184 757 l 1
 258 790 l 1
 264 819 l 1
 264 819 266.12345679 819.098765432 269.448559671 819.098765432 c 0
 281.086419753 819.098765432 307.444444444 817.888888889 309 807 c 0xc8
 311 793 109 673 109 673 c 1
 23 686 l 1
 23 686 -5 705 0 732 c 0
 5 759 25 778 25 778 c 1
 141 822 l 1
478 783 m 1
 463 505 l 1
 463 505 675.483398438 574.053710938 679 652 c 0
 679.085714286 653.9 679.127959184 655.77244898 679.127959184 657.617746356 c 0
 679.127959184 781.17185461 489.73845018 783.001704939 478.518929917 783.001704939 c 0
 478.176461186 783.001704939 478 783 478 783 c 1
EndSplineSet
Validated: 8912929
EndChar
StartChar: S
Encoding: 83 83 71
Width: 898
VWidth: 0
Flags: W
HStem: -5 160<311.423 569.053> 402 52<485 520.774> 636 134<292.948 504.5> 650 109<676.192 750.501>
VStem: 0 99<353.356 539.906>
LayerCount: 2
Fore
SplineSet
773 741 m 0xd8
 770.484375 757.783203125 717.476111765 762.497002376 697 759 c 0xd8
 673.924703998 755.059097261 671.579609791 709.440817075 661 709 c 0
 637 708 535 770 474 770 c 0
 228 770 0 663 0 429 c 0
 0 195 212 197 212 197 c 25
 282 307 l 25
 282 307 297 326 319 329 c 0
 341 332 409 280 409 280 c 1
 485 402 l 25
 485 402 541 404 589 407 c 0
 637 410 713 398 719 290 c 0
 725 182 643 148 453 155 c 0
 263 162 209 167 183 154 c 0
 157 141 50 38 50 38 c 25
 50 38 16 -7 33 -26 c 0
 58.9473684211 -55 214 47 214 47 c 25
 214 47 340 -5 472 -5 c 0
 604 -5 835 147 835 319 c 0
 835 491 719 542 644 542 c 0
 569 542 521 455 479 454 c 0
 437 453 369 495 369 495 c 25
 207 275 l 25
 207 275 99 310 99 449 c 0
 99 588 207 636 315 636 c 0xe8
 423 636 488 589 547 589 c 1
 676 650 l 17
 675.120117188 658.321289062 787.988972834 640.9998109 773 741 c 0xd8
EndSplineSet
Validated: 524329
EndChar
StartChar: T
Encoding: 41 84 65
Width: 964
VWidth: -36
Flags: W
HStem: -16 104<646.188 748.642> 56 140<408.393 459.913>
LayerCount: 2
Fore
SplineSet
43 36 m 29x40
 57 2 l 29
 57 2 245 56 343 56 c 4x40
 441 56 575 -16 687 -16 c 4
 799 -16 907 210 869 210 c 4
 831 210 781 98 765 86 c 4
 749 74 729 88 689 88 c 4x80
 649 88 565 194 499 196 c 4
 433 198 43 36 43 36 c 29x40
65 542 m 5
 195 672 l 29
 195 672 299 676 411 648 c 4
 523 620 623 600 681 604 c 4
 739 608 875 660 895 684 c 4
 915 708 931 752 905 776 c 4
 879 800 777 754 777 754 c 29
 777 754 565 766 495 776 c 4
 425 786 279 826 231 804 c 4
 183 782 77 704 63 682 c 4
 49 660 3 586 25 564 c 4
 47 542 65 542 65 542 c 5
554 814 m 29
 554 814 430 722 394 676 c 4
 358 630 320 282 304 254 c 4
 288 226 194 90 194 90 c 29
 224 90 l 29
 224 90 401.3125 261 446 316 c 4
 498 380 486 540 508 586 c 4
 530 632 562 714 564 746 c 4
 566 778 558 787 554 814 c 29
363 589 m 29
 363 589 187.529296875 544 169 509 c 4
 151 475 155 343 129 271 c 4
 103 199 0 55 0 55 c 29
 19 37 l 29
 19 37 167 101 203 201 c 4
 239 301 232.5 424 251 461 c 4
 269 497 369 569 369 569 c 29
 363 589 l 29
EndSplineSet
Validated: 37
EndChar
StartChar: U
Encoding: 42 85 78
Width: 1133
VWidth: -36
Flags: HMW
LayerCount: 2
Fore
SplineSet
464 688 m 4
 458 689 456 693 456 699 c 4
 456 715 471 741 471 741 c 13
 636 852 l 5
 688 812 l 29
 853 818 l 21
 853 818 882 877 902 877 c 4
 903 877 903 877 903 877 c 4
 924 876 941 856 941 856 c 29
 941 281 l 29
 941 281 914 263 914 249 c 4
 914 235 928 223 928 223 c 29
 972 185 l 5
 1041 242 l 21
 1041 242 1053 251 1063 251 c 4
 1067 251 1071 250 1074 246 c 4
 1077 242 1078 236 1078 231 c 4
 1078 220 1074 210 1074 210 c 13
 878 30 l 21
 878 30 857 14 836 14 c 4
 829 14 822 16 816 22 c 4
 810 28 808 35 808 43 c 4
 808 66 825 92 825 92 c 5
 825 92 836 113 836 135 c 4
 836 140 836 145 834 150 c 4
 829 168 812 171 802 171 c 4
 797 171 794 170 794 170 c 13
 590 -6 l 5
 590 -6 582 -26 492 -26 c 4
 264 -26 57 169 57 359 c 4
 57 549 168 651 176 668 c 4
 177 670 177 672 177 674 c 4
 177 691 152 714 138 714 c 4
 122 714 68 660 46 649 c 4
 43 648 41 647 38 647 c 4
 21 647 12 679 0 711 c 4
 -1 713 -1 714 -1 716 c 4
 -1 754 136 831 172 832 c 4
 172 832 173 832 173 832 c 4
 210 832 247 771 273 771 c 4
 273 771 274 771 274 771 c 4
 300 773 366 843 406 858 c 4
 421 863 433 865 443 865 c 4
 460 865 470 860 470 860 c 5
 470 860 354 744 354 533 c 4
 354 532 354 531 354 530 c 4
 355 416 470 374 512 374 c 4
 554 374 572 384 584 388 c 4
 596 392 586 416 586 416 c 5
 524 486 l 5
 631 610 l 5
 674 605 l 5
 674 605 661 559 661 528 c 4
 661 523 661 518 662 514 c 4
 668 486 696 474 698 454 c 4
 698 453 698 452 698 452 c 4
 698 431 676 402 676 402 c 13
 488 244 l 5
 487 244 486 244 486 244 c 4
 335 244 269 532 268 568 c 4
 268 569 268 569 268 570 c 4
 268 595 281 633 281 654 c 4
 281 664 279 670 271 670 c 4
 270 670 267 670 264 670 c 4
 241 670 178 657 178 472 c 4
 178 256 354 120 524 120 c 4
 694 120 820 282 820 282 c 29
 808 770 l 29
 760 768 l 29
 760 768 692 688 678 688 c 4
 664 688 574 762 558 762 c 4
 542 762 524 734 524 734 c 21
 524 734 495 688 467 688 c 4
 466 688 465 688 464 688 c 4
EndSplineSet
Validated: 1
EndChar
StartChar: W
Encoding: 44 87 84
Width: 1457
VWidth: -36
Flags: W
HStem: -22 146<742.144 928.44> 647 21G<29.5 39.5> 674 101<232.078 270.952 610 616.998> 714 118<112.348 170.197> 774 48<1079.35 1145> 836 29G<438 451.5 775 788.5 943.27 999>
VStem: 57 121<348.63 497.697> 394 121<352.824 501.697> 605 86<477.271 657.003> 1145 133<482.501 774> 1157 121<266.136 577.499>
LayerCount: 2
Fore
SplineSet
801 692 m 0xcfc0
 795 693 793 697 793 703 c 0
 793 719 808 745 808 745 c 1
 973 856 l 1
 1025 816 l 1
 1190 822 l 1
 1190 822 1219 881 1239 881 c 0
 1240 881 1240 881 1240 881 c 2
 1261 880 1263 868 1278 860 c 1
 1278 285 l 1xcfa0
 1278 285 1251 267 1251 253 c 0
 1251 239 1265 227 1265 227 c 1
 1309 189 l 1
 1378 246 l 1
 1378 246 1390 255 1400 255 c 0
 1404 255 1408 254 1411 250 c 0
 1414 246 1415 240 1415 235 c 0
 1415 224 1411 214 1411 214 c 1
 1215 34 l 1
 1215 34 1194 18 1173 18 c 0
 1166 18 1159 20 1153 26 c 0
 1147 32 1145 39 1145 47 c 0
 1145 70 1162 96 1162 96 c 1
 1162 96 1173 117 1173 139 c 0
 1173 144 1173 149 1171 154 c 0
 1166 172 1149 175 1139 175 c 0
 1134 175 1131 174 1131 174 c 1
 927 -2 l 1
 927 -2 919 -22 829 -22 c 0
 759 -22 690 -3 629 28 c 1
 590 -6 l 1
 590 -6 582 -26 492 -26 c 0
 264 -26 57 169 57 359 c 0
 57 549 168 651 176 668 c 0
 177 670 177 672 177 674 c 0xe7c0
 177 691 152 714 138 714 c 0
 122 714 68 660 46 649 c 0
 43 648 41 647 38 647 c 0
 21 647 12 679 0 711 c 0
 -1 713 -1 714 -1 716 c 0
 -1 754 136 831 172 832 c 2
 172 832 173 832 173 832 c 2xd7c0
 210 832 247 771 273 771 c 2
 273 771 274 771 274 771 c 2
 300 773 366 843 406 858 c 0
 421 863 433 865 443 865 c 0
 460 865 470 860 470 860 c 1
 271 670 l 2
 270 669 267 670 264 670 c 0
 241 670 178 657 178 472 c 0
 178 265 340 131 504 121 c 1
 436 190 394 277 394 363 c 0
 394 553 505 655 513 672 c 0
 514 674 514 678 514 678 c 1
 610 775 l 1
 610 775 611 775 611 775 c 1
 633 791 703 847 743 862 c 0
 758 867 770 869 780 869 c 0
 797 869 807 864 807 864 c 1
 807 864 691 748 691 537 c 0
 691 536 691 535 691 534 c 0
 692 420 807 378 849 378 c 0
 891 378 909 388 921 392 c 0
 933 396 923 420 923 420 c 1
 861 490 l 1
 968 614 l 1
 1011 609 l 1
 1011 609 998 563 998 532 c 0
 998 527 998 522 999 518 c 0
 1005 490 1033 478 1035 458 c 0
 1035 457 1035 456 1035 456 c 2
 1035 435 1013 406 1013 406 c 1
 825 248 l 2
 824 248 823 248 823 248 c 2
 672 248 605 537 605 574 c 0
 605 599 618 637 618 658 c 0
 618 668 616 674 608 674 c 0
 607 674 604 674 601 674 c 0
 578 674 515 661 515 476 c 0
 515 260 691 124 861 124 c 0
 1031 124 1157 286 1157 286 c 1xe7a0
 1145 774 l 1
 1097 772 l 1
 1097 772 1029 692 1015 692 c 0
 1001 692 911 766 895 766 c 0
 879 766 861 738 861 738 c 1
 861 738 832 692 804 692 c 0
 803 692 802 692 801 692 c 0xcfc0
EndSplineSet
Validated: 1
EndChar
StartChar: X
Encoding: 45 88 87
Width: 802
VWidth: -36
Flags: W
HStem: -54.3287 165.083<518.888 576.996> 9.98222 117.018<162.321 240.178> 377.112 95.888<472.305 600.555>
LayerCount: 2
Fore
SplineSet
496 700 m 1x60
 496 700 506 753 539 790 c 0
 550.201834862 802.559633028 575.000336672 806.707768706 602.873998188 806.707768706 c 0
 657.114636815 806.707768706 723 791 723 791 c 1
 688 609 l 1
 688 609 638 623 623 635 c 0
 608 647 601 685 601 685 c 1
 601 685 571.616626009 694.132670295 543.625725868 694.132670295 c 0
 527.196284481 694.132670295 511.246575342 690.98630137 502 681 c 0
 480.845025327 658.152627353 433.912152535 591.62603845 433.912152535 545.648080929 c 0
 433.912152535 537.291350946 435.4625767 529.613443562 439 523 c 0
 462 480 518 474 555 473 c 0
 555.725490196 472.980392157 556.456747405 472.970780469 557.19348516 472.970780469 c 0
 594.030372933 472.970780469 644.568627451 497 673 497 c 0
 702 497 773 470 773 470 c 1
 773 470 769 426 761 409 c 0
 753 392 696 373 695 363 c 0
 694 353 686 311 686 311 c 1
 686 311 678.517006803 309.866213152 669.597883598 309.866213152 c 0
 659.786848073 309.866213152 648.238095238 311.238095238 643 317 c 0
 633 328 592 375 546 377 c 0
 544.307420112 377.07359043 542.567454149 377.111979776 540.787674234 377.111979776 c 0
 502.5834939 377.111979776 446.034028659 359.423118205 446.034028659 292.510763421 c 0
 446.034028659 277.823332947 448.758658584 260.764247816 455 241 c 0
 491 127 539 114 589 111 c 0
 591.81915478 110.830850713 594.593802812 110.753893977 597.324661074 110.753893977 c 0
 624.912019763 110.753893977 648.030540791 118.607490106 667.419386148 118.607490106 c 0
 680.151446406 118.607490106 691.275215985 115.220904633 701 104 c 0
 706.98443634 97.0948626211 709.607695982 89.4903239597 709.607695982 81.4638531023 c 0
 709.607695982 24.3964172992 577 -54 577 -54 c 1
 577 -54 572.069033531 -54.328731098 564.128913164 -54.328731098 c 0xa0
 541.102564103 -54.328731098 492.769230769 -51.5641025641 466 -30 c 0
 430 -1 335 142 316 142 c 0
 297 142 275 35 265 22 c 0
 256.333333333 10.7333333333 183.822222222 9.98222222222 164.64 9.98222222222 c 0
 161.688888889 9.98222222222 160 10 160 10 c 1
 145 -23 l 1
 64 -36 l 1
 64 -36 44 -9 27 28 c 0
 19.289496193 44.7816847564 12.4018556242 71.2320125613 12.4018556242 96.9009055526 c 0
 12.4018556242 127.826392355 22.3993066583 157.617621902 53 168 c 0
 60.654676259 170.597122302 69.4864655039 171.718182289 79.0330985147 171.718182289 c 0
 139.327622794 171.718182289 228.136690647 127 229 127 c 0
 230 127 274 220 290 242 c 0
 306 264 370 277 370 277 c 1
 370 277 386 281 384 295 c 0
 382.079630182 308.442588729 281.510068954 364.295110213 212.422674636 364.295110213 c 0
 209.557892186 364.295110213 206.747241264 364.199075454 204 364 c 0
 135 359 81 341 55 334 c 0
 45.5979884684 331.468689203 35.8036789153 329.068144413 27.1302571958 329.068144413 c 0
 11.8184961756 329.068144413 -3.5527136788e-15 336.54948061 0 364 c 0
 0 407 10 439 41 450 c 0
 72 461 259 482 259 482 c 1
 261 574 l 1
 180 664 l 1
 121 677 l 1
 121 677 114.650793651 640.718820862 57.0328258287 640.718820862 c 0
 54.1519274376 640.718820862 51.1428571429 640.80952381 48 641 c 0
 19.1778510223 642.746796908 8.47279245109 654.98243563 8.47279245109 670.79457187 c 0
 8.47279245109 691.190734764 26.2844729427 717.537676035 46 735 c 0
 81 766 127 754 164 768 c 0
 201 782 212 803 230 808 c 0
 232.286299768 808.635083269 235.572859818 808.947501931 239.603531532 808.947501931 c 0
 267.306271095 808.947501931 330.159283114 794.189500386 345 768 c 0
 361.50776493 738.868650124 398.75995431 655.047453971 399.987763765 652.049043391 c 2
 399.987658263 652.054539235 l 2
 399.987658263 654.444605913 459.305009882 681.156626696 496 700 c 1x60
EndSplineSet
Validated: 524289
EndChar
StartChar: Y
Encoding: 46 89 83
Width: 904
VWidth: -36
Flags: W
HStem: 685.557 21G<780.289 790.668> 799 66.0445<617.613 734.174>
VStem: 128 102<-96.7946 1.65881> 756.356 76.1296<696.037 777.963>
LayerCount: 2
Fore
SplineSet
756 703 m 1
 756 703 756.355998576 706.41758633 756.355998576 711.96310377 c 0
 756.355998576 735.808828765 749.773584906 799 680 799 c 0
 617.322033898 799 608.82332663 768.192186153 608.82332663 744.514643659 c 0
 608.82332663 735.704395289 610 727.881355932 610 723 c 0
 610 705 654 623 744 599 c 0
 834 575 820 565 824 539 c 0
 824.515497507 535.649181578 824.764494929 532.518650596 824.764494929 529.587196044 c 0
 824.764494929 481.777505409 758.533636115 486.920181669 702 453 c 0
 642 417 482 305 412 231 c 0
 342 157 230 23 230 -19 c 0
 230 -61 234 -54 246 -62 c 0
 258 -70 332 -89 332 -89 c 1
 332 -89 270 -124 256 -132 c 0
 242 -140 224 -169 200 -172 c 0
 199.336105168 -172.082986854 198.653845489 -172.123887598 197.954745003 -172.123887598 c 0
 173.381150369 -172.123887598 128 -121.589223483 128 -72 c 0
 128 -21 223 152 223 152 c 1
 223 152 239.689986283 266.652949246 239.689986283 353.166742875 c 0
 239.689986283 368.212620027 239.185185185 382.407407407 238 395 c 0
 230 480 136 668 136 668 c 1
 136 668 24 673 24 753 c 0
 24 833 106 849 132 849 c 0
 186.930664062 849 262.426757812 800.958007812 292 737 c 0
 296.863632885 726.481339103 301.499325341 715.53375166 305.91624232 704.256399589 c 1
 533.798288374 834.710614359 l 2
 542.407573905 842.279374309 552.431315532 848.184795548 564 852 c 0
 591.069515971 860.927180799 616.480456355 865.044492392 640.901497466 865.044492392 c 0
 701.283519212 865.044492392 755.613833081 839.873479847 814 800 c 0
 827.507686913 790.873184518 832.485580716 773.669773248 832.485580716 755.386464242 c 0
 832.485580716 723.588479714 817.428692853 688.524073732 806 687 c 0
 798.917960675 686.05572809 793.11766742 685.5572809 788.217607328 685.5572809 c 0
 772.360679775 685.5572809 765.931116293 690.77708764 756 703 c 1
320.617991485 663.227564219 m 1
 372.757895981 504.511821882 388 308 388 308 c 2
 388 308 420 326 474 361 c 0
 528 396 600 436 600 436 c 1
 600 436 558 496 518 574 c 0
 500.949428951 607.248613545 489.713297365 657.032039308 489.713297365 705.613598767 c 0
 489.713297365 711.625010322 489.885336336 717.618019828 490.239686158 723.559023567 c 1
 481.604379632 724.844446066 471.549131466 725.769017371 460 726 c 0
 459.668874172 726.006622517 459.335292312 726.009911846 458.999301471 726.009911846 c 0
 420.995539657 726.009911846 352.171859194 683.92701111 320.617991485 663.227564219 c 1
EndSplineSet
Validated: 524289
EndChar
StartChar: Z
Encoding: 47 90 97
Width: 1024
VWidth: -36
Flags: W
HStem: 670.755 95.2447<378.381 483.691>
LayerCount: 2
Fore
SplineSet
356 36 m 3
 356 90 432 114 542 124 c 0
 578.666666667 127.333333333 605.555555556 128.444444444 625.111111111 128.444444444 c 0
 664.222222222 128.444444444 674 124 674 124 c 9
 764 158 l 25
 716 38 l 25
 586 -28 l 25
 552 -36 l 25
 552 -36 522 -1 474 11 c 0
 426 23 356 8.9814453125 356 36 c 3
136 22 m 25
 568 466 l 25
 676 510 l 25
 698 506 l 25
 406 196 l 25
 396 130 l 25
 318 34 l 25
 136 22 l 25
56 680 m 25
 82 695 102 703 123 718 c 0
 144 733 159 753 187 785 c 0
 215 817 281 824 281 824 c 25
 281 824 413 766 496 766 c 0
 579 766 771 792 771 792 c 25
 778 741 l 1
 196 162 l 0
 176.53515625 112 l 0
 79 10 l 9
 14 12 l 25
 17 66 l 25
 250 274 l 25
 260 328 l 25
 200 368 l 25
 200 368 136 344 100 342 c 0
 99.027027027 341.945945946 98.0555149744 341.919649379 97.0860955916 341.919649379 c 0
 62.1869978086 341.919649379 30 376 30 376 c 9
 30 376 39 426 57 454 c 0
 75 482 131 522 131 522 c 25
 131 522 165 495 177 490 c 0
 189 485 219 477 275 477 c 0
 331 477 400 515 422 528 c 0
 431.68 533.72 434.3904 546.0224 434.3904 558.007296 c 0
 434.3904 573.2608 430 588 430 588 c 1
 430 588 488.586666667 609.031111111 488.586666667 640.677925926 c 0
 488.586666667 645.546666667 487.2 650.666666667 484 656 c 0
 477.513513514 666.810810811 463.868517166 670.755295836 447.408287762 670.755295836 c 0
 402.965668371 670.755295836 338 642 338 642 c 9
 338 642 214 680 168 680 c 0
 122 680 72 652 72 652 c 25
 56 680 l 25
EndSplineSet
Validated: 524289
EndChar
StartChar: a
Encoding: 48 97 2
Width: 502
VWidth: -36
Flags: HW
VStem: 16 38<319.203 447.591> 292 150<161 311.664> 305 147<264.368 349 396 519.125>
LayerCount: 2
Fore
SplineSet
145 530 m 4xa0
 162 545.639648438 204 543 230 543 c 4
 273 543 305 521 305 498 c 6
 305 406 l 21
 236 347.966796875 l 4
 154 279 l 13
 154 279 58 296 54 381 c 4
 50.2353515625 461 87 476.639648438 145 530 c 4xa0
  Spiro
    145 530 o
    168.786 540.316 o
    200.217 543.106 o
    230 543 o
    268.522 536.457 o
    295.13 519.869 o
    305 498 [
    305 406 v
    236 347.967 o
    154 279 v
    129.006 286.539 o
    81.6593 316.823 o
    54 381 o
    63.0094 443.279 o
    94.8347 485.472 o
    0 0 z
  EndSpiro
300 359 m 5
 292 0 l 5
 292 0 316 -6 339 7 c 4
 382.30078125 31.474609375 464 98 464 98 c 5
 459 172 l 5
 442 171 l 4xc0
 452 536 l 5
 452 536 447 597.951171875 392 639 c 4
 337 680.048828125 288 674 288 674 c 5
 84 520 l 6
 84 520 16 475 16 370 c 7
 16 280.977539062 160 241 160 241 c 5
 300 359 l 5
  Spiro
    300 359 v
    292 0 v
    299.061 -1.0729 o
    316.613 -0.5895 o
    339 7 o
    390.597 41.4297 o
    441.256 79.878 o
    464 98 v
    459 172 v
    442 171 o
    452 536 v
    448.675 553.55 o
    431.973 594.098 o
    392 639 o
    340.639 666.302 o
    302.713 674.05 o
    288 674 v
    84 520 [
    66.4006 504.476 o
    33.5994 455.489 o
    16 370 o
    53.2693 297.047 o
    122.731 254.634 o
    160 241 v
    0 0 z
  EndSpiro
115 226 m 29
 115 226 93 187 72 175 c 4
 51 163 24 160 24 160 c 29
 0 85 l 29
 44 80 l 29
 148 9 l 29
 148 9 182 30 231 73 c 4
 280 116 311 143 311 143 c 5
 303 169 l 29
 303 169 263 120 250 122 c 4
 237 124 130 185 130 185 c 29
 131 205 l 29
 115 226 l 29
  Spiro
    115 226 v
    108.531 215.463 o
    92.4624 193.533 o
    72 175 o
    50.2436 165.784 o
    31.7634 161.22 o
    24 160 v
    0 85 v
    44 80 v
    148 9 v
    158.609 16.0229 o
    187.741 37.3247 o
    231 73 o
    273.483 110.228 o
    301.167 134.424 o
    311 143 v
    303 169 v
    292.167 156.392 o
    269.495 133.275 o
    250 122 o
    213.164 139.194 o
    158.173 169.138 o
    130 185 v
    131 205 v
    0 0 z
  EndSpiro
EndSplineSet
EndChar
StartChar: b
Encoding: 49 98 25
Width: 660
VWidth: -36
Flags: W
HStem: 768.85 127.15<16.0312 101.086>
VStem: 0 110<814.42 885.293> 125 115.863<234.512 292.999> 480 144<250.736 430.412>
LayerCount: 2
Fore
SplineSet
277 539 m 25
 246 293 l 17
 246 293 240.863258026 291.801426873 240.863258026 282.956783796 c 0
 240.863258026 270.426872771 251.172413793 242.551724138 301 181 c 0
 355.754601227 113.36196319 393.910911212 101.32820204 414.132411106 101.32820204 c 0
 425.302382476 101.32820204 431 105 431 105 c 1
 431 105 433.8224 102.9264 438.112448 102.9264 c 0
 451.6976 102.9264 480 123.72 480 297 c 0
 480 525 332 566 332 566 c 25
 277 539 l 25
54 896 m 3
 81.458984375 896 110 874 110 853 c 0
 110 832 107 813 107 813 c 17
 107 813 108.028487947 812.813002191 110.034923894 812.813002191 c 0
 117.3082542 812.813002191 137.432432432 815.27027027 168 838 c 0
 198.67141956 860.806953007 234.290825855 878.047420937 255.887996746 878.047420937 c 0
 261.752537012 878.047420937 266.583146486 876.77619348 270 874 c 0
 276.9771071 868.331100481 279.680522152 859.982796378 279.680522152 850.079949577 c 0
 279.680522152 821.660772678 257.415886259 780.43877916 250 753 c 0
 248.529411765 747.558823529 247.902249135 739.69550173 247.902249135 730.240102789 c 0
 247.902249135 675.398788927 269 567 269 567 c 1
 414 669 l 25
 414 669 624 607 624 357 c 0
 624 107 288 -13 288 -13 c 1
 107 104 l 1
 107 104 125 246 125 312 c 0
 125 378 116 771 116 771 c 1
 116 771 103.530233808 768.850040312 86.7675972879 768.850040312 c 0
 52.4041924214 768.850040312 -7.1054273576e-15 777.885245902 0 833 c 3
 0 895.01953125 50 896 54 896 c 3
EndSplineSet
Validated: 1
EndChar
StartChar: c
Encoding: 50 99 9
Width: 374
VWidth: -36
Flags: HMW
LayerCount: 2
Fore
SplineSet
221 685 m 1
 221 685 267 664 297 653 c 0
 325 644 371 636 371 636 c 2
 371 636 371 636 370 629 c 0
 366 608 359 567 355 542 c 0
 349 507 330 490 330 490 c 1
 330 490 281 501 217 526 c 0
 154 551 153 559 153 559 c 1
 153 559 132 454 131 339 c 0
 131 337 131 336 131 334 c 0
 131 180 199 152 237 148 c 0
 254 146 267 145 276 145 c 0
 296 145 300 149 300 152 c 1
 324 112 l 1
 324 112 311 69 291 24 c 0
 272 -22 241 -35 241 -35 c 1
 241 -35 67 58 27 121 c 0
 7 153 2 244 2 324 c 0
 2 400 6 466 6 466 c 1
 6 466 90 538 133 574 c 0
 176 610 221 685 221 685 c 1
EndSplineSet
Validated: 1
EndChar
StartChar: d
Encoding: 51 100 5
Width: 640
VWidth: -36
Flags: W
VStem: 10 144.878<206.554 385.624>
LayerCount: 2
Fore
SplineSet
344 666 m 17
 360.420147904 657.306980522 364.712003962 643.94923341 385.711527766 643.94923341 c 0
 386.45309343 643.94923341 387.215494223 643.965891053 388 644 c 0
 411 645 412 679 414 714 c 0
 414.1 715.75 414.1475 717.43 414.1475 719.042625 c 0
 414.1475 749.6825 397 756 397 756 c 9
 335 748 l 25
 335 748 321 743 318 763 c 0
 317.598508376 765.676610827 317.358212276 767.959188151 317.358212276 769.967581328 c 0
 317.358212276 782.966175021 327.423865985 784.479594075 369 807 c 0
 395 821.083333333 410.4375 824.310763889 419.126736111 824.310763889 c 0
 426.479166667 824.310763889 429 822 429 822 c 9
 452 780 l 25
 452 780 514 832 540 834 c 0
 542.888888889 834.222222222 545.641975309 834.320987654 548.253772291 834.320987654 c 0
 569.148148148 834.320987654 581 828 581 828 c 1
 581 828 587.024793388 822.644628099 587.024793388 794.407212622 c 0
 587.024793388 788.132231405 586.727272727 780.727272727 586 772 c 0
 582 724 574 708 566 624 c 0
 558 540 544 128 544 128 c 25
 584 150 l 1
 581 118 l 0
 568 94 l 1
 568 94 440 -8 418 -8 c 0
 396 -8 394 -1 394 -1 c 25
 394 104 l 25
 240 -16 l 25
 240 -16 10 20.9970703125 10 214 c 3
 10 353 60 478 60 478 c 1
 344 666 l 17
392 141 m 25
 399 209 405 256 409 315 c 0
 411.729337732 355.256388759 412.021745243 440.291521085 412.021745243 474.884230337 c 0
 412.021745243 484.317721465 412 490 412 490 c 9
 412 490 376 517 308 535 c 0
 291 539.5 275.875 541.1875 262.75 541.1875 c 0
 223.375 541.1875 202 526 202 526 c 1
 202 526 154.878233887 463.530921258 154.878233887 338.040626561 c 0
 154.878233887 323.237649236 155.533925198 307.557742477 157 291 c 0
 174 99 322 99 322 99 c 25
 392 141 l 25
157 291 m 1024
392 141 m 1049
EndSplineSet
Validated: 524289
Substitution2: "'hist' Formas hist+APMA-ricas in Latin lookup 2-1" insulard
EndChar
StartChar: e
Encoding: 52 101 3
Width: 450
VWidth: -36
Flags: HW
LayerCount: 2
Fore
SplineSet
271 463 m 26
 150 378 l 2
 150 378 139 371 131 379 c 0
 123 387 126 396 126 396 c 26
 152 514 l 26
 152 514 149 522 162 532 c 0
 175 542 188 534 188 534 c 1
 188 534 215 528 231 520 c 0
 253 509 270 490 270 490 c 2
 270 490 276 489 275 479 c 2
 279 470 276 467 271 463 c 26
280 679 m 0
 259 679 232 651 232 651 c 1
 3 473 l 25
 0 136 l 25
 0 136 54 8 228 8 c 0
 319 8 386 140 386 140 c 25
 396 188 l 1
 358 171 l 25
 324 128 l 1
 324 128 297 102.592773438 211 144 c 0
 130 183 128 198 128 198 c 1
 115 324 l 1
 115 324 144.768554688 356.3671875 170 372 c 0
 262 429 407 505 407 505 c 1
 407 505 424.1953125 515 425 548 c 0
 425.51171875 569 393 581 394 581 c 0
 280 679 l 0
EndSplineSet
EndChar
StartChar: f
Encoding: 53 102 64
Width: 479
VWidth: -36
Flags: W
HStem: 476 126<278.747 330.625> 675 21G<359 359> 741 99.9399<210.014 354.726>
VStem: 60.5471 133.453<36.124 93.9896 358.723 476> 82 107.08<96 256.226>
LayerCount: 2
Fore
SplineSet
315 476 m 0xe8
 255.206533265 476 216.093620996 484.162746301 199.335536157 484.162746301 c 0
 193.146282402 484.162746301 190.006321458 483.049313255 190 480 c 0
 189.971345264 466.081439365 189.079936127 377.21091508 189.079936127 281.408465439 c 0xe8
 189.079936127 181.312244007 190.053040042 73.6488085668 194 36 c 1
 231 36 l 0
 240 -60 l 1
 143 -44 l 0
 57 -4 l 1
 59.8685542814 14.0706056256 60.5471282693 40.3047030311 60.5471282693 61.0832086897 c 0xf0
 60.5471282693 79.7410022909 60 94 60 94 c 1
 82 96 l 1
 65 476 l 1
 65 476 62.6015779093 475.831689678 58.7714391679 475.831689678 c 0
 43.929651545 475.831689678 7.58974358974 478.358974359 6 503 c 0
 5.96226415094 503.58490566 5.94375222499 504.172659309 5.94375222499 504.76294525 c 0
 5.94375222499 535.457814169 56 573 56 573 c 9
 56 573 60 677 125 757 c 0
 170.249403777 812.691499694 250.05231927 840.939860465 319.252953973 840.939860465 c 0
 390.19829483 840.939860465 450 811.249131891 450 751 c 3
 450 712 359 675 359 675 c 1
 359 675 284 741 243 741 c 0
 224.542879647 741 183.89289887 714.577207289 183.89289887 679.149074194 c 0
 183.89289887 678.107025813 183.928066215 677.05718668 184 676 c 1
 185.39635335 655.48316138 186.031518876 640.103542438 186.031518876 626.790061966 c 0
 186.031518876 606.360479123 184.535893914 590.796034802 182 569 c 0
 181.999790864 568.998198696 181.999686408 568.996396636 181.999686408 568.994593824 c 0
 181.999686408 567.32116791 272 565 272 565 c 1
 272 565 281 602 299 602 c 27
 325.275390625 602 343 566.4609375 343 532 c 3
 343 492.94921875 337 476 315 476 c 0xe8
EndSplineSet
Validated: 524289
EndChar
StartChar: g
Encoding: 54 103 10
Width: 532
VWidth: -36
Flags: W
HStem: -182 91<196.5 362> 522 149<400.568 480> 662 20G<212 480>
VStem: 1 103<273.251 484.509> 267 92<303.468 382.96> 427 83<-27.5 105.5>
LayerCount: 2
Fore
SplineSet
284 371 m 0x9c
 308 438 389 525 389 525 c 1
 389 525 359 446 359 379 c 0
 359 360 362 341 368 326 c 0
 388 281 422 268 457 222 c 0
 478 196 510 139 510 72 c 0
 510 21 492 -36 437 -90 c 0
 367 -158 294 -182 229 -182 c 0
 164 -182 107 -158 69 -131 c 0
 42 -111 24 -90 23 -75 c 0
 23 -73 22 -71 22 -70 c 0
 22 -16 107 60 107 60 c 1
 119 42 l 2
 121 40 137 30 226 -33 c 0
 284 -75 322 -91 348 -91 c 0
 376 -91 393 -75 411 -53 c 0
 420 -42 427 -33 427 -22 c 0
 427 0 405 35 343 128 c 0
 284 218 267 269 267 305 c 0
 267 333 277 351 284 371 c 0x9c
480 671 m 1xdc
 483 522 l 1xdc
 391 530 l 1
 129 551 l 1
 129 551 104 495 104 404 c 0
 104 400 104 395 104 391 c 0
 104 384 104 378 105 371 c 0
 112 261 140 252 162 242 c 0
 180 235 200 232 218 232 c 0
 244 232 265 237 265 237 c 1
 265 237 217 203 194 165 c 0
 171 128 119 71 119 71 c 1
 127 117 l 1
 127 117 24 164 7 202 c 0
 4 208 1 247 1 295 c 0
 1 376 10 485 41 520 c 0
 92 576 86 556 145 605 c 0
 205 654 212 682 212 682 c 1xbc
 480 671 l 1xdc
EndSplineSet
Validated: 1
EndChar
StartChar: h
Encoding: 55 104 49
Width: 624
VWidth: -36
Flags: W
HStem: 478.233 173.767<304.622 443.648>
VStem: 9.49037 202.732<720.032 809.774> 70.1227 123.851<166.869 406.029> 452.28 126.72<254.017 476.068>
LayerCount: 2
Fore
SplineSet
273 844 m 25xd0
 250 827 218 811 214 801 c 0
 212.666666667 797.666666667 212.222222222 791.222222222 212.222222222 784.111111111 c 0xd0
 212.222222222 769.888888889 214 753 214 753 c 9
 213 521 l 25
 233 525 l 1
 233 525 289 652 381 652 c 3
 501 652 579 559.016601562 579 441 c 3
 579 311.786033848 514.847671233 174.915630022 482.373289024 174.915630022 c 0
 481.908956233 174.915630022 481.451099847 174.943612519 481 175 c 0
 452.555555556 178.555555556 450.975308642 201.864197531 450.975308642 207 c 0
 450.975308642 207.641975309 451 208 451 208 c 1
 451 208 452.28 218.4 452.28 237.408 c 0
 452.28 265.92 449.4 313.8 435 375 c 0
 415.712891137 456.970212669 360.259838133 478.233304816 310.67987123 478.233304816 c 0
 298.564785022 478.233304816 286.800375522 476.96370464 276 475 c 0
 221.948840312 465.17251642 193.974127671 363.594571009 193.974127671 270.874240239 c 0
 193.974127671 269.246582514 193.982748358 267.621654352 194 266 c 0
 195 172 272 56 272 56 c 25
 272 56 335 152 362 155 c 0
 364.51306591 155.279229546 367.138753909 155.411184051 369.850454647 155.411184051 c 0
 396.27285646 155.411184051 430.861530303 142.883081818 449 132 c 0
 452.387580605 129.967451637 453.852981065 126.643886759 453.852981065 122.432632108 c 0
 453.852981065 101.780982275 418.612419395 59.7817984252 402 44 c 0
 382 25 310 10 310 10 c 17
 310 10 309.871581451 8.03091557669 309.871581451 4.71269834762 c 0
 309.871581451 -8.00713436385 311.75862069 -40.5517241379 330 -58 c 0
 353 -80 395 -82.9638671875 395 -97 c 3
 395 -109.196814754 374.212989518 -119.678096129 345.909947632 -119.678096129 c 0
 329.880493411 -119.678096129 311.440246705 -116.316189691 293 -108 c 0
 242 -85 241 -1 241 -1 c 17
 241 -1 184.87755102 -18.8571428571 139.32361516 -18.8571428571 c 0
 121.102040816 -18.8571428571 104.571428571 -16 94 -8 c 0
 75.2721660917 6.1724148495 70.1226984607 67.9972094642 70.1226984607 132.217681883 c 0xb0
 70.1226984607 194.875602936 75.0246306928 259.814041333 77 285 c 0
 78.6233096782 305.697198397 80.9054029343 362.627493577 80.9054029343 426.783145859 c 0
 80.9054029343 520.713539985 76.0135225741 630.132162915 57 664 c 0
 30.9204834996 710.454138766 9.4903696029 778.162689436 9.4903696029 817.866144665 c 0
 9.4903696029 826.879488588 10.5948035783 834.449546719 13 840 c 0
 22.2857142857 861.428571429 34.1224489796 864.489795918 40.1282798834 864.489795918 c 0
 42.5306122449 864.489795918 44 864 44 864 c 1
 44 864 78.56 862.72 111.84 862.72 c 0
 120.16 862.72 128.4 862.8 136 863 c 0
 174 864 272 875 272 875 c 25
 273 844 l 25xd0
EndSplineSet
Validated: 524289
EndChar
StartChar: i
Encoding: 56 105 11
Width: 286
VWidth: -36
Flags: W
HStem: 666 20G<54 110.5>
VStem: 38 126<188 450.834>
LayerCount: 2
Fore
SplineSet
214 861 m 25
 232 831 l 25
 204 812 l 25
 201 780 l 17
 201 780 177 746 148 746 c 0
 141 746 134 748 126 754 c 0
 116 761 115 773 115 780 c 0
 115 783 115 786 115 786 c 9
 132 836 l 25
 214 861 l 25
33 548 m 9
 33 548 15 537 10 552 c 0
 6 562 4 576 4 590 c 0
 4 634 25 686 83 686 c 0
 138 686 185 636 185 636 c 1
 157 522 l 1
 168 392 l 0
 164 188 l 1
 215 160 l 25
 243 96 l 25
 178 52 l 25
 189 38 l 25
 142 -20 l 25
 41 74 l 17
 41 74 27 76 27 103 c 0
 27 104 27 106 27 108 c 0
 29 140 38 147 38 147 c 17
 34 495 l 0
 33 548 l 9
EndSplineSet
Validated: 1
EndChar
StartChar: j
Encoding: 106 106 63
Width: 286
VWidth: 0
Flags: HW
LayerCount: 2
Fore
SplineSet
201 772 m 1049
214 853 m 25,1,-1
 132 828 l 25,2,-1
 115 778 l 25,3,4
 115 778 111 757 126 746 c 0,5,6
 163 718.866666667 201 772 201 772 c 25,7,-1
 204 804 l 25,8,-1
 232 823 l 25,9,-1
 214 853 l 25,1,-1
33 540 m 9,10,11
 33 540 15.4222254033 529.350785971 10 544 c 0,12,13
 -5.68306129548 586.370891002 5.87005494323 677.644475825 83 678 c 0,14,15
 138 678.253518002 185 628 185 628 c 1,16,-1
 157 514 l 1,17,-1
 168 384 l 0,0,0
 164 180 l 1,1,-1
 161 73 50.1390401369 -73.887450874 0 -144 c 1,6,-1
 26 -30 36.8794473523 228.868322344 33.6608478803 487 c 2,0,0
 33 540 l 9,10,11
EndSplineSet
Validated: 524329
EndChar
StartChar: k
Encoding: 58 107 86
Width: 710
VWidth: -36
Flags: HMW
LayerCount: 2
Fore
SplineSet
250 410 m 25
 334 178 l 1
 241 55 l 25
 177 291 l 1
 250 410 l 25
202 365 m 25
 202 365 269 335 294 346 c 0
 319 357 413 434 433 429 c 1
 433 429 487.51171875 327.180664062 507 296 c 0
 527 264 624.248046875 178.858398438 643 159 c 0
 657.125976562 144.040039062 685.91015625 86.0361328125 645 23 c 0
 632.827148438 4.2431640625 556 -63 556 -63 c 1
 457 24 539.137695312 21.32421875 428 139 c 0
 411 157 401 236 366 245 c 0
 331 254 331 259 301 237 c 0
 271 215 186 203 186 203 c 1
 202 365 l 25
220 670 m 1
 220 670 275 542 307 556 c 0
 339 570 433 630 450 631 c 0
 467 632 505 606 519 585 c 0
 533 564 566 509 566 509 c 1
 442 433 l 1
 405 484 l 1
 405 484 329 534 293 512 c 0
 257 490 235 512 235 512 c 1
 220 670 l 1
9 810 m 0
 11.984375 829.185546875 180 790 180 790 c 1
 180 790 229 842 258 842 c 0
 287 842 298 815 298 815 c 1
 281 759 266 693 258 599 c 1
 263.548828125 447.306640625 281.16015625 221.30859375 265 78 c 1
 302.630859375 58.51953125 311.67578125 -19.2822265625 288 -27 c 0
 254.860351562 -37.802734375 191 9 191 9 c 1
 191 9 115.102539062 -22.80078125 100 11 c 0
 79.6025390625 56.650390625 91 111 91 111 c 1
 120 202 l 0
 121 312 l 0
 108 701 l 1
 108.204101562 703.139648438 -5 720 9 810 c 0
EndSplineSet
Validated: 37
EndChar
StartChar: l
Encoding: 59 108 7
Width: 259
VWidth: -36
Flags: W
HStem: 820 20G<143.5 172.5>
VStem: 0 199<36.9767 123.988>
LayerCount: 2
Fore
SplineSet
15 815 m 0
 16 820 19 822 24 822 c 0
 38 822 63 806 63 806 c 9
 63 806 129 840 158 840 c 0
 187 840 216 820 216 820 c 17
 199 764 183 674 175 580 c 1
 147 413 154 292 138 149 c 1
 156 143 l 25
 166 148 l 25
 166 148 199 126 199 106 c 0
 199 86 166 -12 133 -12 c 0
 100 -12 0 8 0 58 c 0
 0 108 15 124 15 124 c 1
 8 226 l 0
 10 316 l 0
 41 693 l 0
 41 695 13 733 13 789 c 0
 13 797 14 806 15 815 c 0
EndSplineSet
Validated: 1
EndChar
StartChar: m
Encoding: 60 109 6
Width: 891
VWidth: -36
Flags: W
HStem: 671.56 20G<361.882 432.091>
VStem: -1.01953 163.2<21.42 127.589> 320.28 149.94<5.20813 149.257>
LayerCount: 2
Fore
SplineSet
497.760742188 508.979492188 m 25
 707.879882812 686.459960938 l 1
 810.9453125 641.462890625 l 1
 839.504882812 556.803710938 l 0
 818.084960938 453.783203125 l 0
 808.905273438 300.783203125 l 0
 808.905273438 187.563476562 l 0
 837.46484375 144.723632812 l 0
 836.4453125 99.84375 l 1
 836.4453125 99.84375 753.112304688 28.927734375 708.9453125 3.962890625 c 0
 685.485351562 -9.296875 636.525390625 -31.736328125 636.525390625 -31.736328125 c 1
 636.997070312 12.2021484375 641.67578125 68.66796875 640.60546875 111.063476562 c 1
 679.3203125 498.780273438 l 1
 679.3203125 498.780273438 675.314453125 542.639648438 612 542.639648438 c 3
 548.686523438 542.639648438 491.640625 484.5 491.640625 484.5 c 25
 497.760742188 508.979492188 l 25
175.440429688 514.080078125 m 25
 385.560546875 691.559570312 l 1
 501.83984375 641.580078125 l 1
 470.220703125 7.1396484375 l 1
 452.982421875 -1.7880859375 342.764648438 12.8544921875 320.280273438 0 c 1
 320.280273438 36.7197265625 l 1
 320.280273438 63.240234375 l 25
 357 503.879882812 l 1
 357 503.879882812 352.994140625 547.740234375 289.680664062 547.740234375 c 3
 226.365234375 547.740234375 169.3203125 489.599609375 169.3203125 489.599609375 c 25
 175.440429688 514.080078125 l 25
162.180664062 13.259765625 m 2
 164.220703125 -15.2998046875 131.580078125 21.419921875 88.740234375 21.419921875 c 3
 56.1005859375 21.419921875 2.943359375 -9.1796875 -1.01953125 60.1796875 c 0
 -1.7578125 73.0908203125 75.396484375 400.860351562 32.640625 528.360351562 c 1
 1 555.05570894 l 4
 0 555.899414062 l 1
 0 555.899414062 10.2431640625 608.939453125 35.7001953125 635.459960938 c 0
 60.177734375 660.959960938 106.080078125 675.240234375 117.299804688 675.240234375 c 3
 147.900390625 675.240234375 186.345703125 651.780273438 197.879882812 630.360351562 c 0
 197.879882812 630.360351562 162.962890625 339.595703125 155.040039062 151.979492188 c 0
 153.1015625 106.080078125 165.47265625 13.716796875 162.180664062 13.259765625 c 2
EndSplineSet
Validated: 37
EndChar
StartChar: n
Encoding: 61 110 1
Width: 545
VWidth: -36
Flags: W
HStem: 661 20G<93.5 128.568 364.322 434.531>
VStem: 17.9946 166.009<26.3026 40.9984 41 199.979> 58.2878 139.154<199.979 522.973> 342 152<96 239.218> 360 142<328.782 504>
LayerCount: 2
Fore
SplineSet
183 41 m 1xa8
 183 41 184.003269917 38.7928061831 184.003269917 35.5200705236 c 0
 184.003269917 26.1382282996 175.75862069 8 112 8 c 0
 30.9013671875 8 20 43 18 78 c 0
 17.9963987127 78.0629957969 17.994609987 78.1329842984 17.994609987 78.2099118892 c 0xc0
 17.994609987 89.7557655211 58.2877938928 257.612893365 58.2877938928 400.512939423 c 0
 58.2877938928 447.975743897 53.8427746968 492.685360441 42 528 c 1
 10 555 l 1
 10 555 6.42975206612 566.900826446 6.42975206612 583.237415477 c 0
 6.42975206612 596.851239669 8.90909090909 613.545454545 18 629 c 0
 38 663 88 681 99 681 c 0
 158.135742188 681 186 620 200 594 c 1
 200 594 199.249336646 568.702644983 198.015379015 527.527553148 c 1
 388 688 l 1
 502 639 l 1xa8
 494 96 l 1
 494 96 432 47 389 22 c 0
 366 9 324 -2 324 -2 c 1
 324 46 l 1
 342 64 l 1x90
 360 504 l 1
 360 504 356.072265625 547 294 547 c 0
 255.483128124 547 219.33215187 525.052670753 197.441485798 508.395376969 c 1
 194.01204005 394.170396515 187.800551747 189.131311052 183 41 c 1xa8
EndSplineSet
Validated: 8912897
EndChar
StartChar: o
Encoding: 62 111 0
Width: 598
VWidth: -36
Flags: W
HStem: -6.2207 102.824<199.16 350.85> 668 20G<207.016 225.94>
VStem: -0.613249 108.617<258.314 425.748> 429.227 137.163<236.725 414.007>
LayerCount: 2
Fore
SplineSet
225.940429688 688 m 1
 225.940429688 688 336.150390625 680.818359375 394.860351562 651.94921875 c 24
 454.600585938 622.108398438 481.672851562 583.770507812 524.640625 537.620117188 c 0
 555.288063059 504.702149761 566.389956638 460.056811169 566.389956638 412.644747211 c 0
 566.389956638 287.967946976 489.620117188 144.159179688 489.620117188 144.159179688 c 1
 347.48046875 8.19921875 l 25
 347.48046875 8.19921875 335.120117188 -6.220703125 244.48046875 -6.220703125 c 0
 153.83984375 -6.220703125 83.80078125 24.6796875 22 160.639648438 c 0
 5.44651358462 197.057423183 -0.613249214399 238.056997144 -0.613249214399 278.57096776 c 0
 -0.613249214399 389.309452874 44.66015625 496.419921875 44.66015625 496.419921875 c 9
 225.940429688 688 l 1
153.83984375 562.33984375 m 1
 153.83984375 562.33984375 108.003362431 507.90899389 108.003362431 408.149526058 c 0
 108.003362431 361.387121566 118.074921221 304.664750087 147.66015625 238.919921875 c 0
 200.330926061 121.874013347 276.943047737 96.6028666152 333.286467097 96.6028666152 c 0
 376.107081184 96.6028666152 407.220703125 111.19921875 407.220703125 111.19921875 c 1
 407.220703125 111.19921875 429.227002252 191.889825236 429.227002252 281.560220829 c 0
 429.227002252 349.492846162 416.596935731 422.579238293 372.200195312 469.639648438 c 0
 269.200195312 578.819335938 199.16015625 547.919921875 153.83984375 562.33984375 c 1
EndSplineSet
Validated: 1
EndChar
StartChar: p
Encoding: 63 112 4
Width: 619
VWidth: -36
Flags: W
HStem: 668 20G<348.433 375>
VStem: 38 140<173 311.009> 425 159<310.241 443.622>
LayerCount: 2
Fore
SplineSet
200 527 m 1
 187 414 l 0
 178 173 l 1
 267 137 l 0
 367 111 l 1
 401 126 l 17
 401 126 425 199 425 335 c 0
 425 337 425 340 425 343 c 0
 424 484 321 546 277 547 c 0
 276 547 275 547 274 547 c 0
 231 547 200 527 200 527 c 1
20 577 m 9
 38 577 l 25
 38 577 67 621 89 639 c 0
 109 655 127 672 153 672 c 0
 154 672 156 672 158 672 c 0
 186 669 194 665 194 665 c 25
 197 554 l 25
 375 688 l 25
 375 688 584 682 584 421 c 0
 584 161 252 3 252 3 c 25
 204 31 l 25
 182 10 l 25
 182 10 177 -7 176 -26 c 0
 176 -27 176 -28 176 -29 c 0
 176 -83 251 -123 251 -123 c 9
 251 -123 218 -161 111 -161 c 0
 4 -161 0 -144 0 -144 c 25
 0 -144 2 -107 9 -91 c 0
 16 -74 31 -54 31 -54 c 25
 50 90 l 17
 50 90 45 89 37 89 c 0
 25 89 9 91 6 101 c 0
 5 104 5 108 5 111 c 0
 5 140 38 155 38 155 c 9
 55 525 l 25
 55 525 39 525 27 544 c 0
 21 553 20 558 20 562 c 0
 20 565 20 568 20 571 c 0
 20 573 20 574 20 577 c 9
EndSplineSet
Validated: 1
EndChar
StartChar: q
Encoding: 113 113 52
Width: 625
VWidth: 0
Flags: W
HStem: 51 80<153.5 311.811>
VStem: 374 119<170.403 498.93>
LayerCount: 2
Fore
SplineSet
176 579 m 21
 207 573.1875 242 585.555555556 298 556 c 4
 334 537 364 499 364 499 c 29
 364 499 372 403 374 353 c 4
 376 303 351 167 351 167 c 5
 351 167 337 131 286 131 c 7
 283 131 206 163 180 201 c 28
 151 243 144.939123814 342.490867044 148 332 c 5
 176 579 l 21
0 336 m 31
 0 199 101 51 206 51 c 4
 311 51 353 144 353 144 c 29
 347 -142 l 29
 393 -194 l 29
 601 -95 l 29
 601 -25 l 29
 540 -79 l 29
 540 -79 532 -37 524 -24 c 4
 516 -11 499 14 499 14 c 29
 493 512 l 29
 522 559 l 29
 522 559 493 608 445 638 c 4
 397 668 308 688 308 688 c 29
 116 611 l 5
 116 611 0 452 0 336 c 31
EndSplineSet
Validated: 41
EndChar
StartChar: r
Encoding: 65 114 12
Width: 371
VWidth: -36
Flags: W
HStem: 535 3<194 206.392> 668 20G<66 72.5>
VStem: 0 162<551.012 628.872>
LayerCount: 2
Fore
SplineSet
168 538 m 1
 168 538 189 583 213 611 c 0
 237 639 258 667 273 667 c 0
 288 667 354 639 354 624 c 0
 354 618 353 583 346 558 c 24
 337 531 314 491 314 491 c 1
 314 491 267 506 254 523 c 0
 241 540 233 552 233 552 c 1
 233 552 219 535 207 535 c 0
 194 535 183 536 168 538 c 1
24 536 m 25
 7 551 l 17
 7 551 0 567 0 583 c 0
 0 588 1 593 3 598 c 0
 12 617 63 688 69 688 c 0
 76 688 162 615 162 600 c 0
 162 585 149 525 149 525 c 25
 204 5 l 25
 57 22 l 25
 24 536 l 25
EndSplineSet
Validated: 1
Substitution2: "'hist' Formas hist+APMA-ricas in Latin lookup 2-1" rotunda
EndChar
StartChar: s
Encoding: 66 115 8
Width: 553
VWidth: -36
Flags: W
HStem: 0 107.1<227.836 307.925>
LayerCount: 2
Fore
SplineSet
394.799804688 462 m 29
 262.5 344.400390625 l 21
 262.5 344.400390625 255.217773438 344.716796875 244 345.915039062 c 4
 214.361328125 349.081054688 157.251953125 358.401367188 134.400390625 384.299804688 c 4
 102.900390625 420 27.2998046875 455.700195312 121.799804688 550.200195312 c 4
 216.299804688 644.700195312 394.799804688 462 394.799804688 462 c 29
117.600585938 210.102539062 m 29
 233.100585938 317.151367188 l 29
 233.100585938 317.151367188 214.200195312 317.099609375 310.799804688 317.099609375 c 4
 407.400390625 317.099609375 411.600585938 147 411.600585938 147 c 29
 411.600585938 147 363.299804688 107.099609375 294 107.099609375 c 4
 224.700195312 107.099609375 117.600585938 210.102539062 117.600585938 210.102539062 c 29
4.2001953125 105 m 29
 4.2001953125 105 115.5 0 235.200195312 0 c 4
 354.900390625 0 520.799804688 205.799804688 520.799804688 296.099609375 c 4
 520.799804688 386.400390625 403.200195312 444.744140625 403.200195312 444.744140625 c 29
 533.400390625 537.599609375 l 29
 533.400390625 537.599609375 420 693 296.100585938 693 c 4
 282.548828125 693 268.418945312 690.487304688 254 685.870117188 c 4
 136.590820312 648.267578125 0 471.055664062 0 373.799804688 c 4
 0 264.599609375 117.600585938 210.102539062 117.600585938 210.102539062 c 29
 4.2001953125 105 l 29
EndSplineSet
Substitution2: "'salt' Alternativas estil+AO0A-sticas in Latin lookup 4-1" longs
Substitution2: "'hist' Formas hist+APMA-ricas in Latin lookup 2-1" longs
EndChar
StartChar: t
Encoding: 67 116 48
Width: 414
VWidth: -36
Flags: W
HStem: 646.277 21G<226.234 228.26>
LayerCount: 2
Fore
SplineSet
151.419921875 770.577148438 m 9
 0 573.95703125 l 25
 0 537.797851562 l 25
 47.4599609375 531.017578125 l 25
 47.4599609375 531.017578125 81.359375 454.177734375 79.099609375 377.337890625 c 0
 76.83984375 300.497070312 42.939453125 99.357421875 42.939453125 99.357421875 c 25
 151.419921875 -35.1123046875 l 25
 323.1796875 103.876953125 l 25
 309.619140625 126.477539062 l 25
 309.619140625 126.477539062 285.889648438 117.4375 262.159179688 116.307617188 c 0
 238.4296875 115.177734375 188.709960938 127.607421875 188.709960938 184.107421875 c 0
 188.709960938 240.607421875 193.229492188 534.407226562 222.609375 554.747070312 c 0
 251.989257812 575.087890625 293.799804688 490.337890625 332.219726562 491.467773438 c 0
 370.639648438 492.59765625 394.369140625 537.797851562 394.369140625 562.657226562 c 0
 394.369140625 587.517578125 359.33984375 680.177734375 311.879882812 677.916992188 c 0
 272.358398438 676.036132812 228.259765625 646.27734375 228.259765625 646.27734375 c 9
 219.219726562 735.547851562 l 17
 180.799804688 755.397460938 l 0
 169.5 761.236328125 l 0
 151.419921875 770.577148438 l 9
EndSplineSet
Validated: 41
EndChar
StartChar: u
Encoding: 68 117 24
Width: 524
VWidth: -36
Flags: W
HStem: 654 20G<52.5 90.5 324.492 384.492>
VStem: 11 144<267.997 612> 306 141<189 526.777>
LayerCount: 2
Fore
SplineSet
11 612 m 2
 11 612 23 674 82 674 c 0
 99 674 155 651 155 599 c 0
 155 598 155 597 155 595 c 2
 156 594 156 588 156 578 c 0
 156 501 132 195 130 194 c 1
 156 99 l 25
 213 139 l 25
 213 139 224 136 233 121 c 0
 235 118 236 113 236 109 c 0
 236 93 227 75 227 75 c 9
 92 7 l 25
 0 53 l 25
 11 612 l 2
264 614 m 9
 354 675 l 25
 447 614 l 25
 447 189 l 25
 506 123 l 25
 352 0 l 25
 284 0 l 25
 246 143 l 25
 297 185 l 25
 297 185 306 427 306 469 c 0
 306 510 266 541 264 568 c 0
 263 576 263 583 263 587 c 0
 263 597 264 602 264 614 c 9
EndSplineSet
Validated: 1
EndChar
StartChar: v
Encoding: 69 118 58
Width: 532
VWidth: -36
Flags: W
HStem: 587 20G<316.333 335>
LayerCount: 2
Fore
SplineSet
29 481 m 25
 29 481 25 549 57 559 c 0
 89 569 153 559 153 559 c 25
 195 457 l 25
 335 607 l 25
 335 607 401 573 433 537 c 0
 465 501 485 455 483 429 c 0
 481 403 357 129 357 129 c 25
 357 129 334 100.400390625 322 110 c 0
 311 118.799804688 318 159 318 159 c 25
 398 337 l 25
 398 337 400 350 400 365 c 0
 400 380 343 465 293 465 c 0
 243 465 227 402 225 371 c 0
 223 340 257 106 257 106 c 25
 257 106 281 103 285 96 c 0
 289 89 277 -49 194 -49 c 3
 146 -49 145 2 145 2 c 26
 82 393 l 25
 82 393 49 404 38 424 c 0
 27 444 33 459 29 481 c 25
EndSplineSet
EndChar
StartChar: w
Encoding: 70 119 60
Width: 797
VWidth: -36
Flags: W
HStem: 668.801 20G<302.633 321.3 580.883 599.55>
VStem: 667.8 87.2937<420.005 519.705>
LayerCount: 2
Fore
SplineSet
0 556.5 m 2
 0 556.5 -0.16802343859 559.356281258 -0.16802343859 564.010289859 c 0
 -0.16802343859 582.625242188 2.52003905887 630.000488281 29.3994140625 638.400390625 c 0
 40.599609375 641.900390625 55.5329861111 643.067057292 70.4662905093 643.067057292 c 0
 100.332899306 643.067057292 130.19921875 638.400390625 130.19921875 638.400390625 c 1
 174.299804688 531.30078125 l 1
 321.299804688 688.80078125 l 1
 321.299804688 688.80078125 363.188992673 667.221323713 397.622250281 639.853122003 c 0
 404.330374077 639.043967476 408.449218672 638.400390526 408.44921875 638.400390625 c 2
 413.44272172 626.273517339 l 2
 417.303042187 622.656729048 420.921046969 618.988748323 424.19921875 615.30078125 c 0
 443.157337538 593.972828739 458.104134383 569.302574266 467.153640644 546.947748346 c 1
 599.549804688 688.80078125 l 1
 599.549804688 688.80078125 668.849609375 653.100585938 702.44921875 615.30078125 c 0
 734.505997543 579.236788647 755.093479317 533.616381857 755.093479317 505.7932671 c 0
 755.093479317 504.453346965 755.045731935 503.154703083 754.94921875 501.900390625 c 0
 752.849609375 474.600585938 622.649414062 186.900390625 622.649414062 186.900390625 c 1
 622.649414062 186.900390625 604.942049284 164.881648786 591.941240667 164.881648786 c 0
 589.759430167 164.881648786 587.710174807 165.501783187 585.899414062 166.950195312 c 0
 580.817396873 171.015980943 579.394454748 181.464964695 579.394454748 191.892650187 c 0
 579.394454748 205.163768987 581.69921875 218.400390625 581.69921875 218.400390625 c 1
 665.69921875 405.30078125 l 1
 665.69921875 405.30078125 667.799804688 418.950195312 667.799804688 434.700195312 c 0
 667.799804688 450.450195312 607.94921875 539.700195312 555.44921875 539.700195312 c 0
 502.94921875 539.700195312 486.149414062 473.55078125 484.049804688 441 c 0
 483.989771999 440.069758455 483.960613492 438.965424105 483.960613492 437.697707539 c 0
 483.960613492 394.607131524 517.649414062 162.75 517.649414062 162.75 c 1
 517.649414062 162.75 542.849609375 159.600585938 547.049804688 152.25 c 0
 547.494069772 151.472613573 547.750370773 149.156334039 547.750370773 145.635403743 c 0
 547.750370773 115.86856183 529.431404209 1.42108547152e-14 451.5 0 c 0
 401.099609375 0 400.049804688 53.55078125 400.049804688 53.55078125 c 1
 369.533769598 242.942742922 l 1
 354.690935208 209.641313838 344.399414062 186.900390625 344.399414062 186.900390625 c 2
 344.399414062 186.900390625 326.692049284 164.881648786 313.691240667 164.881648786 c 0
 311.509430167 164.881648786 309.460174807 165.501783187 307.649414062 166.950195312 c 0
 302.567396873 171.015980943 301.144454748 181.464964695 301.144454748 191.892650187 c 0
 301.144454748 205.163768987 303.44921875 218.400390625 303.44921875 218.400390625 c 1
 355.005064233 333.112386574 l 1
 333.899414062 464.100585938 l 1
 333.899414062 464.100585938 299.25 475.650390625 287.69921875 496.650390625 c 0
 279.176977158 512.145637365 280.372964357 524.782518967 279.898596514 539.622715428 c 0
 278.996878534 539.674097418 278.096973937 539.700195312 277.19921875 539.700195312 c 0
 224.69921875 539.700195312 207.899414062 473.55078125 205.799804688 441 c 0
 205.739771999 440.069758455 205.710613492 438.965424105 205.710613492 437.697707539 c 0
 205.710613492 394.607131524 239.399414062 162.75 239.399414062 162.75 c 1
 239.399414062 162.75 264.599609375 159.600585938 268.799804688 152.25 c 0
 269.244069772 151.472613573 269.500370773 149.156334039 269.500370773 145.635403743 c 0
 269.500370773 115.86856183 251.181404209 1.42108547152e-14 173.25 0 c 0
 122.849609375 0 121.799804688 53.55078125 121.799804688 53.55078125 c 1
 55.6494140625 464.100585938 l 1
 55.6494140625 464.100585938 21 475.650390625 9.44921875 496.650390625 c 0
 -2.1005859375 517.650390625 4.19921875 533.400390625 0 556.5 c 2
EndSplineSet
Validated: 524289
EndChar
StartChar: x
Encoding: 71 120 62
Width: 494
VWidth: -36
Flags: W
HStem: 463.18 172.82<334.848 432.51> 607.44 20G<117.231 172.446>
LayerCount: 2
Fore
SplineSet
41 504 m 1x80
 131.969726562 627.440429688 l 1x40
 205.0703125 591.3203125 l 1
 208 536 l 1
 208 536 216.607421875 518 234 518 c 3
 241.82421875 518 284 530 284 530 c 1
 284 530 331 636 365.399414062 636 c 3
 450 636 460 577.51953125 460 550 c 3
 460 522.479492188 445.870117188 463.1796875 365.889648438 463.1796875 c 0
 285.91015625 463.1796875 252 486 252 486 c 25
 252 486 219.690429688 472.639648438 218.830078125 314.400390625 c 0
 218.322265625 221 265 184 265 184 c 1
 265 184 282.19921875 154.580078125 308 152 c 0
 318.400390625 150.959960938 347 177 376 168 c 0
 405 159 417.490234375 101.120117188 417.490234375 101.120117188 c 1
 293 -24 l 1
 293 -24 215.680664062 -12.66015625 183 14 c 0
 150.3203125 40.66015625 117.349609375 101.98046875 117.349609375 101.98046875 c 1
 117.349609375 101.98046875 79.509765625 64.1396484375 81.23046875 38.33984375 c 0
 82.9501953125 12.5400390625 87.25 -13.259765625 87.25 -13.259765625 c 1
 87.25 -13.259765625 101.9296875 -112.6796875 80 -122 c 24
 52.9296875 -133.6796875 3 -116.220703125 3 -50 c 0
 3 -12.8037109375 33.1103515625 62.3056640625 59.50390625 121 c 0
 61.814453125 126.137695312 64.0966796875 131.150390625 66.3271484375 136 c 0
 83.98046875 174.379882812 98.4296875 202.599609375 98.4296875 202.599609375 c 1
 112 402 l 1
 41 504 l 1x80
EndSplineSet
Validated: 33
EndChar
StartChar: y
Encoding: 121 121 27
Width: 527
VWidth: 0
Flags: W
HStem: -190 95<224.494 305.585> 710 20G<114.4 140.66>
VStem: 114 97<-83.7402 21.449>
LayerCount: 2
Fore
SplineSet
240 488 m 29
 240 488 228 418 236 386 c 0
 244 354 301 247 301 247 c 25
 301 247 392 398 393 428 c 0
 394 458 318 546 318 546 c 25
 240 488 l 29
0 580 m 25
 132 730 l 25
 216 536 l 25
 216 536 238 539 263 569 c 0
 288 599 287 660 287 660 c 25
 287 660 416 728 457 647 c 0
 575.950617284 412 282 177 282 177 c 25
 282 177 281 141 282 132 c 0
 283 123 212 1 211 -34 c 0
 210 -69 231 -94 265 -95 c 0
 299 -96 341 -30 369 -31 c 0
 397 -32 437 -86 437 -86 c 25
 437 -86 340 -187 266 -190 c 0
 192 -193 114 -145 114 -70 c 0
 114 5 208 181 208 181 c 25
 208 181 144 253 123 315 c 0
 102 377 125 395 109 451 c 0
 98.1428571429 489 43 530 0 580 c 25
EndSplineSet
Validated: 33
EndChar
StartChar: z
Encoding: 73 122 57
Width: 385
VWidth: -36
Flags: W
HStem: 668 20G<57.2727 68>
LayerCount: 2
Fore
SplineSet
9 578 m 25
 68 688 l 25
 68 688 109 671 177 663 c 0
 245 655 366 663 366 663 c 25
 145 463 l 25
 145 463 243.338867188 433.96875 281 412 c 0
 341 377 333 165 333 165 c 25
 82 -78 l 25
 82 -78 32 -76 16 -59 c 0
 0 -42 1 -4 1 -4 c 25
 1 -4 68 61 106 59 c 0
 144 57 176 45 176 45 c 25
 244 111 l 25
 244 111 230.32421875 262.211914062 208 296 c 0
 171 352 45 346 45 346 c 1
 44 405 l 25
 192 542 l 1
 192 542 119 536 89 546 c 0
 59 556 40 566 9 578 c 25
EndSplineSet
Validated: 33
EndChar
StartChar: exclamdown
Encoding: 74 161 118
Width: 304
VWidth: -36
Flags: W
VStem: 4.98677 253.042<102.934 186.051 619.934 703.789> 90 87<424.518 460>
LayerCount: 2
Fore
SplineSet
258 658 m 0x80
 258 657.112144607 258.028967882 656.249399959 258.028967882 655.41046531 c 0
 258.028967882 620.33950515 241.13559808 626.878613726 205 580 c 0
 168 532 153.029296875 509 136 509 c 0
 109 509 84 567 72 580 c 0
 60.1060941913 592.885064626 4.98677312585 624.435649477 4.98677312585 668.809492988 c 0
 4.98677312585 669.20530973 4.99115881739 669.602146783 5 670 c 0
 6 715 28 728 52 741 c 0
 76 754 102 769 102 769 c 25
 93 789 l 25
 93 789 99 792 113 805 c 0
 127 818 143 823 143 823 c 1
 143 823 159.952148438 816.97265625 172 796 c 0
 199 749 188 751 203 732 c 0
 225.69140625 703.2578125 257 704 258 658 c 0x80
258 141 m 0
 258 140.112144607 258.028967882 139.249399959 258.028967882 138.41046531 c 0
 258.028967882 103.33950515 241.13559808 109.878613726 205 63 c 0
 168 15 153.029296875 -8 136 -8 c 0
 109 -8 84 50 72 63 c 0
 60.1060941913 75.8850646261 4.98677312585 107.435649477 4.98677312585 151.809492988 c 0x80
 4.98677312585 152.20530973 4.99115881739 152.602146783 5 153 c 0
 5.84538130121 191.042158555 21.6988230358 206.214891687 41.0811280846 217.851584019 c 1
 90 460 l 1
 177 460 l 1x40
 207.30525431 209.981651945 l 1
 229.452641897 186.170497875 257.061923146 184.151535301 258 141 c 0
EndSplineSet
Validated: 524289
EndChar
StartChar: glyph138
Encoding: 138 162 138
Width: 374
VWidth: -36
Flags: W
HStem: -35 21G<241 241> 658 20G<145 165> 665 20G<221 221> 674 21G<145 165>
VStem: 2 129<212.053 465.952> 166 87<100 484.834>
LayerCount: 2
Fore
SplineSet
211 720 m 4x9c
 226.987304688 720.639648438 274 670 274 670 c 5
 246 556 l 5
 257 426 l 4
 253 134 l 5
 260 100 258.793945312 21.8583984375 267 -16 c 13
 278 -30 l 29
 231 -88 l 29
 169 6 l 5
 164.728515625 14.84765625 166.03125 89.5732421875 166 93 c 6
 162 529 l 6
 161.740234375 557.279296875 165 678 165 678 c 5xcc
 145 674 l 5
 145 674 177.025390625 705 177.025390625 705 c 5
 177.025390625 705 196.021484375 719.400390625 211 720 c 4x9c
221 685 m 1xac
 221 685 267 664 297 653 c 0
 325 644 371 636 371 636 c 2
 371 636 371 636 370 629 c 0
 366 608 359 567 355 542 c 0
 349 507 330 490 330 490 c 1
 330 490 281 501 217 526 c 0
 154 551 153 559 153 559 c 1
 153 559 132 454 131 339 c 0
 131 337 131 336 131 334 c 0
 131 180 199 152 237 148 c 0
 254 146 267 145 276 145 c 0
 296 145 300 149 300 152 c 1
 324 112 l 1
 324 112 311 69 291 24 c 0
 272 -22 241 -35 241 -35 c 1
 241 -35 67 58 27 121 c 0
 7 153 2 244 2 324 c 0
 2 400 6 466 6 466 c 1
 6 466 90 538 133 574 c 0
 176 610 221 685 221 685 c 1xac
EndSplineSet
EndChar
StartChar: macron
Encoding: 175 175 54
Width: 548
VWidth: 0
Flags: W
HStem: 721 159<202.753 367>
VStem: 128 325
LayerCount: 2
Fore
SplineSet
128 763 m 1
 128 763 172 880 269 880 c 4
 366 880 453 810 453 810 c 1
 453 810 399 721 274 721 c 0
 149 721 128 763 128 763 c 1
EndSplineSet
Validated: 1
EndChar
StartChar: paragraph
Encoding: 75 182 15
Width: 848
VWidth: -36
Flags: W
HStem: -106 75<391.209 480 550 656.689> 687 72<348.519 435 518 678.296>
VStem: 435 83<572.631 684>
LayerCount: 2
Fore
SplineSet
735 679 m 1
 698 652 l 1
 698 652 665 681 630 681 c 0
 616 681 570 682 518 684 c 1
 550 -30 l 1
 671 -26 658 2 681 3 c 0
 687 3 693 4 698 4 c 0
 708 4 716 1 722 -14 c 0
 723 -17 724 -22 724 -27 c 0
 724 -56 691 -106 490 -106 c 0
 479 -106 468 -106 458 -106 c 0
 216 -106 18 -96 -1 363 c 0
 -1 372 -2 381 -2 390 c 0
 -2 704 235 739 376 753 c 0
 413 757 450 759 489 759 c 0
 543 759 601 754 665 741 c 0
 699 734 718 703 735 679 c 1
435 687 m 1
 384 689 344 690 344 690 c 1
 384 -22 l 1
 384 -22 383 -22 383 -23 c 0
 383 -25 394 -30 480 -31 c 1
 435 687 l 1
EndSplineSet
Validated: 1
EndChar
StartChar: questiondown
Encoding: 76 191 120
Width: 560
VWidth: -36
Flags: W
HStem: -8 110<215.805 347.811>
VStem: 10 132<174.558 287.237>
LayerCount: 2
Fore
SplineSet
514 236 m 1
 538 208 l 25
 410 48 l 26
 410 48 342.453125 -8 232 -8 c 3
 121.546875 -8 10 159.97265625 10 234 c 3
 10 308.02734375 150 372 182 412 c 2
 218 449 258 506 258 506 c 25
 298 486 l 25
 210 376 l 25
 210 376 142 282.344726562 142 230 c 3
 142 177.655273438 221.954101562 102 266 102 c 3
 310.045898438 102 426 148 514 236 c 1
398 673 m 0
 398.019301204 672.112144607 398.028967882 671.249399959 398.028967882 670.41046531 c 0
 398.028967882 635.33950515 381.13559808 641.878613726 345 595 c 0
 308 547 293.029296875 524 276 524 c 0
 249 524 224 582 212 595 c 0
 200.106094191 607.885064626 144.986773126 639.435649477 144.986773126 683.809492988 c 0
 144.986773126 684.20530973 144.991158817 684.602146783 145 685 c 0
 146 730 168 743 192 756 c 0
 216 769 242 784 242 784 c 25
 233 804 l 25
 233 804 239 807 253 820 c 0
 267 833 283 838 283 838 c 1
 283 838 299.952148438 831.97265625 312 811 c 0
 339 764 328 766 343 747 c 0
 365.69140625 718.2578125 397 719 398 673 c 0
EndSplineSet
Validated: 1
EndChar
StartChar: Ntilde
Encoding: 77 209 98
Width: 1032
VWidth: -36
Flags: W
HStem: 567 194<34.1723 105.785> 596 180<272.703 333.699> 724 134<660.695 778.458> 783 58<190.176 275.29> 815 62<103.098 202.945>
VStem: 152 120<517 573.849> 384 123<257.913 390 417 678.415>
LayerCount: 2
Fore
SplineSet
-1 671 m 0x86
 -1 717 50 761 74 761 c 0x86
 98 761 120 705 173 705 c 0
 226 705 246 776 290 776 c 0
 334 776 367 717 367 671 c 0
 367 625 338 592 338 592 c 1
 272 596 l 1x46
 272 517 l 1
 294 486 l 1
 279 26 l 1
 279 26 250 -35 199 -35 c 0
 149 -35 129 35 129 35 c 1
 129 35 152 397 152 528 c 0
 152 554 151 571 149 574 c 0
 145 578 140 580 133 580 c 0
 115 580 85 567 55 567 c 0
 53 567 51 567 50 567 c 0
 8 570 -1 626 -1 671 c 0x86
378 787 m 1
 518 853 l 1
 574 792 l 1
 624 822 697 858 749 858 c 0x26
 837 858 930 761 930 761 c 1
 930 761 875 444 875 398 c 0
 875 352 879 152 879 152 c 1
 967 176 l 1
 978 147 l 1
 754 -35 l 1
 688 -5 l 1
 721 105 l 1
 751 439 l 1
 669 318 l 1
 669 318 609 323 591 346 c 0
 573 369 545 411 545 411 c 1
 507 390 l 1
 512 37 l 1
 512 37 496 9 483 -16 c 0
 476 -28 464 -31 454 -31 c 0
 444 -31 437 -29 437 -29 c 1
 347 -7 l 1
 347 -7 375 400 382 473 c 0
 384 490 384 515 384 545 c 0
 384 644 378 787 378 787 c 1
59 798 m 1
 59 798 102 877 146 877 c 0x0e
 190 877 207 841 236 841 c 0
 276 841 330 873 330 873 c 1
 330 873 272 783 240 783 c 0x16
 208 783 180 815 158 815 c 0x0e
 119 815 59 798 59 798 c 1
507 417 m 1
 601 490 l 0
 601 489 603 479 642 467 c 0
 649 465 658 464 669 464 c 0
 696 464 731 471 754 477 c 1
 774 693 l 1
 774 693 779 697 779 702 c 0
 779 712 764 724 686 724 c 0x26
 593 724 530 682 504 661 c 1
 507 417 l 1
EndSplineSet
Validated: 1
EndChar
StartChar: ssharp
Encoding: 78 223 47
Width: 749
VWidth: -36
Flags: W
HStem: 740 96<159.267 402.118>
VStem: 37 124<267.174 463.952> 308.543 127.457<573.157 712> 502.874 182.361<757.211 844.227>
LayerCount: 2
Fore
SplineSet
569 888 m 3
 658.147672558 888 685.235112086 814.247259298 685.235112086 791.279042559 c 0
 685.235112086 790.028877466 685.154861514 788.929169085 685 788 c 0
 674.786132812 726.716796875 603 668 603 668 c 1
 603 668 506 750 503 812 c 0
 502.91555305 813.744917089 502.873907568 815.463490237 502.873907568 817.155325734 c 0
 502.873907568 861.949326113 532.067754526 888 569 888 c 3
37 448 m 25
 5 478 -40 476 -44 524 c 0
 -44.1081081081 525.297297297 -44.1607012418 526.566837107 -44.1607012418 527.809172211 c 0
 -44.1607012418 572.533235939 24 582 24 582 c 9
 24 582 153.534179688 836 364 836 c 3
 440.236328125 836 472 736 472 736 c 25
 436 712 l 25
 410 104 l 25
 430 48 l 25
 378 0 l 25
 294 0 l 25
 260 68 l 25
 296 106 l 25
 306 436 l 17
 306 436 226.963563355 507.230368828 226.963563355 536.919605418 c 0
 226.963563355 537.286139203 226.975609756 537.646341463 227 538 c 0
 229 567 296 566 304 573 c 0
 307.555555556 576.111111111 308.543209877 594.432098765 308.543209877 616.286694102 c 0
 308.543209877 643.604938272 307 676.444444444 307 692 c 0
 307 720 237 740 201 740 c 0
 165 740 161 620 161 556 c 0
 161 492 149 104 149 104 c 25
 171 66 l 25
 95 -14 l 25
 0 84 l 25
 47 174 l 25
 37 448 l 25
EndSplineSet
Validated: 524289
EndChar
StartChar: ae
Encoding: 129 230 128
Width: 766
VWidth: -36
Flags: W
HStem: 8 112.286<528.275 618.929> 668.32 20G<298.681 308.921 583.5 617.259>
VStem: 16.3193 38.4911<336.307 466.819> 306 149.444<176.083 366.581> 311.1 145.23<414.64 503.341>
LayerCount: 2
Fore
SplineSet
117.299804688 231.040039062 m 1xf0
 133.620117188 209.620117188 l 1
 132.599609375 189.219726562 l 1
 132.599609375 189.219726562 241.739257812 127 255 124.959960938 c 0
 255.26520293 124.919158985 255.541422508 124.899166039 255.828111969 124.899166039 c 0
 266.005464679 124.899166039 289.377167623 150.094665662 301.482419218 163.977271891 c 1
 306 366.700195312 l 1
 163.19921875 246.33984375 l 1
 163.19921875 246.33984375 16.3193359375 287.1171875 16.3193359375 377.919921875 c 0
 16.3193359375 485.01953125 85.6796875 530.919921875 85.6796875 530.919921875 c 1
 293.759765625 688 l 1
 293.759765625 688 296.349486585 688.319698646 301.011626135 688.319698646 c 0
 316.830653771 688.319698646 356.509465589 684.639003665 399.83984375 652.299804688 c 0
 430.190116079 629.647784945 445.613565853 600.755842885 453.378046602 579.00564321 c 1
 546 651 l 1
 546 651 573 679 594 679 c 1
 707.97739372 580.991749862 l 2
 707.97739372 580.637217923 739.005978364 568.870715387 739.005978364 548.490334547 c 0
 739.005978364 548.32743951 739.003996138 548.163994184 739 548 c 0
 738.1953125 515 721 505 721 505 c 1
 721 505 576 429 484 372 c 0
 474.583410309 366.1657016 464.534871247 358.000562814 455.637666294 350.056990299 c 1
 455.444320798 343 l 1
 451.177040159 187.246912233 l 2
 454.760931235 184.181660518 459.740932211 180.410649117 466.659392779 175.870486508 c 1
 468.1796875 175.959960938 l 1
 468.255931189 174.831460898 l 1
 480.539075773 166.902620065 498.561200923 156.729792148 525 144 c 0
 563.613713136 125.408293393 590.333144 120.286247215 608.054831203 120.286247215 c 0
 629.802673751 120.286247215 638 128 638 128 c 1
 672 171 l 1
 710 188 l 1
 700 140 l 1
 700 140 633 8 542 8 c 0
 480.969794549 8 434.702514097 23.7471199996 400.350219621 44.1948086328 c 1
 380.850475974 29.9450565498 360.991719103 16.2584526085 345.779296875 7.66015625 c 0
 333.579901571 0.764448435346 321.104815272 -0.890489751551 311.939594779 -0.890489751551 c 0
 303.479702765 -0.890489751551 297.83984375 0.51953125 297.83984375 0.51953125 c 1
 300.7704222 132.026959547 l 1
 286.670179363 119.711408092 264.132716577 100.001207664 235.620117188 74.9794921875 c 0
 185.639648438 31.1201171875 150.959960938 9.7001953125 150.959960938 9.7001953125 c 1
 44.8798828125 82.1201171875 l 1
 0 87.2197265625 l 1
 24.4794921875 163.719726562 l 1
 24.4794921875 163.719726562 52.01953125 166.779296875 73.439453125 179.01953125 c 0
 94.859375 191.259765625 117.299804688 231.040039062 117.299804688 231.040039062 c 1xf0
147.899414062 541.120117188 m 0
 91.518510051 489.249313222 54.8104447152 472.323963315 54.8104447152 400.216197065 c 0
 54.8104447152 396.661701545 54.8996423532 392.973117203 55.080078125 389.139648438 c 0
 59.1591796875 302.439453125 157.080078125 285.099609375 157.080078125 285.099609375 c 1
 240.719726562 355.446289062 l 1
 311.099609375 414.639648438 l 1
 311.099609375 508.479492188 l 2xe8
 311.099609375 531.939453125 278.459960938 554.379882812 234.599609375 554.379882812 c 0
 227.906914271 554.379882812 220.174718311 554.551360336 212.075244156 554.551360336 c 0
 188.080882477 554.551360336 160.863226943 553.046445382 147.899414062 541.120117188 c 0
585 463 m 2
 590 467 593 470 589 479 c 1
 590 489 584 490 584 490 c 1
 584 490 567 509 545 520 c 0
 529 528 502 534 502 534 c 1
 502 534 489 542 476 532 c 0
 463 522 466 514 466 514 c 1
 459.29569525 483.572770749 l 1
 456.329416874 375.305455966 l 1
 460.66360802 375.876841467 464 378 464 378 c 1
 585 463 l 2
EndSplineSet
Validated: 8912897
LCarets2: 1 0
Ligature2: "'liga' Ligaduras est+AOEA-ndar in Latin lookup 1-1" a e
EndChar
StartChar: ccedilla
Encoding: 80 231 53
Width: 377
VWidth: -36
Flags: W
HStem: -56 20<142 160>
VStem: 142 18<-56 -36>
LayerCount: 2
Fore
SplineSet
160 -56 m 1
 142 -56 l 1
 142 57 l 1
 160 57 l 1
 160 -56 l 1
59 -104 m 3
 59 -62 107 -36 143 -36 c 3
 186 -36 286 -99 286 -169 c 0
 286 -239 256 -307 188 -307 c 0
 120 -307 32 -245 32 -245 c 25
 32 -245 99 -250 122 -227 c 0
 145 -204 146 -154 146 -154 c 25
 146 -154 59 -153.009765625 59 -104 c 3
221.041015625 669.486328125 m 1
 221.041015625 669.486328125 175.985351562 594.787109375 133.018554688 559.083007812 c 0
 90.05078125 523.377929688 6 450.766601562 6 450.766601562 c 25
 6 450.766601562 -12.6416015625 168.166992188 27.0439453125 105.67578125 c 0
 66.7294921875 43.185546875 240.88671875 -50.5322265625 240.88671875 -50.5322265625 c 25
 240.88671875 -50.5322265625 271.504882812 -36.6572265625 291.3359375 8.517578125 c 0
 311.166015625 53.6923828125 323.721679688 96.615234375 323.721679688 96.615234375 c 25
 298.95703125 138.432617188 l 25
 298.95703125 138.432617188 312.62109375 124.930664062 237.037109375 132.875 c 0
 198.250976562 136.951171875 130.079101562 165.232421875 131.432617188 323.959960938 c 0
 132.409179688 438.485351562 152.543945312 543.958984375 152.543945312 543.958984375 c 25
 152.543945312 543.958984375 153.697265625 535.793945312 217.454101562 510.993164062 c 0
 281.2109375 486.193359375 330.309570312 474.999023438 330.309570312 474.999023438 c 25
 330.309570312 474.999023438 349.203125 492.118164062 354.850585938 526.717773438 c 0
 358.99609375 552.118164062 366.439453125 593.426757812 370.10546875 613.598632812 c 0
 371.432617188 620.904296875 370.748046875 620.5703125 370.748046875 620.5703125 c 1
 370.696289062 620.575195312 325.41796875 629.356445312 297.204101562 638.354492188 c 24
 267.10546875 648.556640625 221.041015625 669.486328125 221.041015625 669.486328125 c 1
EndSplineSet
EndChar
StartChar: ntilde
Encoding: 83 241 74
Width: 525
VWidth: -36
Flags: W
HStem: 507 37<195.236 261> 700.678 134.322<211.222 390.56>
VStem: 17.9946 165.041<9.30256 23.9984 24 184.779> 58.2878 99.7101<163.131 466.25> 306.555 187.445<79 146.006> 328.634 93.5762<151.966 487.186>
LayerCount: 2
Fore
SplineSet
70 772 m 1xc0
 202 856 l 1
 202 856 249 835 316 835 c 0
 383 835 450 862 450 862 c 25
 485 835 l 25
 485 835 470 774 403 730 c 0
 369.110424181 707.744327436 341.878034785 700.678341094 318.823609568 700.678341094 c 0
 279.972488787 700.678341094 252.986244393 720.744825842 226 722 c 0
 223.952380952 722.095238095 222.068027211 722.140589569 220.328474247 722.140589569 c 0
 185.537414966 722.140589569 208.666666667 704 142 704 c 0
 72 704 70 772 70 772 c 1xc0
183 24 m 2
 183 24 184.003269917 21.7928061831 184.003269917 18.5200705236 c 0
 184.003269917 9.13822829964 175.75862069 -9 112 -9 c 0
 30.9013671875 -9 20 26 18 61 c 0
 17.9963987127 61.0629957969 17.994609987 61.1329842984 17.994609987 61.2099118892 c 0xe0
 17.994609987 72.7557655211 58.2877938928 240.612893365 58.2877938928 383.512939423 c 0
 58.2877938928 430.975743897 53.8427746968 475.685360441 42 511 c 1
 15 525 l 1
 15 525 41 571 61 605 c 0
 81 639 117 642 128 642 c 0
 187.135742188 642 167 598 181 572 c 1
 181 572 179.580919713 561.122093905 177.447692488 543.039628649 c 1
 261 544 l 1
 336 630 l 1
 336 630 337.465960557 630.062747409 340.001746392 630.062747409 c 0
 355.55872659 630.062747409 411.381690176 627.701066325 416 594 c 0
 421.313922077 555.222915692 422.210305888 484.205528816 422.210305888 410.068930218 c 0xd4
 422.210305888 372.322874137 421.977940278 333.768238599 421.977940278 298.248501714 c 0
 421.977940278 214.732820868 423.262541777 147.995162217 431.872576056 147.995162217 c 0
 431.914873676 147.995162217 431.957348085 147.996772837 432 148 c 2
 492 157 l 1
 494 79 l 1
 494 79 432.30078125 29.474609375 389 5 c 0
 366 -8 309 -14 309 -14 c 1
 307.27745747 7.8442753976 306.5551029 31.773972832 306.5551029 56.6392170608 c 0xc8
 306.5551029 180.890706378 324.592263511 328.502756398 326 356 c 0
 326.817212627 371.962571722 328.634093608 389.06625059 328.634093608 407.23963642 c 0
 328.634093608 426.636746299 326.564291443 447.252473031 319 469 c 0
 311 492 281 507 256 507 c 0
 216.836750556 507 186.488631381 485.106009141 169.421998647 468.945175125 c 1
 163.773055432 411.654308002 158.148716333 340.870986826 158 285 c 0
 157.99858146 284.46755795 157.997875936 283.934581458 157.997875936 283.401085443 c 0xd4
 157.997875936 182.899809575 183.035492854 63.9617345553 183.035492854 26.3224844304 c 0xe0
 183.035492854 25.510117728 183 24.7356220081 183 24 c 2
EndSplineSet
Validated: 524289
EndChar
StartChar: dotlessi
Encoding: 90 305 106
Width: 286
VWidth: -36
Flags: W
VStem: 33.6611 130.339<144 406.834>
LayerCount: 2
Fore
SplineSet
33 504 m 9
 33 504 15.421875 493.350585938 10 508 c 0
 6.15009081423 518.401635205 3.94151527771 531.750361514 3.94151527771 545.977628563 c 0
 3.94151527771 589.705178623 24.8046509319 641.731794899 83 642 c 0
 83.1385927505 642.00063981 83.2771347032 642.000958909 83.4156252339 642.000958909 c 0
 138.236569172 642.000958909 185 592 185 592 c 1
 157 478 l 1
 168 348 l 0
 164 144 l 1
 215 116 l 25
 243 52 l 25
 178 8 l 25
 189 -6 l 25
 142 -64 l 25
 41 30 l 17
 41 30 26.8269896194 31.7716262976 26.8269896194 58.6586606961 c 0
 26.8269896194 60.339100346 26.8823529412 62.1176470588 27 64 c 0
 29 96 38 103 38 103 c 17
 33.6611328125 451 l 0
 33 504 l 9
EndSplineSet
Validated: 1
EndChar
StartChar: oe
Encoding: 130 339 130
Width: 874
VWidth: 0
Flags: W
HStem: 668 20G<207.016 225.94 700.5 734.265>
LayerCount: 2
Fore
SplineSet
225.940429688 688 m 1
 225.940429688 688 336.150390625 680.818359375 394.860351562 651.94921875 c 24
 454.600585938 622.108398438 481.672851562 583.770507812 524.640625 537.620117188 c 0
 635.879882812 418.139648438 489.620117188 144.159179688 489.620117188 144.159179688 c 1
 347.48046875 8.19921875 l 25
 347.48046875 8.19921875 335.120117188 -6.220703125 244.48046875 -6.220703125 c 0
 153.83984375 -6.220703125 83.80078125 24.6796875 22 160.639648438 c 0
 -39.7998046875 296.599609375 44.66015625 496.419921875 44.66015625 496.419921875 c 25
 225.940429688 688 l 1
153.83984375 562.33984375 m 9
 153.83984375 562.33984375 54.9599609375 444.919921875 147.66015625 238.919921875 c 0
 240.360351562 32.919921875 407.220703125 111.19921875 407.220703125 111.19921875 c 25
 407.220703125 111.19921875 475.200195312 360.459960938 372.200195312 469.639648438 c 0
 269.200195312 578.819335938 199.16015625 547.919921875 153.83984375 562.33984375 c 9
702 463 m 26
 707 467 710 470 706 479 c 2
 707 489 701 490 701 490 c 2
 701 490 684 509 662 520 c 0
 646 528 619 534 619 534 c 1
 619 534 606 542 593 532 c 0
 569.602819085 514.002168527 555.907226562 500.303710938 530 481 c 29
 530 481 554 387 562 379 c 0
 570 371 581 378 581 378 c 2
 702 463 l 26
711 679 m 0
 825 581 l 0
 824 581 856.51171875 569 856 548 c 0
 855.1953125 515 838 505 838 505 c 1
 838 505 693 429 601 372 c 0
 575.768554688 356.3671875 546 324 546 324 c 1
 559 198 l 1
 559 198 561 183 642 144 c 0
 728 102.592773438 755 128 755 128 c 1
 789 171 l 25
 827 188 l 1
 817 140 l 25
 817 140 750 8 659 8 c 0
 485 8 431 136 431 136 c 25
 434 473 l 25
 663 651 l 1
 663 651 690 679 711 679 c 0
EndSplineSet
Ligature2: "'liga' Ligaduras est+AOEA-ndar in Latin lookup 1-1" o e
EndChar
StartChar: longs
Encoding: 93 383 20
Width: 406
VWidth: -36
Flags: W
VStem: 24 137<5.95374 245.524> 37 140<372.973 464 510 697.383>
LayerCount: 2
Fore
SplineSet
11 3 m 25x80
 16 66 24 130 24 165 c 0x80
 24 200 31 666 37 678 c 0
 43 690 166 781 184 790 c 0
 202 799 252 802 279 802 c 0
 290.117647059 802 305.982698962 803.186851211 321.847750865 803.186851211 c 0
 344.512110727 803.186851211 367.176470588 800.764705882 376 789 c 0
 380.591836735 782.87755102 382.184922949 776.661391087 382.184922949 770.982634787 c 0
 382.184922949 758.110787172 374 748 374 748 c 9
 277 662 l 25
 194 721 l 25
 179 699 l 25
 177 510 l 25x40
 177 510 198 502 197 487 c 0
 196 472 174 464 174 464 c 25
 161 -23 l 25
 161 -23 123 -26 96 -26 c 0
 69 -26 11 3 11 3 c 25x80
EndSplineSet
Validated: 524289
EndChar
StartChar: acutecomb
Encoding: 769 769 101
Width: 0
VWidth: 0
LayerCount: 2
Fore
SplineSet
146 733 m 1
 160 711 l 1
 278 804 l 5
 267 821 l 5
 146 733 l 1
EndSplineSet
EndChar
StartChar: uni0304
Encoding: 772 772 100
Width: 548
VWidth: -36
Flags: W
HStem: 685 159<202.753 367>
VStem: 128 325
LayerCount: 2
Fore
SplineSet
128 727 m 1
 128 727 172 844 269 844 c 0
 366 844 453 774 453 774 c 1
 453 774 399 685 274 685 c 0
 149 685 128 727 128 727 c 1
EndSplineSet
EndChar
StartChar: uni0308
Encoding: 776 776 112
Width: 0
VWidth: 0
HStem: 642.5 223.801
LayerCount: 2
Fore
SplineSet
250 758 m 4
 249.421875 784.603515625 261.200195312 779 287.099609375 812.600585938 c 4
 313 846.200195312 323.479492188 862.30078125 335.399414062 862.30078125 c 4
 354.299804688 862.30078125 371.799804688 821.700195312 380.200195312 812.600585938 c 4
 388.599609375 803.5 427.799804688 781.100585938 427.099609375 749.600585938 c 4
 426.399414062 718.100585938 411 709 394.200195312 699.900390625 c 4
 377.399414062 690.80078125 359.200195312 680.30078125 359.200195312 680.30078125 c 29
 365.5 666.30078125 l 29
 365.5 666.30078125 361.299804688 664.200195312 351.5 655.100585938 c 4
 341.700195312 646 330.5 642.5 330.5 642.5 c 5
 330.5 642.5 318.633789062 646.719726562 310.200195312 661.400390625 c 4
 291.299804688 694.30078125 299 692.900390625 288.5 706.200195312 c 4
 272.616210938 726.3203125 250.700195312 725.80078125 250 758 c 4
26 762 m 0
 25.421875 788.603515625 37.2001953125 783 63.099609375 816.600585938 c 0
 89 850.200195312 99.4794921875 866.30078125 111.399414062 866.30078125 c 0
 130.299804688 866.30078125 147.799804688 825.700195312 156.200195312 816.600585938 c 0
 164.599609375 807.5 203.799804688 785.100585938 203.099609375 753.600585938 c 0
 202.399414062 722.100585938 187 713 170.200195312 703.900390625 c 0
 153.399414062 694.80078125 135.200195312 684.30078125 135.200195312 684.30078125 c 25
 141.5 670.30078125 l 25
 141.5 670.30078125 137.299804688 668.200195312 127.5 659.100585938 c 0
 117.700195312 650 106.5 646.5 106.5 646.5 c 1
 106.5 646.5 94.6337890625 650.719726562 86.2001953125 665.400390625 c 0
 67.2998046875 698.30078125 75 696.900390625 64.5 710.200195312 c 0
 48.6162109375 730.3203125 26.7001953125 729.80078125 26 762 c 0
EndSplineSet
EndChar
StartChar: euro
Encoding: 135 8364 135
Width: 571
VWidth: -36
Flags: W
HStem: 8 112<345.275 433> 144 114<191 289> 287 114<192 290> 659 20G<397.5 431.265>
LayerCount: 2
Fore
SplineSet
-2 215 m 1
 97 274 l 1
 97 274 174 258 241 258 c 0
 308 258 375 285 375 285 c 25
 410 258 l 25
 410 258 398.296875 216.544921875 331 173 c 0
 297 151 270 144 247 144 c 0
 208 144 181 164 154 165 c 0
 152 165 150 165 148 165 c 0
 114 165 137 147 70 147 c 0
 0 147 -2 215 -2 215 c 1
-1 358 m 1
 98 417 l 1
 98 417 175 401 242 401 c 0
 309 401 376 428 376 428 c 25
 411 401 l 25
 411 401 399.296875 359.544921875 332 316 c 0
 298 294 271 287 248 287 c 0
 209 287 182 307 155 308 c 0
 153 308 151 308 149 308 c 0
 115 308 138 290 71 290 c 0
 1 290 -1 358 -1 358 c 1
399 463 m 26
 404 467 407 470 403 479 c 2
 404 489 398 490 398 490 c 2
 398 490 381 509 359 520 c 0
 343 528 316 534 316 534 c 1
 316 534 303 542 290 532 c 0
 277 522 280 514 280 514 c 26
 254 396 l 26
 254 396 251 387 259 379 c 0
 267 371 278 378 278 378 c 2
 399 463 l 26
408 679 m 0
 522 581 l 0
 522 581 553 569 553 548 c 0
 552 515 535 505 535 505 c 1
 535 505 390 429 298 372 c 0
 273 356 243 324 243 324 c 1
 256 198 l 1
 256 198 258 183 339 144 c 0
 378 125 404 120 422 120 c 0
 444 120 452 128 452 128 c 1
 486 171 l 25
 524 188 l 1
 514 140 l 25
 514 140 447 8 356 8 c 0
 182 8 128 136 128 136 c 25
 131 473 l 25
 360 651 l 1
 360 651 387 679 408 679 c 0
EndSplineSet
EndChar
StartChar: response
Encoding: 131 8479 131
Width: 987
VWidth: -36
Flags: W
HStem: 124 20<814 838>
VStem: 244 144<-12 144.864> 488 124<-31.2339 88.3893>
LayerCount: 2
Fore
SplineSet
702 479 m 25
 702 479 726 520 744 540 c 0
 762 560 797 597 822 596 c 0
 847 595 881 587 907 548 c 0
 933 509 968 480 952 435 c 0
 936 390 760 243 681 211 c 0
 602 179 610 153 600 126 c 0
 590 99 606 37 612 5 c 0
 618 -27 584 -51 557 -53 c 0
 530 -55 485 -23 488 25 c 0
 491 73 577 220 644 266 c 0
 711 312 734 297 746 309 c 0
 758 321 781 390 776 410 c 0
 771 430 731 452 702 479 c 25
419 783 m 9
 404 505 l 25
 404 505 616.483398438 574.053710938 620 652 c 0
 626 785 419 783 419 783 c 9
141 673 m 25
 186 646 l 25
 184 608 l 25
 258 641 l 25
 264 670 l 25
 264 670 307 672 309 658 c 0
 311 644 109 524 109 524 c 25
 23 537 l 25
 23 537 -5 556 0 583 c 0
 5 610 25 629 25 629 c 25
 141 673 l 25
436 851 m 1
 437.356445312 848.673828125 685.29296875 874.92578125 720 823 c 0
 834.87890625 651.126953125 593.44921875 590 594 590 c 1
 594 590 699 468 725 366 c 0
 738.981445312 311.149414062 765 125 814 124 c 0
 832.107421875 123.630859375 828 144 838 144 c 0
 848 144 862 104 841 78 c 0
 820 52 720 -20 720 -20 c 25
 720 -20 642 3 620 84 c 0
 598 165 600.407226562 294.776367188 581 347 c 0
 526 495 410 486 410 486 c 25
 388 -20 l 25
 244 -12 l 25
 273 698 l 17
 273 698 273 743.424804688 436 851 c 1
EndSplineSet
EndChar
StartChar: versicle
Encoding: 132 8483 132
Width: 752
VWidth: -36
Flags: W
HStem: 805 184<257.664 323.901>
VStem: 214 270<828.985 942.988>
LayerCount: 2
Fore
SplineSet
310 805 m 1
 310 805 307 805 303 805 c 0
 281 805 214 810 214 879 c 0
 214 961 290 989 304 989 c 0
 318 989 348 977 364 967 c 0
 366 966 368 965 369 965 c 0
 378 965 379 986 393 986 c 0
 395 986 396 985 398 985 c 0
 419 979 484 943 484 895 c 0
 484 894 484 892 484 891 c 0
 481 855 405 707 338 596 c 1
 387 588 l 1
 387 588 454 744 531 744 c 0
 641 744 727 640 727 528 c 0
 727 527 727 527 727 526 c 0
 726 445 658 351 623 287 c 0
 588 223 513 130 513 130 c 1
 345 -77 l 1
 291 0 l 1
 291 0 294 44 294 102 c 0
 294 183 288 291 264 340 c 0
 253 363 237 392 219 423 c 1
 185 369 167 325 164 295 c 0
 160 253 154 -11 154 -11 c 1
 154 -11 146 -85 122 -85 c 0
 98 -85 66 -35 66 -35 c 1
 66 -35 50 70 50 163 c 0
 50 197 52 230 58 255 c 0
 74 321 129 425 177 496 c 1
 142 556 112 606 112 606 c 2
 112 606 100 620 88 620 c 0
 76 620 40 599 40 599 c 1
 40 599 13 614 10 648 c 0
 10 651 10 654 10 656 c 0
 10 750 148 807 151 810 c 2
 151 810 224 728 293 639 c 1
 322 677 346 715 348 731 c 0
 348 733 348 735 348 737 c 0
 348 761 324 778 310 805 c 1
380 517 m 0
 392 497 402 478 408 463 c 0
 433 397 470 275 493 199 c 1
 510 215 528 239 538 268 c 0
 557 325 587 372 587 411 c 0
 587 412 587 414 587 416 c 0
 584 455 524 567 482 567 c 0
 481 567 481 567 480 567 c 0
 438 564 401 554 384 524 c 0
 383 522 381 520 380 517 c 0
EndSplineSet
Validated: 1
EndChar
StartChar: uni2720
Encoding: 97 10016 84
Width: 1168
VWidth: -36
Flags: W
HStem: 300.972 99.4845<362.087 521.887>
VStem: 484.306 171.583<626.001 685.301>
LayerCount: 2
Fore
SplineSet
12 606 m 25
 80 652 l 25
 80 652 92 544 120 538 c 0
 122.27027027 537.513513514 124.487947407 537.289992695 126.646634948 537.289992695 c 0
 151.111760409 537.289992695 168 566 168 566 c 9
 168 566 278 460 356 424 c 0
 397.294117647 404.941176471 441.39100346 400.456747405 473.749236719 400.456747405 c 0
 502.512110727 400.456747405 522 404 522 404 c 9
 522 404 514 456 490 496 c 0
 479.9713759 512.714373501 476.927008837 527.33346989 476.927008837 540.295054721 c 0
 476.927008837 558.352484345 482.835718675 573.192905425 484 586 c 0
 484.206389493 588.270284428 484.306287429 590.966535086 484.306287429 593.994243398 c 0
 484.306287429 620.306287429 476.761663039 671.651115948 466 686 c 0
 454 702 408 710 392 732 c 0
 377.047112888 752.560219779 351.613499231 780.107590588 351.613499231 798.317412335 c 0
 351.613499231 799.592600123 351.738221778 800.821998001 352 802 c 0
 356 820 426 856 462 858 c 0
 463.090909091 858.060606061 464.102846648 858.089990817 465.043214514 858.089990817 c 0
 495.134986226 858.089990817 451.939393939 828 578 828 c 0
 673.247524752 828 728.771100872 867.723948632 766.595887998 867.723948632 c 0
 780.396823841 867.723948632 791.841584158 862.435643564 802 848 c 0
 807.536351268 840.132553462 809.973621467 832.265106923 809.973621467 824.447141571 c 0
 809.973621467 778.604732246 726.172261823 734.463648732 692 702 c 0
 658.666666667 670.333333333 655.888888889 638.666666667 655.888888889 628.990740741 c 0
 655.888888889 627.055555556 656 626 656 626 c 9
 682 574 l 25
 682 574 660 536 622 460 c 0
 611.382352941 438.764705882 607.556877163 424.477724913 607.556877163 414.914035467 c 0
 607.556877163 398.974553057 618.18319877 396.155324875 625.701140587 396.155324875 c 0
 629.816224529 396.155324875 633 397 633 397 c 9
 633 397 727 398 825 432 c 0
 923 466 1091 555 1091 555 c 17
 1091 555 1092.28 518.52 1092.28 490.616 c 0
 1092.28 483.64 1092.2 477.2 1092 472 c 0
 1091 446 1063 417 1061 394 c 0
 1060.77777778 391.444444444 1060.67901235 388.296296296 1060.67901235 384.666666667 c 0
 1060.67901235 355.62962963 1067 295.777777778 1067 262 c 0
 1067 224 1043 130 1043 130 c 25
 1043 130 909 208 819 272 c 0
 771 306.133333333 723.284444444 314.097777778 689.203259259 314.097777778 c 0
 659.382222222 314.097777778 640 308 640 308 c 1
 640 308 605.386695511 178.200108167 605.386695511 129.499993711 c 0
 605.386695511 125.847485127 605.581395349 122.651162791 606 120 c 0
 612 82 682 -5 702 -41 c 0
 717.384615385 -68.6923076923 719.159763314 -140.171597633 719.159763314 -171.687300865 c 0
 719.159763314 -181.142011834 719 -187 719 -187 c 1
 719 -187 681.49382716 -178.530864198 642.710562414 -178.530864198 c 0
 631.62962963 -178.530864198 620.444444444 -179.222222222 610 -181 c 0
 563 -189 485 -236 485 -236 c 25
 309 -161 l 17
 309 -161 305.7232 -146.664 305.7232 -132.147776 c 0
 305.7232 -123.9824 306.76 -115.76 310 -110 c 0
 319 -94 347 -73 347 -73 c 25
 406 -86 l 25
 406 -86 444 -17 483 58 c 0
 522 133 525 300 525 300 c 17
 525 300 511.388604821 300.972242513 489.421179397 300.972242513 c 0
 437.49817385 300.972242513 338.891891892 295.540540541 263 259 c 0
 155 207 123 154 123 154 c 25
 123 122 l 25
 71 86 l 25
 32 138 l 17
 32 138 54.2499110004 254.589533642 54.2499110004 366.023804886 c 0
 54.2499110004 372.709861161 54.1698113208 379.377358491 54 386 c 0
 51 503 12 606 12 606 c 25
EndSplineSet
Validated: 524289
EndChar
StartChar: uniA750
Encoding: 98 42832 34
Width: 619
VWidth: -36
Flags: W
HStem: 626 20G<134 165>
VStem: 35 136<162 296.368> 411 154<291.933 424.722>
LayerCount: 2
Fore
SplineSet
192 506 m 1
 180 396 l 0
 171 162 l 1
 257 127 l 0
 354 102 l 1
 387 116 l 17
 387 116 411 187 411 319 c 0
 411 322 411 324 411 327 c 0
 410 464 310 524 267 525 c 0
 266 525 265 525 264 525 c 0
 222 525 192 506 192 506 c 1
17 554 m 9
 35 554 l 25
 35 554 63 597 84 614 c 0
 104 630 121 646 147 646 c 0
 148 646 149 646 151 646 c 0
 179 644 186 640 186 640 c 25
 189 532 l 25
 362 662 l 25
 362 662 565 656 565 403 c 0
 565 150 243 -3 243 -3 c 25
 196 24 l 25
 175 4 l 25
 175 4 170 -13 169 -31 c 0
 169 -32 169 -33 169 -34 c 0
 169 -86 242 -125 242 -125 c 9
 242 -125 210 -162 106 -162 c 0
 2 -162 -2 -146 -2 -146 c 25
 -2 -146 0 -110 7 -94 c 0
 14 -78 28 -58 28 -58 c 25
 47 81 l 17
 47 81 41 80 34 80 c 0
 22 80 6 82 4 92 c 0
 3 95 3 99 3 102 c 0
 3 130 35 145 35 145 c 9
 51 504 l 25
 51 504 36 504 24 522 c 0
 18 531 17 535 17 540 c 0
 17 543 18 545 18 548 c 0
 18 550 18 552 17 554 c 9
EndSplineSet
Validated: 1
EndChar
StartChar: per
Encoding: 99 42833 35
Width: 601
VWidth: -36
Flags: W
HStem: 626 20G<134 165>
VStem: 70 101<162 258.642> 411 154<291.933 424.722>
LayerCount: 2
Fore
SplineSet
17 554 m 2
 35 554 l 1
 35 554 63 597 84 614 c 0
 104 630 121 646 147 646 c 0
 148 646 149 646 151 646 c 0
 179 644 186 640 186 640 c 1
 189 532 l 1
 362 662 l 1
 362 662 565 656 565 403 c 0
 565 150 243 -3 243 -3 c 1
 196 24 l 1
 175 4 l 1
 175 4 170 -13 169 -31 c 0
 169 -32 169 -33 169 -34 c 0
 169 -69 202 -99 224 -114 c 1
 446 -36 l 1
 446 -36 568 -36 568 -76 c 0
 568 -140 482 -146 424 -152 c 0
 420 -152 415 -153 410 -153 c 0
 364 -153 284 -137 239 -127 c 1
 228 -136 186 -163 98 -163 c 0
 57 -163 89 -116 63 21 c 1
 63 21 4 41 0 57 c 0
 -0 59 -1 61 -1 62 c 0
 -1 94 70 110 70 110 c 1
 51 504 l 1
 51 504 36 504 24 522 c 0
 18 531 17 535 17 540 c 0
 17 543 18 545 18 548 c 0
 18 550 18 552 17 554 c 2
192 506 m 1
 180 396 l 1
 171 162 l 1
 257 127 l 1
 354 102 l 1
 387 116 l 1
 387 116 411 187 411 319 c 0
 411 322 411 324 411 327 c 0
 410 464 310 524 267 525 c 0
 266 525 265 525 264 525 c 0
 222 525 192 506 192 506 c 1
EndSplineSet
Validated: 1
LCarets2: 2 0 0
Ligature2: "'hlig' Ligaduras hist+APMA-ricas in Latin lookup 0-1" p e r
EndChar
StartChar: uniA751
Encoding: 42833 42833 36
Width: 619
VWidth: 0
Flags: W
HStem: 678 20G<335.385 362>
VStem: 70 101<198 294.642> 411 154<327.933 460.722>
LayerCount: 2
Fore
SplineSet
568 -40 m 3
 568 0 446 0 446 0 c 9
 206 -84 l 25
 206 -84 366 -122 424 -116 c 0
 482 -110 568 -104 568 -40 c 3
192 542 m 1
 180 432 l 0
 171 198 l 1
 257 163 l 0
 354 138 l 1
 387 152 l 25
 387 152 412 226 411 363 c 0
 410 500 310 560 267 561 c 0
 224 562 192 542 192 542 c 1
17 590 m 25
 35 590 l 25
 35 590 63 633 84 650 c 0
 105 667 123 684 151 682 c 0
 179 680 186 676 186 676 c 25
 189 568 l 25
 362 698 l 25
 362 698 565 692 565 439 c 0
 565 186 243 33 243 33 c 25
 196 60 l 25
 175 40 l 25
 175 40 169.856172689 22.979626479 169 5 c 0
 166.428571429 -49 242 -89 242 -89 c 1
 242 -89 202 -127.000000016 98 -127 c 0
 56.8285732194 -126.999999994 89.3156402236 -80.2603858873 63 57 c 1
 63 57 4 77 0 93 c 0
 -8.75 128 70 146 70 146 c 1
 51 540 l 1
 51 540 36 540 24 558 c 0
 12 576 20 578 17 590 c 25
EndSplineSet
Validated: 37
EndChar
StartChar: pre
Encoding: 100 42834 36
Width: 783
VWidth: -36
Flags: W
HStem: 626 20G<333 364>
VStem: 610 154<291.933 424.722>
LayerCount: 2
Fore
SplineSet
216 554 m 2
 234 554 l 1
 234 554 262 597 283 614 c 0
 303 630 320 646 346 646 c 0
 347 646 348 646 350 646 c 0
 378 644 385 640 385 640 c 1
 388 532 l 1
 561 662 l 1
 561 662 764 656 764 403 c 0
 764 150 442 -3 442 -3 c 1
 395 24 l 1
 374 4 l 1
 374 4 369 -13 368 -31 c 0
 368 -32 368 -33 368 -34 c 0
 368 -86 441 -125 441 -125 c 1
 441 -125 409 -162 305 -162 c 0
 201 -162 197 -146 197 -146 c 1
 197 -146 198 -130 200 -115 c 0
 202 -107 204 -99 206 -94 c 0
 213 -78 227 -58 227 -58 c 1
 246 81 l 1
 246 81 240 80 233 80 c 0
 223 80 209 82 205 89 c 1
 192 81 182 75 179 71 c 0
 169 60 139 38 139 38 c 1
 139 38 158 9 158 -32 c 0
 158 -44 157 -56 153 -69 c 0
 137 -125 63 -165 24 -165 c 0
 16 -165 9 -163 5 -159 c 0
 1 -155 -1 -149 -1 -142 c 0
 -1 -112 31 -64 31 -64 c 1
 31 -64 7 -46 3 -16 c 0
 3 -14 3 -11 3 -8 c 0
 3 20 21 54 21 54 c 1
 21 54 83 87 109 107 c 0
 129 123 204 174 236 196 c 1
 250 504 l 1
 250 504 235 504 223 522 c 0
 217 531 216 535 216 540 c 0
 216 543 217 545 217 548 c 0
 217 550 217 552 216 554 c 2
391 506 m 1
 379 396 l 1
 370 162 l 1
 456 127 l 1
 553 102 l 1
 586 116 l 1
 586 116 610 187 610 319 c 0
 610 322 610 324 610 327 c 0
 609 464 509 524 466 525 c 0
 465 525 464 525 463 525 c 0
 421 525 391 506 391 506 c 1
EndSplineSet
Validated: 1
LCarets2: 2 0 0
Ligature2: "'hlig' Ligaduras hist+APMA-ricas in Latin lookup 0-1" p r e
EndChar
StartChar: uniA752
Encoding: 42834 42834 36
Width: 619
VWidth: -36
Flags: W
HStem: 642 20G<335.385 362>
VStem: 35 136<162 296.368> 411 154<291.933 424.722>
LayerCount: 2
Fore
SplineSet
-2206 2114 m 1053,0,-1
192 506 m 1,1,-1
 180 396 l 0,2,-1
 171 162 l 1,3,-1
 257 127 l 0,4,-1
 354 102 l 1,5,-1
 387 116 l 25,6,-1
 387 116 412 190 411 327 c 0,9,-1
 410 464 310 524 267 525 c 0,12,-1
 224 526 192 506 192 506 c 1,1,-1
17 554 m 25,15,-1
 35 554 l 25,16,-1
 35 554 63 597 84 614 c 0,19,-1
 105 631 123 648 151 646 c 0,22,-1
 179 644 186 640 186 640 c 25,25,-1
 189 532 l 25,26,-1
 362 662 l 25,27,-1
 362 662 565 656 565 403 c 0,30,-1
 565 150 243 -3 243 -3 c 25,33,-1
 196 24 l 25,34,-1
 175 4 l 25,35,-1
 175 4 169.856445312 -13.0205078125 169 -31 c 0,38,-1
 166.428710938 -85 242 -125 242 -125 c 25,41,-1
 242 -125 210 -162 106 -162 c 0,44,-1
 2 -162 -2 -146 -2 -146 c 25,47,-1
 -2 -146 0 -110 7 -94 c 0,50,-1
 14 -78 28 -58 28 -58 c 25,53,-1
 47 81 l 25,54,-1
 47 81 8 76 4 92 c 0,57,-1
 -4.75 127 35 145 35 145 c 25,60,-1
 51 504 l 25,61,-1
 51 504 36 504 24 522 c 0,64,-1
 12 540 20 542 17 554 c 25,15,-1
EndSplineSet
EndChar
StartChar: uniA753
Encoding: 101 42835 37
Width: 619
VWidth: -36
Flags: W
HStem: 626.161 20G<133.793 147.271>
VStem: 35 136<162 294.7> 411.029 153.971<291.933 424.722>
LayerCount: 2
Fore
SplineSet
-2206 2114 m 1049,0,-1
192 506 m 1,1,-1
 180 396 l 0,2,-1
 171 162 l 1,3,-1
 257 127 l 0,4,-1
 354 102 l 1,5,-1
 387 116 l 17,6,-1
 387 116 411.029219531 187.126489812 411.029219531 319.013923755 c 0,9,-1
 411.029219531 321.651672434 411.019607843 324.31372549 411 327 c 0,12,-1
 410 464 310 524 267 525 c 0,15,-1
 265.951219512 525.024390244 264.908982748 525.036287924 263.873594405 525.036287924 c 0,18,-1
 222.458060678 525.036287924 192 506 192 506 c 1,1,-1
17 554 m 9,21,-1
 35 554 l 25,22,-1
 35 554 63 597 84 614 c 0,25,-1
 103.864011361 630.08039015 121.043812197 646.1607803 146.541774713 646.1607803 c 0,28,-1
 147.999959326 646.1607803 149.485348482 646.108189394 151 646 c 0,31,-1
 179 644 186 640 186 640 c 25,34,-1
 189 532 l 25,35,-1
 362 662 l 25,36,-1
 362 662 565 656 565 403 c 0,39,-1
 565 150 243 -3 243 -3 c 25,42,-1
 196 24 l 25,43,-1
 175 4 l 25,44,-1
 175 4 169.856445312 -13.0205078125 169 -31 c 0,47,-1
 168.956988087 -31.9032991746 168.935841877 -32.8026808966 168.935841877 -33.6980234671 c 0,50,-1
 168.935841877 -86.3270282778 242 -125 242 -125 c 9,53,-1
 242 -125 210 -162 106 -162 c 0,56,-1
 2 -162 -2 -146 -2 -146 c 25,59,-1
 -2 -146 0 -110 7 -94 c 0,62,-1
 14 -78 28 -58 28 -58 c 25,65,-1
 47 81 l 17,66,-1
 47 81 41.2307692308 80.2603550296 33.902594447 80.2603550296 c 0,69,-1
 22.1775147929 80.2603550296 6.46153846154 82.1538461538 4 92 c 0,72,-1
 3.13243626062 95.4702549575 2.74166392476 98.773387155 2.74166392476 101.908421872 c 0,75,-1
 2.74166392476 130.392451589 35 145 35 145 c 9,78,-1
 51 504 l 25,79,-1
 51 504 36 504 24 522 c 0,82,-1
 18.3063881118 530.540417832 17.115167381 535.478922739 17.115167381 539.5926254 c 0,85,-1
 17.115167381 542.552501974 17.7318669582 545.085375237 17.7318669582 548.225708997 c 0,88,-1
 17.7318669582 549.919612252 17.5524352301 551.79025908 17 554 c 9,21,-1
EndSplineSet
Validated: 1
EndChar
StartChar: uniA754
Encoding: 102 42836 38
Width: 1024
VWidth: -36
Flags: W
VStem: 480 216
LayerCount: 2
Fore
SplineSet
500 554 m 29
 500 554 636 538 644 410 c 4
 652 282 552 142 552 142 c 29
 696 2 l 29
 480 122 l 29
 480 122 568 282 568 386 c 4
 568 490 527 488 500 554 c 29
EndSplineSet
Validated: 33
EndChar
StartChar: uniA755
Encoding: 103 42837 39
Width: 1024
VWidth: -36
Flags: W
VStem: 568 76.4556<281.629 478.927>
LayerCount: 2
Fore
SplineSet
500 554 m 25
 500 554 636 538 644 410 c 0
 644.307692308 405.076923077 644.455621302 400.136094675 644.455621302 395.186162949 c 0
 644.455621302 271.437869822 552 142 552 142 c 9
 696 2 l 25
 480 122 l 25
 480 122 568 282 568 386 c 0
 568 490 527 488 500 554 c 25
EndSplineSet
Validated: 1
EndChar
StartChar: uniA75A
Encoding: 104 42842 29
Width: 1024
VWidth: -36
Flags: W
VStem: 568 76<281.375 478.927>
LayerCount: 2
Fore
SplineSet
500 554 m 25
 500 554 636 538 644 410 c 0
 644 405 644 400 644 395 c 0
 644 271 552 142 552 142 c 9
 696 2 l 25
 480 122 l 25
 480 122 568 282 568 386 c 0
 568 490 527 488 500 554 c 25
EndSplineSet
Validated: 1
EndChar
StartChar: rotunda
Encoding: 105 42843 28
Width: 380
VWidth: -36
Flags: W
HStem: 554 132<59.0625 126.628>
VStem: 192 104<453 494.999>
LayerCount: 2
Fore
SplineSet
0 554 m 9
 60 667 l 1
 67 678 103 686 141 686 c 0
 177 686 214 679 234 660 c 0
 290 606 296 513 296 473 c 0
 296 461 296 453 296 453 c 1
 167 343 l 1
 167 343 165 333 165 318 c 0
 165 292 172 251 209 213 c 0
 246 176 296 169 328 169 c 0
 347 169 360 172 360 172 c 1
 173 0 l 25
 173 0 102 12 56 62 c 0
 11 110 0 173 0 173 c 25
 184 400 l 1
 184 400 192 414 192 435 c 0
 192 453 186 477 164 502 c 0
 120 552 65 550 0 554 c 9
EndSplineSet
Validated: 1
Ligature2: "'hlig' Ligaduras hist+APMA-ricas in Latin lookup 0-1" r
EndChar
StartChar: uniA75B
Encoding: 105 42843 28
Width: 364
VWidth: -36
Flags: W
VStem: 0 327
LayerCount: 2
Fore
SplineSet
0 480 m 9
 55 582 l 1
 65.7490234375 601.436523438 175.211914062 612.642578125 213 576 c 0
 279 512 269 388 269 388 c 1
 152 288 l 1
 152 288 136 224 190 170 c 0
 244 116 327 132 327 132 c 1
 157 -24 l 25
 157 -24 93 -13 51 32 c 4
 10.060546875 75.86328125 0 133 0 133 c 25
 167 340 l 1
 167 340 191.686523438 382.91015625 149 432 c 0
 109 478 59 476 0 480 c 9
EndSplineSet
EndChar
StartChar: rum
Encoding: 107 42845 31
Width: 664
VWidth: -36
Flags: W
HStem: 60 123<142.031 246.813>
VStem: 159 82<376.368 456.73>
LayerCount: 2
Fore
SplineSet
38 532 m 1
 30 504 l 1
 -8 524 l 1
 0 558 l 1
 90 656 l 1
 90 656 100 668 117 666 c 0
 134 664 191 619 203 606 c 0
 216 591 226 575 232 557 c 1
 278 541 l 1
 278 541 291 556 306 576 c 0
 321 596 345 610 345 610 c 1
 345 610 344 620 344 633 c 0
 344 659 348 698 371 698 c 0
 372 698 372 698 372 698 c 0
 408 697 410 629 410 629 c 1
 482 618 l 1
 482 618 508 625 529 625 c 0
 539 625 549 623 554 619 c 0
 561 614 564 607 564 600 c 0
 564 574 524 536 496 495 c 0
 460 443 390 268 390 268 c 1
 390 268 382 243 366 243 c 0
 364 243 361 243 358 245 c 0
 350 249 346 258 346 270 c 0
 346 303 376 359 395 390 c 0
 414 421 425 439 425 454 c 0
 425 460 424 465 421 470 c 0
 411 488 358 513 316 513 c 0
 311 513 307 513 303 512 c 0
 278 509 256 504 241 500 c 0
 241 498 241 496 241 495 c 0
 241 406 194 309 174 280 c 1
 174 280 161 261 148 264 c 0
 135 267 131 275 131 285 c 0
 131 311 159 354 159 393 c 0
 159 393 159 394 159 394 c 0
 158 470 63 532 38 532 c 1
609 185 m 1
 609 185 551 149 522 117 c 0
 493 85 429 19 429 19 c 1
 429 19 343 43 281 54 c 1
 269 -30 l 1
 269 -30 289 -80 289 -105 c 0
 289 -108 288 -112 287 -114 c 0
 279 -132 250 -138 250 -138 c 1
 166 -126 l 1
 166 -126 213 -23 228 10 c 0
 235 24 242 43 247 59 c 1
 243 60 239 60 236 60 c 0
 235 60 235 60 234 60 c 0
 183 60 25 19 25 19 c 1
 0 32 l 1
 0 32 7 97 40 123 c 0
 73 149 127 200 142 202 c 0
 143 202 143 202 144 202 c 0
 162 202 216 183 248 183 c 0
 282 183 368 199 368 199 c 1
 368 199 387 176 423 164 c 0
 459 152 489 152 489 152 c 1
 489 152 491 226 524 265 c 0
 557 304 625 316 625 316 c 1
 609 185 l 1
EndSplineSet
Validated: 1
LCarets2: 2 0 0
Ligature2: "'hlig' Ligaduras hist+APMA-ricas in Latin lookup 0-1" r u m
EndChar
StartChar: uniA770
Encoding: 42864 42864 27
Width: 1024
VWidth: 0
VStem: 420 288<330 534>
LayerCount: 2
Fore
SplineSet
504 507 m 1
 504 507 420 507 420 453 c 0
 420 399 462 375 528 369 c 4
 594 363 606 369 594 423 c 0
 582 477 504 507 504 507 c 1
438 585 m 25
 438 585 708 561 708 411 c 0
 708 261 438 45 438 45 c 25
 528 267 l 25
 528 267 306 243 336 393 c 0
 366 543 398 510 438 585 c 25
EndSplineSet
Validated: 33
EndChar
StartChar: us
Encoding: 110 42864 26
Width: 544
VWidth: -36
Flags: HMW
LayerCount: 2
Fore
SplineSet
227 740 m 25
 227 740 176 719 162 711 c 0
 148 703 122 682 122 682 c 17
 122 682 119 660 119 634 c 0
 119 608 122 580 135 567 c 0
 159 544 180 497 234 497 c 0
 240 497 246 498 252 499 c 0
 299 507 301 543 301 543 c 17
 301 543 307 566 307 593 c 0
 307 613 304 635 293 652 c 0
 266 694 253 706 227 740 c 25
0 580 m 25
 0 580 74 686 122 727 c 0
 169 768 262 852 287 852 c 0
 287 852 288 852 288 852 c 0
 312 850 401 815 447 724 c 0
 475 668 484 617 484 578 c 0
 484 554 481 534 477 520 c 0
 467 483 321 260 300 226 c 0
 279 192 232 65 232 65 c 25
 232 65 194 87 187 103 c 0
 183 112 173 126 173 145 c 0
 173 159 178 176 192 196 c 0
 227 246 268 265 268 265 c 25
 330 467 l 25
 328 488 l 25
 328 488 283 485 267 478 c 0
 251 471 104 361 104 361 c 25
 104 361 61 426 44 463 c 0
 27 500 17 534 0 580 c 25
EndSplineSet
Validated: 1
EndChar
StartChar: insulard
Encoding: 111 42874 21
Width: 590
VWidth: -36
Flags: W
VStem: 52 133<241.473 393.706> 411 157<238.846 430.505>
LayerCount: 2
Fore
SplineSet
372 110 m 17
 373 113 411 146 411 316 c 3
 411 437 370 455 368 455 c 8
 260 522 l 17
 260 522 212 477 188 376 c 0
 186 367 185 357 185 347 c 0
 185 271 237 168 237 168 c 9
 372 110 l 17
56 608 m 1
 56 608 95 716 149 716 c 0
 203 716 357 634 400 610 c 0
 443 586 568 512 568 343 c 0
 568 174 406 87 406 87 c 25
 405 44 l 25
 405 44 371 -1 252 -1 c 0
 133 -1 52 134 52 286 c 0
 52 438 177 526 177 526 c 25
 177 526 137 530 99 551 c 0
 61 572 56 608 56 608 c 1
EndSplineSet
Validated: 1
Ligature2: "'hlig' Ligaduras hist+APMA-ricas in Latin lookup 0-1" d
EndChar
StartChar: uniA77A
Encoding: 42874 42874 22
Width: 1024
VWidth: 0
Flags: H
LayerCount: 2
Fore
SplineSet
335 532 m 9
 335 532 351 300 351 202 c 0
 351 104 371 10 469 12 c 0
 567 14 699 134 673 250 c 0
 647 366 427 448 335 532 c 9
205 796 m 25
 205 796 259 682 321 624 c 0
 383 566 811 454 813 272 c 0
 815 90 661 -22 469 -24 c 0
 277 -26 209 70 229 234 c 0
 237.42344385 303.072239568 263 464 263 464 c 1
 323 536 l 1
 323 536 235 518 209 614 c 0
 183 710 207 725 205 796 c 25
EndSplineSet
EndChar
StartChar: d_e
Encoding: 57344 57344 60
Width: 634
VWidth: 0
Flags: W
HStem: 707 21G<409.259 427.887>
VStem: 411 157<274.82 466.546>
LayerCount: 2
Fore
SplineSet
281 824 m 29
 271 875 l 25
 271 875 347 959 409 959 c 0
 471 959 537 849 537 849 c 25
 410 707 l 25
 407 788 l 25
 407 788 398 812 365 819 c 0
 332 826 314 822 281 824 c 29
372 146 m 17
 372.5625 149 411 181.85546875 411 352 c 3
 411 473.224609375 369.790193476 491 368 491 c 11
 260 558 l 17
 260 558 212.24 513 188 412 c 0
 170 337 237 204 237 204 c 25
 372 146 l 17
56 644 m 1
 56 644 95 752 149 752 c 0
 203 752 357 670 400 646 c 0
 443 622 568 548 568 379 c 0
 568 210 406 123 406 123 c 25
 405 80 l 25
 405 80 371 35 252 35 c 0
 133 35 52 170 52 322 c 0
 52 474 177 562 177 562 c 25
 177 562 137 566 99 587 c 0
 61 608 56 644 56 644 c 1
EndSplineSet
Validated: 33
Comment: "ligadura para d+-e"
EndChar
StartChar: d_e1
Encoding: 112 57344 59
Width: 598
VWidth: -36
Flags: W
HStem: 787.397 135.603<311.669 440>
VStem: 52 132.929<241.567 393.706> 411 157<238.82 430.546>
LayerCount: 2
Fore
SplineSet
281 788 m 9
 271 839 l 25
 271 839 347 923 409 923 c 0
 471 923 537 813 537 813 c 25
 410 671 l 25
 407 752 l 25
 407 752 398 776 365 783 c 0
 346.392296915 786.947088533 332.553830939 787.39673652 318.106144614 787.39673652 c 0
 313.843142495 787.39673652 309.52709972 787.35758874 305.019847652 787.35758874 c 0
 297.712148181 787.35758874 289.901820732 787.460495713 281 788 c 9
372 110 m 17
 372.5625 113 411 145.85546875 411 316 c 3
 411 437.224609375 369.790039062 455 368 455 c 8
 260 522 l 17
 260 522 212.240234375 477 188 376 c 0
 185.868421053 367.118421053 184.92884349 357.423476454 184.92884349 347.232356666 c 0
 184.92884349 271.365131579 237 168 237 168 c 9
 372 110 l 17
56 608 m 1
 56 608 95 716 149 716 c 0
 203 716 357 634 400 610 c 0
 443 586 568 512 568 343 c 0
 568 174 406 87 406 87 c 25
 405 44 l 25
 405 44 371 -1 252 -1 c 0
 133 -1 52 134 52 286 c 0
 52 438 177 526 177 526 c 25
 177 526 137 530 99 551 c 0
 61 572 56 608 56 608 c 1
EndSplineSet
Validated: 1
Comment: "ligadura para d+-e"
EndChar
StartChar: q_u_e
Encoding: 113 57345 81
Width: 1043
VWidth: -36
Flags: W
HStem: 15 80<153.5 311.811>
VStem: 0 147.285<184.851 355.68> 353 181.683<-160 108> 390.321 144.061<167.067 221.51 265.116 483.949> 586.489 154.938<-143.541 -56.0038> 789.201 137.017<82.7365 189.331>
LayerCount: 2
Fore
SplineSet
0 300 m 0xec
 0 416 78 519 78 519 c 1
 420 715 l 1
 420 715 428.381835938 688.228515625 480 665 c 0
 487.098384494 661.805726978 487.999381737 661.35764727 488.944040622 661.35764727 c 0
 489.31241447 661.35764727 489.6874277 661.425784242 490.439163127 661.425784242 c 0
 493.191199513 661.425784242 500.992167857 660.512594255 532 652 c 1
 532.584579977 557.064211738 l 1
 592 589 l 1
 632 700 l 1
 632 700 704.653320312 625.3984375 769 602 c 0
 835 578 912 575 912 575 c 1
 764 434 l 1
 764 434 761 360 761 360 c 1
 761 360 836.802734375 334.19921875 853 327 c 0
 920.639175258 296.93814433 926.217663939 179.015091933 926.217663939 140.930564397 c 0
 926.217663939 133.40769476 926 129 926 129 c 1
 741 -56 l 1
 741 -56 741.426666667 -61.2622222222 741.426666667 -69.3025185185 c 0
 741.426666667 -91.4133333333 738.2 -134.533333333 714 -147 c 0
 690.886683977 -158.906800452 662.060044253 -165.660378128 638.169328708 -165.660378128 c 0
 614.384672937 -165.660378128 595.492213816 -158.96663064 592 -144 c 0
 588.954359185 -130.946568634 586.488706582 -112.825241241 586.488706582 -95.0379511312 c 0
 586.488706582 -65.732558408 593.181499715 -37.33387997 615 -34 c 0
 652.616210938 -28.2529296875 754 -1 754 -1 c 1
 771.632986158 16.1143846911 789.200588921 59.0664019511 789.200588921 106.406528869 c 0
 789.200588921 145.269365168 777.361380849 187.089448622 744 220 c 0
 730.216907037 233.596892051 704.831780746 238.434282254 675.684836328 238.434282254 c 0
 627.001211913 238.434282254 567.822706079 224.938723765 534.683349995 216.223960862 c 1
 537 -160 l 1
 393 -230 l 1
 347 -178 l 1
 353 108 l 1
 353 108 311 15 206 15 c 0
 101 15 0 163 0 300 c 0xec
176 543 m 2
 148 296 l 2
 147.848302728 296.52000121 147.719013523 296.769805279 147.61381503 296.769805279 c 0
 147.399389972 296.769805279 147.285052838 295.731962547 147.285052838 293.828972456 c 0
 147.285052838 277.829449312 155.367229233 200.675047318 180 165 c 0
 206 127 283 95 286 95 c 0
 337 95 384 167 384 167 c 1
 384 167 390.320987654 258.654320988 390.320987654 314.138545953 c 0xdc
 390.320987654 321.074074074 390.222222222 327.444444444 390 333 c 0
 388 383 380 501 380 501 c 1
 380 501 350 517 314 536 c 0
 294.078638359 546.514090577 274.790026478 549.697923483 256.809444901 549.697923483 c 0
 229.196660147 549.697923483 204.668701949 542.189250119 185.671272961 542.189250119 c 0
 182.265016004 542.189250119 179.036559084 542.430645172 176 543 c 2
534.382288877 265.116286448 m 1
 700 378 l 1
 694 470 l 1
 694 470 654.724358583 474.472665896 623.561081576 474.472665896 c 0
 618.030213358 474.472665896 612.754878633 474.33178022 608 474 c 0
 603.838709677 473.709677419 599.951270446 473.578563996 596.293523395 473.578563996 c 0
 568.369712599 473.578563996 553.832438949 481.219898177 533.034469333 484.002180356 c 1
 534.382288877 265.116286448 l 1
EndSplineSet
Validated: 524289
LCarets2: 2 0 0
Ligature2: "'hlig' Ligaduras hist+APMA-ricas in Latin lookup 0-1" q u e
Comment: "abreviatura latina para la desinencia que "
EndChar
StartChar: uniE001
Encoding: 57345 57345 83
Width: 625
VWidth: 0
Flags: HW
LayerCount: 2
Fore
SplineSet
518 521 m 25
 577 631 l 25
 577 631 618 614 686 606 c 0
 754 598 875 606 875 606 c 25
 654 406 l 25
 654 406 752.338867188 376.96875 790 355 c 0
 850 320 842 108 842 108 c 25
 591 -135 l 25
 591 -135 541 -133 525 -116 c 0
 509 -99 510 -61 510 -61 c 25
 510 -61 577 4 615 2 c 0
 653 0 685 -12 685 -12 c 25
 753 54 l 25
 753 54 739.32421875 205.211914062 717 239 c 0
 680 295 554 289 554 289 c 1
 553 348 l 25
 701 485 l 1
 701 485 628 479 598 489 c 0
 568 499 549 509 518 521 c 25
176 579 m 17
 207 573.1875 242 585.555555556 298 556 c 0
 334 537 364 499 364 499 c 25
 364 499 372 403 374 353 c 0
 376 303 351 167 351 167 c 1
 351 167 337 131 286 131 c 3
 283 131 206 163 180 201 c 24
 151 243 144.939123814 342.490867044 148 332 c 1
 176 579 l 17
0 336 m 27
 0 199 101 51 206 51 c 0
 311 51 353 144 353 144 c 25
 347 -142 l 25
 393 -194 l 25
 601 -95 l 25
 601 -25 l 25
 540 -79 l 25
 540 -79 532 -37 524 -24 c 0
 516 -11 499 14 499 14 c 25
 493 512 l 25
 522 559 l 25
 522 559 493 608 445 638 c 0
 397 668 308 688 308 688 c 25
 116 611 l 1
 116 611 0 452 0 336 c 27
-227 1091 m 1
 -219 1095 l 0
 -188.04296875 1095 -135 1123.25097656 -135 1159 c 0
 -135 1183.07421875 -155.87109375 1183 -175 1183 c 0
 -215.526367188 1183 -263 1140.50976562 -263 1095 c 0
 -263 997.349609375 -111.801757812 1042.31542969 -67 1027 c 1024
-343 1151 m 0
 -351.14453125 1139.93457031 -353.453125 1126.45410156 -351 1111 c 0
 -351 1074.8359375 -340.0078125 1039 -299 1039 c 0
 -289.91015625 1039 -288.439453125 1051.74707031 -283 1059 c 0
 -279 1171 l 1025
-403 1119 m 1
 -411 987 l 0
 -411 979 -411 970.999023438 -411 963 c 1024
-463 1163 m 1
 -471 1163 l 0
 -500.780273438 1163 -531 1131.08789062 -531 1103 c 0
 -531 1079.5546875 -461.760742188 1071 -443 1071 c 0
 -415.13671875 1071 -407 1108.7109375 -407 1131 c 0
 -407 1167 l 0
 -407 1178.96875 -429.944335938 1183 -443 1183 c 0
 -453.961914062 1183 -460.702148438 1180.52539062 -471 1179 c 0
 -487 1171 l 1025
EndSplineSet
Comment: "abreviatura latina para la desinencia que "
EndChar
StartChar: f_f
Encoding: 114 64256 40
Width: 658
VWidth: -36
Flags: W
HStem: 485 76.2998<496.348 550> 731 108<438.508 528.373>
VStem: 317 103<73.6424 475.955 578.002 669.116>
LayerCount: 2
Fore
SplineSet
287 -5 m 25
 287 -5 344 -19 361 -6 c 0
 378 7 412 24 412 24 c 25
 412 24 424 173 420 203 c 0
 416 233 399.545898438 437.55859375 414 456 c 0
 439.829101562 488.953125 493 485 545 485 c 27
 567 485 578 490.94921875 578 530 c 3
 578 563.241210938 550 561.299804688 550 561.299804688 c 1
 425 578 l 9
 425 578 413 580 414 637 c 0
 415 694 421 731 462 731 c 0
 503 731 578 680 578 680 c 25
 636 748 l 25
 634 784 l 25
 634 784 602.049804688 839 512 839 c 3
 421.950195312 839 312 711 312 711 c 25
 312 711 319 402 317 328 c 0
 315 254 299 125 287 -5 c 25
35 1 m 25
 143 -36 l 25
 143 -36 170 76 176 112 c 0
 182 148 150 424 178 458 c 0
 206 492 332 484 332 484 c 1
 337 564 l 1
 171 565 l 1
 171 565 133 663 204 713 c 0
 275 763 335 665 335 665 c 25
 406 733 l 25
 406 733 339.09765625 833 293 833 c 3
 246.90234375 833 190 821 125 741 c 0
 60 661 56 557 56 557 c 25
 56 557 4 518 6 487 c 0
 8 456 58 459 58 459 c 25
 58 459 75 249 60 163 c 0
 45 77 45 64 35 1 c 25
EndSplineSet
Validated: 37
LCarets2: 1 0
Ligature2: "'liga' Ligaduras est+AOEA-ndar in Latin lookup 1-1" f f
EndChar
StartChar: ff
Encoding: 64256 64256 41
Width: 658
VWidth: 0
Flags: HW
LayerCount: 2
Fore
SplineSet
287 31 m 25
 287 31 344 17 361 30 c 0
 378 43 412 60 412 60 c 25
 412 60 424 209 420 239 c 0
 416 269 399.545718828 473.558911209 414 492 c 0
 439.829238168 524.953508291 493 521 545 521 c 27
 567 521 578 526.94875162 578 566 c 3
 578 599.241540277 550.00000085 597.299403749 550.00000085 597.299403749 c 1
 425 614 l 9
 425 614 413 616 414 673 c 0
 415 730 421 767 462 767 c 0
 503 767 578 716 578 716 c 25
 636 784 l 25
 634 820 l 25
 634 820 602.049986119 875 512 875 c 3
 421.950013881 875 312 747 312 747 c 25
 312 747 319 438 317 364 c 0
 315 290 299 161 287 31 c 25
35 37 m 25
 143 0 l 25
 143 0 170 112 176 148 c 0
 182 184 150 460 178 494 c 0
 206 528 332 520 332 520 c 1
 337 600 l 1
 171 601 l 1
 171 601 133 699 204 749 c 0
 275 799 335 701 335 701 c 25
 406 769 l 25
 406 769 339.097722286 869 293 869 c 3
 246.902277714 869 190 857 125 777 c 0
 60 697 56 593 56 593 c 25
 56 593 4 554 6 523 c 0
 8 492 58 495 58 495 c 25
 58 495 75 285 60 199 c 0
 45 113 45 100 35 37 c 25
EndSplineSet
EndChar
StartChar: f_i
Encoding: 115 64257 41
Width: 607
VWidth: -36
Flags: W
HStem: 482 126<278.747 330.625> 748 92.6092<206.786 314.276>
VStem: 60.5471 133.453<42.124 99.9896 364.723 482> 82 107.08<102 262.226> 347.575 134.425<176 682.346>
LayerCount: 2
Fore
SplineSet
574 861 m 25xc8
 592 831 l 25
 564 812 l 25
 561 780 l 17
 561 780 536.886258472 746.282777477 508.373291182 746.282777477 c 0
 501.092944216 746.282777477 493.525786403 748.480997276 486 754 c 0
 476.217391304 761.173913043 474.516068053 772.601134216 474.516068053 779.682584039 c 0
 474.516068053 783.459357278 475 786 475 786 c 9
 492 836 l 25
 574 861 l 25xc8
482 380 m 1
 478 176 l 1
 529 148 l 25
 557 84 l 25
 492 40 l 25
 503 26 l 25
 456 -32 l 25
 355 62 l 17
 355 62 340.826989619 63.7716262976 340.826989619 90.6586606961 c 0
 340.826989619 92.339100346 340.882352941 94.1176470588 341 96 c 0
 343 128 352 135 352 135 c 17
 347.661132812 483 l 2
 347.599647749 487.930599627 347.574623317 492.935026509 347.574623317 497.997469116 c 0
 347.574623317 520.152511594 348.053903167 543.4186989 348.053903167 566.470739711 c 0
 348.053903167 658.958964361 340.338772306 748 263 748 c 3
 229.869496796 748 183.90395678 720.464293224 183.90395678 684.822604065 c 0
 183.90395678 683.887202199 183.935616879 682.946217102 184 682 c 1
 185.39635335 661.48316138 186.031518876 646.103542438 186.031518876 632.790061966 c 0
 186.031518876 612.360479123 184.535893914 596.796034802 182 575 c 0
 181.999790864 574.998198696 181.999686408 574.996396636 181.999686408 574.994593824 c 0
 181.999686408 573.32116791 272 571 272 571 c 1
 272 571 281 608 299 608 c 27
 325.275390625 608 343 572.4609375 343 538 c 3
 343 498.94921875 337 482 315 482 c 0
 255.206533265 482 216.093620996 490.162746301 199.335536157 490.162746301 c 0
 193.146282402 490.162746301 190.006321458 489.049313255 190 486 c 0
 189.971345264 472.081439365 189.079936127 383.21091508 189.079936127 287.408465439 c 0xd8
 189.079936127 187.312244007 190.053040042 79.6488085668 194 42 c 1
 231 42 l 0
 240 -54 l 1
 143 -38 l 0
 57 2 l 1
 59.8685542814 20.0706056256 60.5471282693 46.3047030311 60.5471282693 67.0832086897 c 0xe8
 60.5471282693 85.7410022909 60 100 60 100 c 1
 82 102 l 1xd8
 65 482 l 1
 65 482 62.6015779093 481.831689678 58.7714391679 481.831689678 c 0
 43.929651545 481.831689678 7.58974358974 484.358974359 6 509 c 0
 5.96226415094 509.58490566 5.94375222499 510.172659309 5.94375222499 510.76294525 c 0
 5.94375222499 541.457814169 56 579 56 579 c 9
 56 579 60 683 125 763 c 0
 168.349449236 816.35309722 226.490830304 840.60920364 283.733702943 840.60920364 c 0
 347.500827356 840.60920364 410.152956611 810.508828024 450 757 c 0
 485 710 475.896484375 452.134765625 482 380 c 1
EndSplineSet
Validated: 524289
Ligature2: "'liga' Ligaduras est+AOEA-ndar in Latin lookup 1-1" f i
LCarets2: 1 0
EndChar
StartChar: fl
Encoding: 64258 64258 43
Width: 564
VWidth: 0
Flags: W
VStem: 315 140<49.1558 150.959>
LayerCount: 2
Fore
SplineSet
46 98 m 1
 46 98 53 16 109 16 c 0
 165 16 192 41 192 65 c 0
 192 89 204 739 204 739 c 25
 307 741 l 25
 307 741 345 727 346 679 c 0
 347 631 333 151 333 151 c 25
 333 151 315 94 315 70 c 0
 315 46 342 31 372 31 c 0
 402 31 455 45 455 89 c 4
 455 133 478 825 478 825 c 29
 478 825 452 844 395 859 c 0
 338 874 272 831 272 831 c 25
 75 659 l 17
 75 649 l 0
 75 576 l 9
 5 529 l 25
 0 466 l 1
 74 462 l 1
 74 462 73 362 73 297 c 3
 73 219 46 98 46 98 c 1
EndSplineSet
Validated: 41
EndChar
StartChar: longs_l
Encoding: 116 64258 42
Width: 508
VWidth: -36
Flags: W
VStem: 315 140<13.1558 114.959>
LayerCount: 2
Fore
SplineSet
46 62 m 1
 46 62 73 183 73 261 c 3
 73 326 74 426 74 426 c 1
 0 430 l 1
 5 493 l 25
 75 540 l 17
 75 613 l 0
 75 623 l 9
 272 795 l 17
 272 795 319.851779237 826.1761592 369.254111177 826.1761592 c 0
 377.870796981 826.1761592 386.534653465 825.227722772 395 823 c 0
 452 808 478 789 478 789 c 25
 478 789 455 97 455 53 c 0
 455 9 402 -5 372 -5 c 0
 342 -5 315 10 315 34 c 0
 315 58 333 115 333 115 c 17
 333 115 346.051129608 562.467300832 346.051129608 636.530854074 c 0
 346.051129608 639.175980975 346.034482759 641.344827586 346 643 c 0
 345 691 307 705 307 705 c 25
 204 703 l 25
 204 703 192 53 192 29 c 0
 192 5 165 -20 109 -20 c 0
 53 -20 46 62 46 62 c 1
EndSplineSet
Validated: 524289
EndChar
